<svg xmlns="http://www.w3.org/2000/svg" xmlns:xlink="http://www.w3.org/1999/xlink" width="1000" zoomAndPan="magnify" viewBox="0 0 750 749.999995" height="1000" preserveAspectRatio="xMidYMid meet" version="1.0"><defs><clipPath id="id1"><path d="M 298 241.089844 L 375 241.089844 L 375 372 L 298 372 Z M 298 241.089844 " clip-rule="nonzero"/></clipPath><clipPath id="id2"><path d="M 292 368 L 375 368 L 375 508.839844 L 292 508.839844 Z M 292 368 " clip-rule="nonzero"/></clipPath><clipPath id="id3"><path d="M 371 241.089844 L 448 241.089844 L 448 372 L 371 372 Z M 371 241.089844 " clip-rule="nonzero"/></clipPath><clipPath id="id4"><path d="M 82 81.960938 L 191 81.960938 L 191 222 L 82 222 Z M 82 81.960938 " clip-rule="nonzero"/></clipPath><clipPath id="id5"><path d="M 81.960938 373 L 169 373 L 169 401 L 81.960938 401 Z M 81.960938 373 " clip-rule="nonzero"/></clipPath><clipPath id="id6"><path d="M 81.960938 403 L 169 403 L 169 430 L 81.960938 430 Z M 81.960938 403 " clip-rule="nonzero"/></clipPath><clipPath id="id7"><path d="M 81.960938 431 L 169 431 L 169 458 L 81.960938 458 Z M 81.960938 431 " clip-rule="nonzero"/></clipPath><clipPath id="id8"><path d="M 81.960938 460 L 169 460 L 169 488 L 81.960938 488 Z M 81.960938 460 " clip-rule="nonzero"/></clipPath><clipPath id="id9"><path d="M 475 385 L 667.710938 385 L 667.710938 401 L 475 401 Z M 475 385 " clip-rule="nonzero"/></clipPath><clipPath id="id10"><path d="M 550 454 L 667.710938 454 L 667.710938 470 L 550 470 Z M 550 454 " clip-rule="nonzero"/></clipPath><clipPath id="id11"><path d="M 509 420 L 667.710938 420 L 667.710938 436 L 509 436 Z M 509 420 " clip-rule="nonzero"/></clipPath><clipPath id="id12"><path d="M 232 518 L 532 518 L 532 667.710938 L 232 667.710938 Z M 232 518 " clip-rule="nonzero"/></clipPath><clipPath id="id13"><path d="M 600 155 L 667.710938 155 L 667.710938 260 L 600 260 Z M 600 155 " clip-rule="nonzero"/></clipPath></defs><path fill="#f4f4f4" d="M 440.085938 487.699219 C 439.503906 487.699219 439.210938 487.507812 438.824219 486.925781 C 431.0625 473.445312 400.121094 467.625 373.058594 467.625 C 345.804688 467.625 315.054688 473.734375 307.296875 486.925781 C 306.90625 487.699219 306.035156 487.796875 305.453125 487.507812 C 305.066406 487.3125 304.675781 486.730469 304.675781 486.246094 C 304.675781 486.050781 304.675781 485.664062 304.871094 485.46875 C 312.632812 471.988281 302.253906 441.832031 288.480469 417.878906 C 272.085938 390.046875 252.203125 371.136719 238.914062 371.136719 C 238.136719 371.136719 237.457031 370.554688 237.457031 369.679688 C 237.457031 368.808594 238.234375 368.421875 238.914062 368.421875 C 252.203125 368.421875 272.085938 349.414062 288.285156 321.484375 C 302.058594 297.726562 312.4375 267.664062 304.675781 254.085938 C 304.484375 253.890625 304.484375 253.699219 304.484375 253.308594 C 304.484375 252.726562 304.675781 252.4375 305.257812 252.050781 C 306.035156 251.660156 306.714844 251.855469 307.101562 252.632812 C 314.863281 266.109375 345.804688 271.929688 372.867188 271.929688 C 400.121094 271.929688 430.871094 265.820312 438.628906 252.632812 C 439.019531 251.855469 439.890625 251.757812 440.472656 252.050781 C 440.859375 252.242188 441.25 252.824219 441.25 253.308594 C 441.25 253.503906 441.25 253.890625 441.054688 254.085938 C 433.296875 267.566406 443.769531 297.917969 457.640625 321.871094 C 474.035156 350.1875 493.917969 369.195312 507.207031 369.195312 C 507.984375 369.195312 508.660156 369.777344 508.660156 370.652344 C 508.660156 371.523438 508.078125 372.105469 507.207031 372.105469 C 491.6875 372.105469 470.929688 396.058594 457.058594 419.816406 C 440.859375 447.84375 434.363281 474.511719 441.054688 485.953125 C 441.25 486.148438 441.25 486.34375 441.25 486.730469 C 441.25 487.3125 441.054688 487.601562 440.472656 487.992188 C 440.472656 487.699219 440.277344 487.699219 440.085938 487.699219 Z M 246.285156 369.875 C 262.09375 375.597656 279.457031 397.707031 290.710938 416.8125 C 307.878906 446.292969 311.660156 467.820312 309.527344 480.136719 C 322.425781 469.082031 350.460938 464.8125 373.058594 464.8125 C 395.5625 464.8125 423.5 468.886719 436.398438 479.941406 C 433.488281 463.359375 443.769531 437.371094 455.023438 418.070312 C 471.996094 388.589844 488.777344 374.625 500.320312 370.554688 C 484.507812 365.027344 466.757812 342.527344 455.605469 323.230469 C 438.4375 293.554688 434.460938 272.027344 436.59375 259.710938 C 423.691406 270.765625 395.660156 275.03125 373.058594 275.03125 C 350.558594 274.839844 322.621094 270.765625 309.722656 259.710938 C 312.824219 276.488281 302.15625 303.15625 290.710938 322.648438 C 279.652344 342.042969 262.191406 364.152344 246.285156 369.875 Z M 246.285156 369.875 " fill-opacity="1" fill-rule="nonzero"/><path fill="#f4f4f4" d="M 426.3125 463.746094 C 425.730469 463.746094 425.4375 463.554688 425.050781 462.972656 C 419.714844 453.757812 398.859375 447.648438 372.964844 447.648438 C 347.066406 447.648438 326.210938 453.757812 320.875 462.972656 C 320.488281 463.746094 319.613281 463.84375 319.03125 463.554688 C 318.644531 463.359375 318.257812 462.777344 318.257812 462.292969 C 318.257812 462.097656 318.257812 461.710938 318.449219 461.515625 C 323.785156 452.304688 318.449219 430.96875 305.550781 408.472656 C 292.648438 386.167969 277.03125 371.039062 266.460938 371.039062 C 265.683594 371.039062 265.003906 370.457031 265.003906 369.582031 C 265.003906 368.710938 265.585938 368.128906 266.460938 368.128906 C 276.9375 368.128906 292.648438 353.195312 305.550781 330.695312 C 318.644531 308.003906 323.785156 286.863281 318.449219 277.652344 C 318.257812 277.457031 318.257812 277.261719 318.257812 276.875 C 318.257812 276.292969 318.449219 276.003906 319.03125 275.613281 C 319.808594 275.226562 320.488281 275.421875 320.875 276.195312 C 326.210938 285.410156 347.066406 291.519531 372.964844 291.519531 C 398.859375 291.519531 419.714844 285.410156 425.050781 276.195312 C 425.4375 275.421875 426.3125 275.324219 426.894531 275.613281 C 427.28125 275.808594 427.667969 276.390625 427.667969 276.875 C 427.667969 277.070312 427.667969 277.457031 427.476562 277.652344 C 422.140625 286.863281 427.476562 308.585938 440.765625 331.472656 C 453.664062 353.777344 469.28125 368.710938 479.660156 368.710938 C 480.4375 368.710938 481.113281 369.292969 481.113281 370.164062 C 481.113281 371.039062 480.53125 371.621094 479.660156 371.621094 C 469.183594 371.621094 453.277344 386.75 440.472656 409.054688 C 427.667969 431.355469 422.429688 452.304688 427.765625 461.515625 C 427.960938 461.710938 427.960938 461.90625 427.960938 462.292969 C 427.960938 462.875 427.765625 463.164062 427.183594 463.554688 C 426.894531 463.554688 426.503906 463.746094 426.3125 463.746094 Z M 373.058594 444.933594 C 390.519531 444.933594 412.441406 448.039062 423.011719 456.570312 C 420.976562 443.285156 429.316406 422.824219 437.949219 407.984375 C 446.777344 392.859375 460.453125 375.402344 472.96875 370.554688 C 460.648438 365.609375 446.972656 348.441406 438.339844 333.316406 C 429.316406 317.796875 420.878906 296.851562 423.011719 283.179688 C 412.539062 291.617188 390.617188 294.816406 373.058594 294.816406 C 355.503906 294.816406 333.679688 291.710938 323.105469 283.179688 C 325.144531 296.65625 316.800781 317.21875 307.976562 332.539062 C 299.148438 347.472656 285.664062 364.734375 273.152344 369.777344 C 285.664062 374.722656 299.34375 392.082031 307.976562 407.210938 C 316.800781 422.53125 325.144531 443.089844 323.105469 456.570312 C 333.679688 448.132812 355.601562 444.933594 373.058594 444.933594 Z M 373.058594 444.933594 " fill-opacity="1" fill-rule="nonzero"/><path fill="#f4f4f4" d="M 412.441406 441.054688 C 411.859375 441.054688 411.566406 440.859375 411.179688 440.277344 C 407.300781 433.492188 391.972656 429.03125 372.867188 429.03125 C 353.757812 429.03125 338.433594 433.585938 334.550781 440.277344 C 334.164062 441.054688 333.292969 441.152344 332.710938 440.859375 C 332.320312 440.667969 331.933594 440.085938 331.933594 439.601562 C 331.933594 439.40625 331.933594 439.019531 332.128906 438.824219 C 336.007812 432.035156 331.933594 415.257812 322.039062 398.289062 C 312.632812 382.09375 301.378906 371.230469 293.8125 371.230469 C 293.039062 371.230469 292.359375 370.652344 292.359375 369.777344 C 292.359375 368.90625 292.941406 368.324219 293.8125 368.324219 C 301.378906 368.324219 313.019531 357.269531 322.332031 341.074219 C 332.128906 324.296875 336.007812 308.683594 332.128906 301.894531 C 332.128906 301.699219 332.128906 301.507812 332.128906 301.3125 C 332.128906 300.730469 332.320312 300.441406 332.902344 300.050781 C 333.679688 299.664062 334.359375 299.859375 334.746094 300.632812 C 338.625 307.421875 353.953125 311.882812 373.058594 311.882812 C 392.167969 311.882812 407.492188 307.324219 411.375 300.632812 C 411.761719 299.859375 412.636719 299.761719 413.214844 300.050781 C 413.605469 300.246094 413.992188 300.828125 413.992188 301.3125 C 413.992188 301.507812 413.992188 301.894531 413.796875 302.089844 C 409.917969 308.878906 413.796875 324.878906 423.789062 341.847656 C 433.199219 358.042969 444.644531 369.097656 452.113281 369.097656 C 452.886719 369.097656 453.566406 369.679688 453.566406 370.554688 C 453.566406 371.425781 452.984375 372.007812 452.113281 372.007812 C 444.546875 372.007812 433.296875 382.871094 423.789062 399.257812 C 413.992188 416.035156 410.015625 432.617188 413.796875 439.40625 C 413.992188 439.601562 413.992188 439.792969 413.992188 440.183594 C 413.992188 440.765625 413.796875 441.054688 413.214844 441.441406 C 413.023438 440.957031 412.636719 441.054688 412.441406 441.054688 Z M 373.058594 426.410156 C 385.765625 426.410156 401.382812 428.640625 409.726562 434.65625 C 408.65625 424.375 414.867188 409.054688 421.558594 397.609375 C 427.863281 386.75 437.367188 374.625 446.390625 370.554688 C 437.367188 366.480469 427.574219 354.164062 421.363281 343.304688 C 414.769531 332.054688 408.65625 316.925781 409.726562 306.648438 C 401.578125 312.5625 385.765625 314.890625 373.058594 314.890625 C 360.351562 314.890625 344.738281 312.660156 336.394531 306.648438 C 337.460938 316.730469 331.449219 331.667969 324.949219 342.914062 C 318.644531 353.777344 308.945312 366.09375 299.730469 370.164062 C 308.558594 374.238281 317.964844 385.972656 324.367188 397.222656 C 330.964844 408.859375 337.460938 424.277344 336.296875 434.75 C 344.542969 428.546875 360.351562 426.410156 373.058594 426.410156 Z M 373.058594 426.410156 " fill-opacity="1" fill-rule="nonzero"/><path fill="#f4f4f4" d="M 398.667969 417.003906 C 398.085938 417.003906 397.792969 416.8125 397.40625 416.230469 C 394.980469 411.960938 384.894531 409.246094 372.867188 409.246094 C 360.742188 409.246094 350.75 412.15625 348.324219 416.230469 C 347.9375 417.003906 347.066406 417.101562 346.484375 416.8125 C 346.09375 416.617188 345.707031 416.035156 345.707031 415.550781 C 345.707031 415.355469 345.707031 414.96875 345.902344 414.773438 C 348.324219 410.3125 345.707031 399.644531 339.304688 388.589844 C 333.195312 378.3125 326.015625 371.230469 321.457031 371.230469 C 320.683594 371.230469 320.003906 370.652344 320.003906 369.777344 C 320.003906 368.90625 320.585938 368.324219 321.457031 368.324219 C 326.210938 368.324219 333.777344 361.148438 339.691406 350.671875 C 345.804688 340.199219 348.324219 329.824219 345.996094 325.652344 C 345.804688 325.460938 345.804688 325.265625 345.804688 324.878906 C 345.804688 324.296875 345.996094 324.003906 346.578125 323.617188 C 347.355469 323.230469 348.035156 323.421875 348.421875 324.199219 C 350.847656 328.464844 360.933594 331.179688 372.964844 331.179688 C 385.085938 331.179688 395.078125 328.273438 397.503906 324.199219 C 397.890625 323.421875 398.765625 323.328125 399.347656 323.617188 C 399.734375 323.8125 400.121094 324.394531 400.121094 324.878906 C 400.121094 325.070312 400.121094 325.460938 399.929688 325.652344 C 397.503906 329.921875 400.121094 340.394531 406.328125 351.253906 C 412.441406 361.730469 419.617188 368.710938 424.371094 368.710938 C 425.148438 368.710938 425.828125 369.292969 425.828125 370.164062 C 425.828125 371.039062 425.246094 371.621094 424.371094 371.621094 C 419.617188 371.621094 412.441406 378.601562 406.328125 389.074219 C 400.023438 399.9375 397.503906 410.410156 399.929688 414.675781 C 400.121094 414.871094 400.121094 415.066406 400.121094 415.453125 C 400.121094 416.035156 399.929688 416.324219 399.347656 416.714844 C 399.25 417.003906 399.054688 417.003906 398.667969 417.003906 Z M 372.867188 406.433594 C 380.820312 406.433594 390.519531 407.695312 396.242188 411.378906 C 396.046875 404.59375 399.929688 395.183594 404.003906 388.007812 C 408.074219 381.027344 413.992188 373.460938 419.617188 370.554688 C 413.894531 367.644531 408.171875 360.082031 404.003906 353.097656 C 399.929688 345.921875 396.046875 336.515625 396.242188 329.726562 C 390.714844 333.21875 380.917969 334.671875 372.867188 334.671875 C 364.914062 334.671875 355.210938 333.410156 349.488281 329.726562 C 349.683594 336.320312 345.996094 345.535156 341.925781 352.515625 C 337.851562 359.304688 331.933594 367.0625 326.113281 370.164062 C 331.640625 373.074219 337.558594 380.445312 341.632812 387.523438 C 345.902344 394.894531 349.878906 404.496094 349.585938 411.476562 C 355.210938 407.792969 364.914062 406.433594 372.867188 406.433594 Z M 372.867188 406.433594 " fill-opacity="1" fill-rule="nonzero"/><path fill="#f4f4f4" d="M 384.894531 392.859375 C 384.3125 392.859375 384.019531 392.664062 383.632812 392.082031 C 382.757812 390.433594 378.105469 389.171875 372.769531 389.171875 C 367.433594 389.171875 363.167969 390.433594 362.097656 392.277344 C 361.710938 393.050781 360.839844 393.148438 360.257812 392.859375 C 359.867188 392.664062 359.480469 392.082031 359.480469 391.597656 C 359.480469 391.402344 359.480469 391.015625 359.675781 390.820312 C 360.742188 388.980469 359.285156 384.03125 356.570312 378.992188 C 353.660156 374.042969 350.460938 371.230469 349.003906 371.230469 C 348.230469 371.230469 347.550781 370.652344 347.550781 369.777344 C 347.550781 368.90625 348.132812 368.324219 349.003906 368.324219 C 351.042969 368.324219 354.339844 365.027344 356.957031 360.371094 C 359.578125 355.8125 360.839844 351.351562 359.867188 349.703125 C 359.675781 349.511719 359.675781 349.316406 359.675781 348.929688 C 359.675781 348.347656 359.867188 348.054688 360.449219 347.667969 C 361.226562 347.28125 361.90625 347.472656 362.292969 348.25 C 363.167969 349.898438 367.820312 351.160156 373.15625 351.160156 C 378.492188 351.160156 382.953125 349.898438 384.019531 348.25 C 384.410156 347.472656 385.28125 347.375 385.863281 347.667969 C 386.25 347.859375 386.640625 348.441406 386.640625 348.929688 C 386.640625 349.121094 386.640625 349.511719 386.445312 349.703125 C 385.574219 351.351562 386.832031 356.296875 389.355469 360.953125 C 392.265625 366.09375 395.464844 368.710938 397.117188 368.710938 C 397.890625 368.710938 398.570312 369.292969 398.570312 370.164062 C 398.570312 371.039062 397.988281 371.621094 397.117188 371.621094 C 395.464844 371.621094 392.363281 374.335938 389.355469 379.378906 C 386.640625 383.9375 385.28125 388.785156 386.445312 390.628906 C 386.640625 390.820312 386.640625 391.015625 386.640625 391.402344 C 386.640625 391.984375 386.445312 392.277344 385.863281 392.664062 C 385.378906 392.859375 385.183594 392.859375 384.894531 392.859375 Z M 352.59375 370.164062 C 355.503906 372.394531 358.121094 376.273438 358.898438 377.921875 C 360.742188 381.027344 362.390625 385.101562 362.777344 388.398438 C 365.496094 387.136719 369.375 386.554688 372.867188 386.554688 C 376.359375 386.554688 380.238281 387.136719 382.953125 388.398438 C 383.148438 385.292969 384.796875 381.414062 386.640625 378.3125 C 387.511719 376.855469 390.132812 372.589844 393.042969 370.554688 C 389.9375 368.324219 387.511719 364.25 386.640625 362.796875 C 384.796875 359.691406 383.148438 355.8125 382.953125 352.710938 C 380.238281 353.96875 376.359375 354.550781 372.867188 354.550781 C 369.375 354.550781 365.496094 353.96875 362.777344 352.710938 C 362.585938 355.621094 360.933594 359.304688 359.285156 362.3125 C 357.445312 365.21875 355.019531 368.324219 352.59375 370.164062 Z M 352.59375 370.164062 " fill-opacity="1" fill-rule="nonzero"/><g clip-path="url(#id1)"><path fill="#f4f4f4" d="M 373.058594 371.523438 C 372.476562 371.523438 372.1875 371.328125 371.800781 370.746094 L 298.664062 243.320312 C 298.273438 242.546875 298.46875 241.867188 299.246094 241.480469 C 300.019531 241.089844 300.699219 241.285156 301.089844 242.0625 L 374.222656 369.488281 C 374.613281 370.261719 374.417969 370.941406 373.640625 371.328125 C 373.640625 371.523438 373.253906 371.523438 373.058594 371.523438 Z M 373.058594 371.523438 " fill-opacity="1" fill-rule="nonzero"/></g><path fill="#f4f4f4" d="M 373.058594 372.203125 L 226.59375 371.425781 C 225.820312 371.425781 225.332031 370.652344 225.332031 369.972656 C 225.332031 369.195312 225.914062 368.515625 226.789062 368.515625 L 373.253906 368.90625 C 374.03125 368.90625 374.515625 369.777344 374.515625 370.554688 C 374.515625 371.328125 373.835938 372.203125 373.058594 372.203125 Z M 373.058594 372.203125 " fill-opacity="1" fill-rule="nonzero"/><g clip-path="url(#id2)"><path fill="#f4f4f4" d="M 294.007812 508.839844 C 293.8125 508.839844 293.425781 508.839844 293.230469 508.648438 C 292.457031 508.257812 292.359375 507.386719 292.648438 506.804688 L 371.800781 369.488281 C 372.1875 368.710938 373.058594 368.613281 373.640625 368.90625 C 374.417969 369.292969 374.515625 370.164062 374.222656 370.746094 L 295.171875 508.355469 C 294.976562 508.648438 294.394531 508.839844 294.007812 508.839844 Z M 294.007812 508.839844 " fill-opacity="1" fill-rule="nonzero"/></g><path fill="#f4f4f4" d="M 448.425781 502.246094 C 447.84375 502.246094 447.554688 502.050781 447.164062 501.472656 L 371.992188 370.941406 C 371.605469 370.164062 371.800781 369.488281 372.574219 369.097656 C 373.351562 368.710938 374.03125 368.90625 374.417969 369.679688 L 449.6875 500.210938 C 450.074219 500.984375 449.882812 501.664062 449.105469 502.050781 C 448.816406 502.050781 448.621094 502.246094 448.425781 502.246094 Z M 448.425781 502.246094 " fill-opacity="1" fill-rule="nonzero"/><path fill="#f4f4f4" d="M 523.210938 372.203125 L 373.058594 371.621094 C 372.285156 371.621094 371.800781 370.746094 371.800781 369.972656 C 371.800781 369.195312 372.382812 368.324219 373.253906 368.324219 L 523.40625 368.90625 C 524.179688 368.90625 524.667969 369.777344 524.667969 370.554688 C 524.667969 371.328125 524.085938 372.203125 523.210938 372.203125 Z M 523.210938 372.203125 " fill-opacity="1" fill-rule="nonzero"/><g clip-path="url(#id3)"><path fill="#f4f4f4" d="M 373.058594 371.523438 C 372.867188 371.523438 372.476562 371.523438 372.285156 371.328125 C 371.507812 370.941406 371.410156 370.070312 371.703125 369.488281 L 444.546875 242.0625 C 444.933594 241.285156 445.808594 241.1875 446.390625 241.480469 C 447.164062 241.867188 447.261719 242.738281 446.972656 243.320312 L 374.417969 370.746094 C 374.03125 371.328125 373.640625 371.523438 373.058594 371.523438 Z M 373.058594 371.523438 " fill-opacity="1" fill-rule="nonzero"/></g><path fill="#3776b8" d="M 374.59375 437.273438 L 389.507812 437.273438 L 389.507812 469.816406 L 374.59375 469.816406 Z M 374.59375 437.273438 " fill-opacity="1" fill-rule="nonzero"/><path fill="#3776b8" d="M 374.59375 388.460938 L 389.507812 388.460938 L 389.507812 421 L 374.59375 421 Z M 374.59375 388.460938 " fill-opacity="1" fill-rule="nonzero"/><path fill="#3776b8" d="M 389.523438 503.8125 L 389.523438 486.074219 L 374.609375 486.074219 L 374.609375 504.164062 C 377.625 503.8125 380.722656 503.621094 383.875 503.621094 C 385.765625 503.621094 387.660156 503.703125 389.523438 503.8125 Z M 389.523438 503.8125 " fill-opacity="1" fill-rule="nonzero"/><path fill="#3776b8" d="M 270.242188 440.277344 C 270.222656 426.433594 270.191406 413.066406 270.191406 413.066406 L 269.753906 413.066406 C 269.132812 405.808594 250.09375 399.988281 226.644531 399.992188 C 203.191406 400.003906 184.152344 405.832031 183.539062 413.089844 L 183.0625 413.089844 L 183.0625 413.449219 C 183.214844 415.261719 184.511719 416.988281 186.722656 418.558594 C 193.183594 423.445312 208.613281 426.890625 226.652344 426.886719 C 244.976562 426.882812 260.59375 423.316406 266.855469 418.292969 C 268.738281 416.890625 269.925781 415.371094 270.1875 413.777344 C 270.1875 415.96875 270.214844 422.789062 270.214844 429.171875 C 259.585938 435.195312 242.769531 437.609375 226.613281 437.632812 C 213.902344 437.632812 201.792969 436.042969 192.539062 433.144531 C 188.734375 431.964844 185.617188 430.625 183.070312 429.175781 L 183.074219 441.863281 L 183.074219 442.320312 C 183.652344 449.65625 202.949219 455.546875 226.613281 455.546875 C 226.636719 455.546875 226.636719 455.546875 226.667969 455.546875 C 250.414062 455.523438 269.75 449.605469 270.242188 442.238281 C 270.242188 444.472656 270.242188 448.597656 270.242188 453.023438 C 270.246094 448.980469 270.246094 444.617188 270.242188 440.277344 Z M 270.242188 440.277344 " fill-opacity="1" fill-rule="nonzero"/><path fill="#3776b8" d="M 270.269531 470.582031 C 270.269531 470.550781 270.246094 465.347656 270.242188 458.089844 C 270.242188 458.054688 270.242188 458.015625 270.242188 457.980469 C 267.695312 459.464844 264.546875 460.804688 260.738281 462.007812 C 251.480469 464.886719 239.375 466.472656 226.613281 466.5 C 213.90625 466.5 201.796875 464.910156 192.566406 462.007812 C 188.761719 460.832031 185.636719 459.488281 183.089844 458.039062 L 183.078125 442.863281 L 183.089844 470.609375 C 183.089844 478.113281 202.589844 484.191406 226.667969 484.167969 C 250.769531 484.167969 270.269531 478.085938 270.269531 470.582031 Z M 270.269531 470.582031 " fill-opacity="1" fill-rule="nonzero"/><path fill="#3776b8" d="M 190.085938 120.296875 L 120.1875 120.296875 C 118.070312 120.296875 116.347656 122.015625 116.347656 124.136719 L 116.347656 256.378906 C 116.347656 258.535156 118.097656 260.285156 120.253906 260.285156 L 220.402344 260.285156 C 222.558594 260.285156 224.304688 258.539062 224.304688 256.378906 L 224.304688 124.203125 C 224.304688 122.046875 222.558594 120.296875 220.402344 120.296875 Z M 190.085938 120.296875 " fill-opacity="1" fill-rule="nonzero"/><g clip-path="url(#id4)"><path fill="#3776b8" d="M 85.355469 221.9375 L 102.792969 221.9375 L 102.792969 120.296875 C 102.792969 112.8125 108.839844 106.738281 116.351562 106.738281 L 190.085938 106.738281 L 190.085938 85.207031 C 190.085938 83.414062 188.621094 81.980469 186.828125 81.980469 L 85.355469 81.980469 C 83.5625 81.980469 82.128906 83.417969 82.128906 85.207031 L 82.128906 218.707031 C 82.128906 220.496094 83.5625 221.9375 85.355469 221.9375 Z M 85.355469 221.9375 " fill-opacity="1" fill-rule="nonzero"/></g><g clip-path="url(#id5)"><path fill="#3776b8" d="M 81.964844 387.332031 L 81.964844 388.703125 C 82.328125 389.550781 82.953125 390.371094 83.796875 391.164062 C 89.136719 396.703125 105.609375 400.734375 125.132812 400.730469 C 144.527344 400.726562 160.9375 396.738281 166.375 391.25 C 167.238281 390.457031 167.878906 389.628906 168.257812 388.78125 C 168.257812 388.246094 168.257812 387.828125 168.257812 387.515625 C 168.261719 387.433594 168.296875 387.351562 168.296875 387.273438 C 168.296875 387.191406 168.257812 387.109375 168.253906 387.027344 C 168.253906 386.945312 168.253906 386.894531 168.253906 386.894531 L 168.234375 386.894531 C 167.582031 379.648438 148.554688 373.832031 125.125 373.839844 C 101.6875 373.84375 82.660156 379.667969 82.019531 386.921875 L 81.964844 386.921875 L 81.964844 387.261719 C 81.964844 387.273438 81.960938 387.285156 81.960938 387.292969 C 81.960938 387.304688 81.964844 387.316406 81.964844 387.332031 Z M 81.964844 387.332031 " fill-opacity="1" fill-rule="nonzero"/></g><g clip-path="url(#id6)"><path fill="#3776b8" d="M 125.136719 429.320312 C 147.007812 429.320312 165.125 424.316406 168.285156 417.78125 C 168.285156 417.351562 168.285156 416.921875 168.285156 416.496094 C 168.28125 411.714844 168.273438 407.195312 168.273438 403.183594 C 165.800781 404.546875 162.808594 405.832031 159.210938 406.945312 C 149.953125 409.824219 137.847656 411.410156 125.082031 411.410156 C 112.375 411.410156 100.296875 409.824219 91.035156 406.945312 C 87.429688 405.832031 84.457031 404.539062 81.964844 403.171875 L 81.964844 417.574219 C 84.8125 424.195312 103.011719 429.320312 125.109375 429.320312 Z M 125.136719 429.320312 " fill-opacity="1" fill-rule="nonzero"/></g><g clip-path="url(#id7)"><path fill="#3776b8" d="M 81.964844 446.246094 C 84.8125 452.871094 103.011719 458 125.109375 458 L 125.136719 458 C 147.050781 458 165.195312 452.972656 168.300781 446.421875 C 168.296875 441.804688 168.292969 436.914062 168.289062 431.996094 C 166.949219 432.644531 162.425781 434.792969 159.234375 435.789062 C 149.980469 438.691406 137.871094 440.28125 125.105469 440.28125 C 112.371094 440.28125 100.292969 438.691406 91.035156 435.816406 C 87.429688 434.699219 84.457031 433.410156 81.964844 432.046875 Z M 81.964844 446.246094 " fill-opacity="1" fill-rule="nonzero"/></g><g clip-path="url(#id8)"><path fill="#3776b8" d="M 168.308594 474.023438 C 168.308594 474.003906 168.304688 468.6875 168.304688 460.691406 C 157.65625 466.589844 141.074219 468.957031 125.105469 468.957031 C 112.371094 468.957031 100.292969 467.367188 91.035156 464.492188 C 87.429688 463.375 84.457031 462.085938 81.964844 460.722656 L 81.964844 474.050781 C 81.964844 481.484375 101.300781 487.503906 125.136719 487.503906 C 148.972656 487.476562 168.308594 481.457031 168.308594 474.023438 Z M 168.308594 474.023438 " fill-opacity="1" fill-rule="nonzero"/></g><path fill="#3776b8" d="M 293 260.277344 L 328.84375 260.277344 C 331.4375 260.277344 333.539062 258.175781 333.539062 255.578125 L 333.539062 151.726562 C 333.539062 148.792969 331.164062 146.414062 328.230469 146.414062 L 293.613281 146.414062 C 290.679688 146.414062 288.304688 148.792969 288.304688 151.726562 L 288.304688 255.578125 C 288.304688 258.175781 290.40625 260.277344 293 260.277344 Z M 293 260.277344 " fill-opacity="1" fill-rule="nonzero"/><path fill="#3776b8" d="M 364.136719 260.277344 L 399.984375 260.277344 C 402.578125 260.277344 404.679688 258.175781 404.679688 255.578125 L 404.679688 178.859375 C 404.679688 175.925781 402.300781 173.550781 399.367188 173.550781 L 364.753906 173.550781 C 361.820312 173.550781 359.441406 175.925781 359.441406 178.859375 L 359.441406 255.578125 C 359.441406 258.175781 361.542969 260.277344 364.136719 260.277344 Z M 364.136719 260.277344 " fill-opacity="1" fill-rule="nonzero"/><path fill="#3776b8" d="M 435.277344 260.277344 L 471.121094 260.277344 C 473.714844 260.277344 475.820312 258.175781 475.820312 255.578125 L 475.820312 207.078125 C 475.820312 204.144531 473.441406 201.765625 470.507812 201.765625 L 435.890625 201.765625 C 432.957031 201.765625 430.578125 204.144531 430.578125 207.078125 L 430.578125 255.578125 C 430.578125 258.175781 432.683594 260.277344 435.277344 260.277344 Z M 435.277344 260.277344 " fill-opacity="1" fill-rule="nonzero"/><g clip-path="url(#id9)"><path fill="#3776b8" d="M 475.820312 385.617188 L 667.710938 385.617188 L 667.710938 400.53125 L 475.820312 400.53125 Z M 475.820312 385.617188 " fill-opacity="1" fill-rule="nonzero"/></g><g clip-path="url(#id10)"><path fill="#3776b8" d="M 550.5 454.984375 L 667.710938 454.984375 L 667.710938 469.898438 L 550.5 469.898438 Z M 550.5 454.984375 " fill-opacity="1" fill-rule="nonzero"/></g><g clip-path="url(#id11)"><path fill="#3776b8" d="M 509.488281 420.296875 L 667.710938 420.296875 L 667.710938 435.210938 L 509.488281 435.210938 Z M 509.488281 420.296875 " fill-opacity="1" fill-rule="nonzero"/></g><g clip-path="url(#id12)"><path fill="#3776b8" d="M 511.476562 600.835938 C 507.082031 598.855469 502.878906 598.128906 498.894531 598.261719 C 495.203125 598.394531 491.84375 595.683594 490.785156 591.832031 C 485.195312 571.765625 468.054688 557.152344 447.746094 557.152344 C 446.066406 557.152344 444.414062 557.257812 442.785156 557.476562 C 438.902344 557.960938 435.351562 555.414062 433.886719 551.507812 C 426.457031 531.957031 409.644531 520.675781 389.523438 518.882812 C 387.652344 518.722656 385.753906 518.640625 383.828125 518.640625 C 380.6875 518.640625 377.589844 518.859375 374.609375 519.320312 C 355.980469 522.054688 340.628906 533.230469 333.6875 551.75 C 332.058594 556.144531 327.75 558.53125 323.4375 557.769531 C 321.128906 557.363281 318.773438 557.148438 316.359375 557.148438 C 296.046875 557.148438 278.9375 571.765625 273.347656 591.832031 C 272.292969 595.683594 268.929688 598.394531 265.210938 598.257812 C 261.253906 598.125 257.050781 598.828125 252.683594 600.835938 C 245.039062 604.304688 238.828125 610.707031 235.382812 618.542969 C 233.457031 622.828125 232.375 627.546875 232.320312 632.453125 C 232.320312 632.78125 232.320312 633.132812 232.34375 633.460938 C 232.5625 652.308594 246.691406 667.496094 264.101562 667.574219 L 501.328125 667.519531 C 518.117188 666.679688 531.539062 651.820312 531.8125 633.460938 L 531.8125 632.128906 C 531.730469 627.332031 530.644531 622.722656 528.746094 618.542969 C 525.304688 610.707031 519.09375 604.332031 511.476562 600.835938 Z M 511.476562 600.835938 " fill-opacity="1" fill-rule="nonzero"/></g><path fill="#3776b8" d="M 618.347656 618.542969 L 544.710938 618.542969 C 545.988281 622.824219 546.722656 627.296875 546.804688 631.875 C 546.804688 632.421875 546.824219 632.941406 546.804688 633.460938 L 625.804688 633.460938 C 629.925781 633.460938 633.261719 630.09375 633.261719 626.003906 L 633.261719 521.328125 L 618.347656 521.328125 Z M 618.347656 618.542969 " fill-opacity="1" fill-rule="nonzero"/><path fill="#3776b8" d="M 143.566406 521.328125 L 128.648438 521.328125 L 128.648438 626.003906 C 128.648438 630.09375 131.984375 633.460938 136.105469 633.460938 L 217.300781 633.460938 L 217.300781 632.367188 C 217.355469 627.621094 218.066406 622.960938 219.394531 618.542969 L 143.566406 618.542969 Z M 143.566406 521.328125 " fill-opacity="1" fill-rule="nonzero"/><path fill="#3776b8" d="M 600.570312 112.785156 L 600.570312 174.613281 L 654.15625 143.699219 C 642.007812 126.535156 622.695312 114.769531 600.570312 112.785156 Z M 600.570312 112.785156 " fill-opacity="1" fill-rule="nonzero"/><g clip-path="url(#id13)"><path fill="#3776b8" d="M 667.714844 186.355469 C 667.714844 175.375 665.328125 164.988281 661.015625 155.628906 L 600.566406 190.289062 L 600.566406 259.957031 C 638.238281 256.566406 667.714844 224.921875 667.714844 186.355469 Z M 667.714844 186.355469 " fill-opacity="1" fill-rule="nonzero"/></g><path fill="#3776b8" d="M 587.011719 259.957031 L 587.011719 112.785156 C 549.371094 116.175781 519.890625 147.824219 519.890625 186.355469 C 519.890625 224.921875 549.371094 256.566406 587.011719 259.957031 Z M 587.011719 259.957031 " fill-opacity="1" fill-rule="nonzero"/><path fill="#3776b8" d="M 633.261719 334.734375 L 633.261719 289.105469 L 618.34375 289.105469 L 618.34375 327.273438 L 143.554688 327.273438 L 143.554688 289.105469 L 128.636719 289.105469 L 128.636719 334.734375 C 128.636719 338.851562 131.976562 342.1875 136.097656 342.1875 L 374.59375 342.1875 L 374.59375 372.1875 L 389.507812 372.1875 L 389.507812 342.1875 L 625.800781 342.1875 C 629.921875 342.1875 633.261719 338.851562 633.261719 334.734375 Z M 633.261719 334.734375 " fill-opacity="1" fill-rule="nonzero"/></svg>