<svg xmlns="http://www.w3.org/2000/svg" xmlns:xlink="http://www.w3.org/1999/xlink" width="1000" zoomAndPan="magnify" viewBox="0 0 750 749.999995" height="1000" preserveAspectRatio="xMidYMid meet" version="1.0"><defs><clipPath id="id1"><path d="M 298 241.089844 L 375 241.089844 L 375 372 L 298 372 Z M 298 241.089844 " clip-rule="nonzero"/></clipPath><clipPath id="id2"><path d="M 292 368 L 375 368 L 375 508.839844 L 292 508.839844 Z M 292 368 " clip-rule="nonzero"/></clipPath><clipPath id="id3"><path d="M 371 241.089844 L 448 241.089844 L 448 372 L 371 372 Z M 371 241.089844 " clip-rule="nonzero"/></clipPath><clipPath id="id4"><path d="M 53.347656 217.53125 L 696.847656 217.53125 L 696.847656 532.242188 L 53.347656 532.242188 Z M 53.347656 217.53125 " clip-rule="nonzero"/></clipPath></defs><path fill="#f4f4f4" d="M 440.085938 487.699219 C 439.503906 487.699219 439.210938 487.507812 438.824219 486.925781 C 431.0625 473.445312 400.121094 467.625 373.058594 467.625 C 345.804688 467.625 315.054688 473.734375 307.296875 486.925781 C 306.90625 487.699219 306.035156 487.796875 305.453125 487.507812 C 305.066406 487.3125 304.675781 486.730469 304.675781 486.246094 C 304.675781 486.050781 304.675781 485.664062 304.871094 485.46875 C 312.632812 471.988281 302.253906 441.832031 288.480469 417.878906 C 272.085938 390.046875 252.203125 371.136719 238.914062 371.136719 C 238.136719 371.136719 237.457031 370.554688 237.457031 369.679688 C 237.457031 368.808594 238.234375 368.421875 238.914062 368.421875 C 252.203125 368.421875 272.085938 349.414062 288.285156 321.484375 C 302.058594 297.726562 312.4375 267.664062 304.675781 254.085938 C 304.484375 253.890625 304.484375 253.699219 304.484375 253.308594 C 304.484375 252.726562 304.675781 252.4375 305.257812 252.050781 C 306.035156 251.660156 306.714844 251.855469 307.101562 252.632812 C 314.863281 266.109375 345.804688 271.929688 372.867188 271.929688 C 400.121094 271.929688 430.871094 265.820312 438.628906 252.632812 C 439.019531 251.855469 439.890625 251.757812 440.472656 252.050781 C 440.859375 252.242188 441.25 252.824219 441.25 253.308594 C 441.25 253.503906 441.25 253.890625 441.054688 254.085938 C 433.296875 267.566406 443.769531 297.917969 457.640625 321.871094 C 474.035156 350.1875 493.917969 369.195312 507.207031 369.195312 C 507.984375 369.195312 508.660156 369.777344 508.660156 370.652344 C 508.660156 371.523438 508.078125 372.105469 507.207031 372.105469 C 491.6875 372.105469 470.929688 396.058594 457.058594 419.816406 C 440.859375 447.84375 434.363281 474.511719 441.054688 485.953125 C 441.25 486.148438 441.25 486.34375 441.25 486.730469 C 441.25 487.3125 441.054688 487.601562 440.472656 487.992188 C 440.472656 487.699219 440.277344 487.699219 440.085938 487.699219 Z M 246.285156 369.875 C 262.09375 375.597656 279.457031 397.707031 290.710938 416.8125 C 307.878906 446.292969 311.660156 467.820312 309.527344 480.136719 C 322.425781 469.082031 350.460938 464.8125 373.058594 464.8125 C 395.5625 464.8125 423.5 468.886719 436.398438 479.941406 C 433.488281 463.359375 443.769531 437.371094 455.023438 418.070312 C 471.996094 388.589844 488.777344 374.625 500.320312 370.554688 C 484.507812 365.027344 466.757812 342.527344 455.605469 323.230469 C 438.4375 293.554688 434.460938 272.027344 436.59375 259.710938 C 423.691406 270.765625 395.660156 275.03125 373.058594 275.03125 C 350.558594 274.839844 322.621094 270.765625 309.722656 259.710938 C 312.824219 276.488281 302.15625 303.15625 290.710938 322.648438 C 279.652344 342.042969 262.191406 364.152344 246.285156 369.875 Z M 246.285156 369.875 " fill-opacity="1" fill-rule="nonzero"/><path fill="#f4f4f4" d="M 426.3125 463.746094 C 425.730469 463.746094 425.4375 463.554688 425.050781 462.972656 C 419.714844 453.757812 398.859375 447.648438 372.964844 447.648438 C 347.066406 447.648438 326.210938 453.757812 320.875 462.972656 C 320.488281 463.746094 319.613281 463.84375 319.03125 463.554688 C 318.644531 463.359375 318.257812 462.777344 318.257812 462.292969 C 318.257812 462.097656 318.257812 461.710938 318.449219 461.515625 C 323.785156 452.304688 318.449219 430.96875 305.550781 408.472656 C 292.648438 386.167969 277.03125 371.039062 266.460938 371.039062 C 265.683594 371.039062 265.003906 370.457031 265.003906 369.582031 C 265.003906 368.710938 265.585938 368.128906 266.460938 368.128906 C 276.9375 368.128906 292.648438 353.195312 305.550781 330.695312 C 318.644531 308.003906 323.785156 286.863281 318.449219 277.652344 C 318.257812 277.457031 318.257812 277.261719 318.257812 276.875 C 318.257812 276.292969 318.449219 276.003906 319.03125 275.613281 C 319.808594 275.226562 320.488281 275.421875 320.875 276.195312 C 326.210938 285.410156 347.066406 291.519531 372.964844 291.519531 C 398.859375 291.519531 419.714844 285.410156 425.050781 276.195312 C 425.4375 275.421875 426.3125 275.324219 426.894531 275.613281 C 427.28125 275.808594 427.667969 276.390625 427.667969 276.875 C 427.667969 277.070312 427.667969 277.457031 427.476562 277.652344 C 422.140625 286.863281 427.476562 308.585938 440.765625 331.472656 C 453.664062 353.777344 469.28125 368.710938 479.660156 368.710938 C 480.4375 368.710938 481.113281 369.292969 481.113281 370.164062 C 481.113281 371.039062 480.53125 371.621094 479.660156 371.621094 C 469.183594 371.621094 453.277344 386.75 440.472656 409.054688 C 427.667969 431.355469 422.429688 452.304688 427.765625 461.515625 C 427.960938 461.710938 427.960938 461.90625 427.960938 462.292969 C 427.960938 462.875 427.765625 463.164062 427.183594 463.554688 C 426.894531 463.554688 426.503906 463.746094 426.3125 463.746094 Z M 373.058594 444.933594 C 390.519531 444.933594 412.441406 448.039062 423.011719 456.570312 C 420.976562 443.285156 429.316406 422.824219 437.949219 407.984375 C 446.777344 392.859375 460.453125 375.402344 472.96875 370.554688 C 460.648438 365.609375 446.972656 348.441406 438.339844 333.316406 C 429.316406 317.796875 420.878906 296.851562 423.011719 283.179688 C 412.539062 291.617188 390.617188 294.816406 373.058594 294.816406 C 355.503906 294.816406 333.679688 291.710938 323.105469 283.179688 C 325.144531 296.65625 316.800781 317.21875 307.976562 332.539062 C 299.148438 347.472656 285.664062 364.734375 273.152344 369.777344 C 285.664062 374.722656 299.34375 392.082031 307.976562 407.210938 C 316.800781 422.53125 325.144531 443.089844 323.105469 456.570312 C 333.679688 448.132812 355.601562 444.933594 373.058594 444.933594 Z M 373.058594 444.933594 " fill-opacity="1" fill-rule="nonzero"/><path fill="#f4f4f4" d="M 412.441406 441.054688 C 411.859375 441.054688 411.566406 440.859375 411.179688 440.277344 C 407.300781 433.492188 391.972656 429.03125 372.867188 429.03125 C 353.757812 429.03125 338.433594 433.585938 334.550781 440.277344 C 334.164062 441.054688 333.292969 441.152344 332.710938 440.859375 C 332.320312 440.667969 331.933594 440.085938 331.933594 439.601562 C 331.933594 439.40625 331.933594 439.019531 332.128906 438.824219 C 336.007812 432.035156 331.933594 415.257812 322.039062 398.289062 C 312.632812 382.09375 301.378906 371.230469 293.8125 371.230469 C 293.039062 371.230469 292.359375 370.652344 292.359375 369.777344 C 292.359375 368.90625 292.941406 368.324219 293.8125 368.324219 C 301.378906 368.324219 313.019531 357.269531 322.332031 341.074219 C 332.128906 324.296875 336.007812 308.683594 332.128906 301.894531 C 332.128906 301.699219 332.128906 301.507812 332.128906 301.3125 C 332.128906 300.730469 332.320312 300.441406 332.902344 300.050781 C 333.679688 299.664062 334.359375 299.859375 334.746094 300.632812 C 338.625 307.421875 353.953125 311.882812 373.058594 311.882812 C 392.167969 311.882812 407.492188 307.324219 411.375 300.632812 C 411.761719 299.859375 412.636719 299.761719 413.214844 300.050781 C 413.605469 300.246094 413.992188 300.828125 413.992188 301.3125 C 413.992188 301.507812 413.992188 301.894531 413.796875 302.089844 C 409.917969 308.878906 413.796875 324.878906 423.789062 341.847656 C 433.199219 358.042969 444.644531 369.097656 452.113281 369.097656 C 452.886719 369.097656 453.566406 369.679688 453.566406 370.554688 C 453.566406 371.425781 452.984375 372.007812 452.113281 372.007812 C 444.546875 372.007812 433.296875 382.871094 423.789062 399.257812 C 413.992188 416.035156 410.015625 432.617188 413.796875 439.40625 C 413.992188 439.601562 413.992188 439.792969 413.992188 440.183594 C 413.992188 440.765625 413.796875 441.054688 413.214844 441.441406 C 413.023438 440.957031 412.636719 441.054688 412.441406 441.054688 Z M 373.058594 426.410156 C 385.765625 426.410156 401.382812 428.640625 409.726562 434.65625 C 408.65625 424.375 414.867188 409.054688 421.558594 397.609375 C 427.863281 386.75 437.367188 374.625 446.390625 370.554688 C 437.367188 366.480469 427.574219 354.164062 421.363281 343.304688 C 414.769531 332.054688 408.65625 316.925781 409.726562 306.648438 C 401.578125 312.5625 385.765625 314.890625 373.058594 314.890625 C 360.351562 314.890625 344.738281 312.660156 336.394531 306.648438 C 337.460938 316.730469 331.449219 331.667969 324.949219 342.914062 C 318.644531 353.777344 308.945312 366.09375 299.730469 370.164062 C 308.558594 374.238281 317.964844 385.972656 324.367188 397.222656 C 330.964844 408.859375 337.460938 424.277344 336.296875 434.75 C 344.542969 428.546875 360.351562 426.410156 373.058594 426.410156 Z M 373.058594 426.410156 " fill-opacity="1" fill-rule="nonzero"/><path fill="#f4f4f4" d="M 398.667969 417.003906 C 398.085938 417.003906 397.792969 416.8125 397.40625 416.230469 C 394.980469 411.960938 384.894531 409.246094 372.867188 409.246094 C 360.742188 409.246094 350.75 412.15625 348.324219 416.230469 C 347.9375 417.003906 347.066406 417.101562 346.484375 416.8125 C 346.09375 416.617188 345.707031 416.035156 345.707031 415.550781 C 345.707031 415.355469 345.707031 414.96875 345.902344 414.773438 C 348.324219 410.3125 345.707031 399.644531 339.304688 388.589844 C 333.195312 378.3125 326.015625 371.230469 321.457031 371.230469 C 320.683594 371.230469 320.003906 370.652344 320.003906 369.777344 C 320.003906 368.90625 320.585938 368.324219 321.457031 368.324219 C 326.210938 368.324219 333.777344 361.148438 339.691406 350.671875 C 345.804688 340.199219 348.324219 329.824219 345.996094 325.652344 C 345.804688 325.460938 345.804688 325.265625 345.804688 324.878906 C 345.804688 324.296875 345.996094 324.003906 346.578125 323.617188 C 347.355469 323.230469 348.035156 323.421875 348.421875 324.199219 C 350.847656 328.464844 360.933594 331.179688 372.964844 331.179688 C 385.085938 331.179688 395.078125 328.273438 397.503906 324.199219 C 397.890625 323.421875 398.765625 323.328125 399.347656 323.617188 C 399.734375 323.8125 400.121094 324.394531 400.121094 324.878906 C 400.121094 325.070312 400.121094 325.460938 399.929688 325.652344 C 397.503906 329.921875 400.121094 340.394531 406.328125 351.253906 C 412.441406 361.730469 419.617188 368.710938 424.371094 368.710938 C 425.148438 368.710938 425.828125 369.292969 425.828125 370.164062 C 425.828125 371.039062 425.246094 371.621094 424.371094 371.621094 C 419.617188 371.621094 412.441406 378.601562 406.328125 389.074219 C 400.023438 399.9375 397.503906 410.410156 399.929688 414.675781 C 400.121094 414.871094 400.121094 415.066406 400.121094 415.453125 C 400.121094 416.035156 399.929688 416.324219 399.347656 416.714844 C 399.25 417.003906 399.054688 417.003906 398.667969 417.003906 Z M 372.867188 406.433594 C 380.820312 406.433594 390.519531 407.695312 396.242188 411.378906 C 396.046875 404.59375 399.929688 395.183594 404.003906 388.007812 C 408.074219 381.027344 413.992188 373.460938 419.617188 370.554688 C 413.894531 367.644531 408.171875 360.082031 404.003906 353.097656 C 399.929688 345.921875 396.046875 336.515625 396.242188 329.726562 C 390.714844 333.21875 380.917969 334.671875 372.867188 334.671875 C 364.914062 334.671875 355.210938 333.410156 349.488281 329.726562 C 349.683594 336.320312 345.996094 345.535156 341.925781 352.515625 C 337.851562 359.304688 331.933594 367.0625 326.113281 370.164062 C 331.640625 373.074219 337.558594 380.445312 341.632812 387.523438 C 345.902344 394.894531 349.878906 404.496094 349.585938 411.476562 C 355.210938 407.792969 364.914062 406.433594 372.867188 406.433594 Z M 372.867188 406.433594 " fill-opacity="1" fill-rule="nonzero"/><path fill="#f4f4f4" d="M 384.894531 392.859375 C 384.3125 392.859375 384.019531 392.664062 383.632812 392.082031 C 382.757812 390.433594 378.105469 389.171875 372.769531 389.171875 C 367.433594 389.171875 363.167969 390.433594 362.097656 392.277344 C 361.710938 393.050781 360.839844 393.148438 360.257812 392.859375 C 359.867188 392.664062 359.480469 392.082031 359.480469 391.597656 C 359.480469 391.402344 359.480469 391.015625 359.675781 390.820312 C 360.742188 388.980469 359.285156 384.03125 356.570312 378.992188 C 353.660156 374.042969 350.460938 371.230469 349.003906 371.230469 C 348.230469 371.230469 347.550781 370.652344 347.550781 369.777344 C 347.550781 368.90625 348.132812 368.324219 349.003906 368.324219 C 351.042969 368.324219 354.339844 365.027344 356.957031 360.371094 C 359.578125 355.8125 360.839844 351.351562 359.867188 349.703125 C 359.675781 349.511719 359.675781 349.316406 359.675781 348.929688 C 359.675781 348.347656 359.867188 348.054688 360.449219 347.667969 C 361.226562 347.28125 361.90625 347.472656 362.292969 348.25 C 363.167969 349.898438 367.820312 351.160156 373.15625 351.160156 C 378.492188 351.160156 382.953125 349.898438 384.019531 348.25 C 384.410156 347.472656 385.28125 347.375 385.863281 347.667969 C 386.25 347.859375 386.640625 348.441406 386.640625 348.929688 C 386.640625 349.121094 386.640625 349.511719 386.445312 349.703125 C 385.574219 351.351562 386.832031 356.296875 389.355469 360.953125 C 392.265625 366.09375 395.464844 368.710938 397.117188 368.710938 C 397.890625 368.710938 398.570312 369.292969 398.570312 370.164062 C 398.570312 371.039062 397.988281 371.621094 397.117188 371.621094 C 395.464844 371.621094 392.363281 374.335938 389.355469 379.378906 C 386.640625 383.9375 385.28125 388.785156 386.445312 390.628906 C 386.640625 390.820312 386.640625 391.015625 386.640625 391.402344 C 386.640625 391.984375 386.445312 392.277344 385.863281 392.664062 C 385.378906 392.859375 385.183594 392.859375 384.894531 392.859375 Z M 352.59375 370.164062 C 355.503906 372.394531 358.121094 376.273438 358.898438 377.921875 C 360.742188 381.027344 362.390625 385.101562 362.777344 388.398438 C 365.496094 387.136719 369.375 386.554688 372.867188 386.554688 C 376.359375 386.554688 380.238281 387.136719 382.953125 388.398438 C 383.148438 385.292969 384.796875 381.414062 386.640625 378.3125 C 387.511719 376.855469 390.132812 372.589844 393.042969 370.554688 C 389.9375 368.324219 387.511719 364.25 386.640625 362.796875 C 384.796875 359.691406 383.148438 355.8125 382.953125 352.710938 C 380.238281 353.96875 376.359375 354.550781 372.867188 354.550781 C 369.375 354.550781 365.496094 353.96875 362.777344 352.710938 C 362.585938 355.621094 360.933594 359.304688 359.285156 362.3125 C 357.445312 365.21875 355.019531 368.324219 352.59375 370.164062 Z M 352.59375 370.164062 " fill-opacity="1" fill-rule="nonzero"/><g clip-path="url(#id1)"><path fill="#f4f4f4" d="M 373.058594 371.523438 C 372.476562 371.523438 372.1875 371.328125 371.800781 370.746094 L 298.664062 243.320312 C 298.273438 242.546875 298.46875 241.867188 299.246094 241.480469 C 300.019531 241.089844 300.699219 241.285156 301.089844 242.0625 L 374.222656 369.488281 C 374.613281 370.261719 374.417969 370.941406 373.640625 371.328125 C 373.640625 371.523438 373.253906 371.523438 373.058594 371.523438 Z M 373.058594 371.523438 " fill-opacity="1" fill-rule="nonzero"/></g><path fill="#f4f4f4" d="M 373.058594 372.203125 L 226.59375 371.425781 C 225.820312 371.425781 225.332031 370.652344 225.332031 369.972656 C 225.332031 369.195312 225.914062 368.515625 226.789062 368.515625 L 373.253906 368.90625 C 374.03125 368.90625 374.515625 369.777344 374.515625 370.554688 C 374.515625 371.328125 373.835938 372.203125 373.058594 372.203125 Z M 373.058594 372.203125 " fill-opacity="1" fill-rule="nonzero"/><g clip-path="url(#id2)"><path fill="#f4f4f4" d="M 294.007812 508.839844 C 293.8125 508.839844 293.425781 508.839844 293.230469 508.648438 C 292.457031 508.257812 292.359375 507.386719 292.648438 506.804688 L 371.800781 369.488281 C 372.1875 368.710938 373.058594 368.613281 373.640625 368.90625 C 374.417969 369.292969 374.515625 370.164062 374.222656 370.746094 L 295.171875 508.355469 C 294.976562 508.648438 294.394531 508.839844 294.007812 508.839844 Z M 294.007812 508.839844 " fill-opacity="1" fill-rule="nonzero"/></g><path fill="#f4f4f4" d="M 448.425781 502.246094 C 447.84375 502.246094 447.554688 502.050781 447.164062 501.472656 L 371.992188 370.941406 C 371.605469 370.164062 371.800781 369.488281 372.574219 369.097656 C 373.351562 368.710938 374.03125 368.90625 374.417969 369.679688 L 449.6875 500.210938 C 450.074219 500.984375 449.882812 501.664062 449.105469 502.050781 C 448.816406 502.050781 448.621094 502.246094 448.425781 502.246094 Z M 448.425781 502.246094 " fill-opacity="1" fill-rule="nonzero"/><path fill="#f4f4f4" d="M 523.210938 372.203125 L 373.058594 371.621094 C 372.285156 371.621094 371.800781 370.746094 371.800781 369.972656 C 371.800781 369.195312 372.382812 368.324219 373.253906 368.324219 L 523.40625 368.90625 C 524.179688 368.90625 524.667969 369.777344 524.667969 370.554688 C 524.667969 371.328125 524.085938 372.203125 523.210938 372.203125 Z M 523.210938 372.203125 " fill-opacity="1" fill-rule="nonzero"/><g clip-path="url(#id3)"><path fill="#f4f4f4" d="M 373.058594 371.523438 C 372.867188 371.523438 372.476562 371.523438 372.285156 371.328125 C 371.507812 370.941406 371.410156 370.070312 371.703125 369.488281 L 444.546875 242.0625 C 444.933594 241.285156 445.808594 241.1875 446.390625 241.480469 C 447.164062 241.867188 447.261719 242.738281 446.972656 243.320312 L 374.417969 370.746094 C 374.03125 371.328125 373.640625 371.523438 373.058594 371.523438 Z M 373.058594 371.523438 " fill-opacity="1" fill-rule="nonzero"/></g><path fill="#4195b2" d="M 235.066406 353.113281 C 247.113281 353.113281 256.917969 362.90625 256.917969 374.945312 C 256.917969 386.984375 247.113281 396.777344 235.066406 396.777344 C 223.015625 396.777344 213.210938 386.984375 213.210938 374.945312 C 213.210938 362.90625 223.015625 353.113281 235.066406 353.113281 Z M 235.066406 406.300781 C 252.371094 406.300781 266.449219 392.234375 266.449219 374.945312 C 266.449219 357.65625 252.371094 343.589844 235.066406 343.589844 C 217.757812 343.589844 203.679688 357.65625 203.679688 374.945312 C 203.679688 392.234375 217.757812 406.300781 235.066406 406.300781 " fill-opacity="1" fill-rule="nonzero"/><path fill="#4195b2" d="M 193.949219 367.4375 L 194.695312 364.542969 C 195.667969 360.777344 197.167969 357.160156 199.160156 353.792969 L 200.683594 351.214844 L 194.335938 341.703125 L 201.792969 334.257812 L 211.3125 340.597656 L 213.890625 339.074219 C 217.261719 337.085938 220.882812 335.582031 224.652344 334.617188 L 227.550781 333.871094 L 229.792969 322.667969 L 240.335938 322.667969 L 242.578125 333.871094 L 245.476562 334.617188 C 249.246094 335.582031 252.867188 337.085938 256.238281 339.074219 L 258.816406 340.597656 L 268.335938 334.257812 L 275.792969 341.703125 L 269.445312 351.214844 L 270.96875 353.792969 C 272.960938 357.160156 274.464844 360.777344 275.433594 364.539062 L 276.179688 367.4375 L 287.390625 369.679688 L 287.390625 380.210938 L 276.179688 382.453125 L 275.433594 385.347656 C 274.464844 389.113281 272.960938 392.730469 270.96875 396.097656 L 269.445312 398.675781 L 275.792969 408.1875 L 268.335938 415.632812 L 258.816406 409.292969 L 256.238281 410.8125 C 252.867188 412.804688 249.246094 414.308594 245.476562 415.273438 L 242.578125 416.019531 L 240.335938 427.222656 L 229.792969 427.222656 L 227.550781 416.019531 L 224.652344 415.273438 C 220.882812 414.308594 217.261719 412.804688 213.890625 410.8125 L 211.3125 409.292969 L 201.792969 415.632812 L 194.335938 408.1875 L 200.683594 398.675781 L 199.160156 396.097656 C 197.167969 392.730469 195.664062 389.113281 194.695312 385.347656 L 193.949219 382.453125 L 182.738281 380.210938 L 182.738281 369.679688 Z M 177.773438 360.957031 C 175.125 361.488281 173.203125 363.832031 173.203125 366.527344 L 173.203125 383.363281 C 173.203125 386.0625 175.125 388.40625 177.773438 388.933594 L 186.308594 390.636719 C 187.15625 393.265625 188.21875 395.824219 189.484375 398.285156 L 184.65625 405.523438 C 183.15625 407.769531 183.453125 410.785156 185.363281 412.691406 L 197.28125 424.597656 C 199.1875 426.503906 202.207031 426.804688 204.453125 425.308594 L 211.699219 420.480469 C 214.167969 421.746094 216.726562 422.808594 219.359375 423.65625 L 221.0625 432.179688 C 221.59375 434.824219 223.9375 436.746094 226.636719 436.746094 L 243.492188 436.746094 C 246.1875 436.746094 248.535156 434.828125 249.066406 432.179688 L 250.769531 423.65625 C 253.402344 422.808594 255.960938 421.746094 258.429688 420.480469 L 265.675781 425.308594 C 267.921875 426.800781 270.9375 426.503906 272.847656 424.597656 L 284.765625 412.691406 C 286.675781 410.78125 286.972656 407.769531 285.476562 405.527344 L 280.644531 398.285156 C 281.910156 395.824219 282.972656 393.265625 283.820312 390.636719 L 292.355469 388.933594 C 295.003906 388.402344 296.925781 386.0625 296.925781 383.363281 L 296.925781 366.527344 C 296.925781 363.832031 295.003906 361.488281 292.355469 360.957031 L 283.820312 359.253906 C 282.972656 356.625 281.910156 354.066406 280.644531 351.605469 L 285.476562 344.363281 C 286.972656 342.121094 286.675781 339.109375 284.765625 337.199219 L 272.847656 325.292969 C 270.9375 323.386719 267.921875 323.089844 265.675781 324.585938 L 258.429688 329.410156 C 255.960938 328.144531 253.402344 327.082031 250.769531 326.238281 L 249.066406 317.707031 C 248.535156 315.0625 246.1875 313.144531 243.492188 313.144531 L 226.636719 313.144531 C 223.9375 313.144531 221.59375 315.066406 221.0625 317.710938 L 219.359375 326.238281 C 216.726562 327.082031 214.167969 328.144531 211.699219 329.410156 L 204.453125 324.585938 C 202.207031 323.085938 199.191406 323.386719 197.28125 325.292969 L 185.363281 337.199219 C 183.453125 339.105469 183.15625 342.121094 184.652344 344.367188 L 189.484375 351.605469 C 188.21875 354.066406 187.15625 356.625 186.308594 359.253906 L 177.773438 360.957031 " fill-opacity="1" fill-rule="nonzero"/><path fill="#4195b2" d="M 556.042969 369.679688 L 556.042969 380.210938 L 544.828125 382.453125 L 544.082031 385.347656 C 543.113281 389.113281 541.613281 392.730469 539.621094 396.097656 L 538.09375 398.675781 L 544.445312 408.1875 L 536.988281 415.632812 L 527.46875 409.292969 L 524.890625 410.8125 C 521.519531 412.804688 517.894531 414.308594 514.128906 415.273438 L 511.230469 416.019531 L 508.988281 427.222656 L 498.445312 427.222656 L 496.199219 416.019531 L 493.300781 415.273438 C 489.53125 414.308594 485.914062 412.804688 482.542969 410.8125 L 479.960938 409.292969 L 470.441406 415.632812 L 462.988281 408.1875 L 469.335938 398.675781 L 467.8125 396.097656 C 465.816406 392.730469 464.316406 389.113281 463.347656 385.347656 L 462.601562 382.453125 L 451.386719 380.210938 L 451.386719 369.679688 L 462.601562 367.4375 L 463.347656 364.542969 C 464.316406 360.777344 465.816406 357.160156 467.8125 353.792969 L 469.335938 351.214844 L 462.988281 341.707031 L 470.441406 334.257812 L 479.960938 340.597656 L 482.542969 339.074219 C 485.914062 337.085938 489.53125 335.582031 493.300781 334.617188 L 496.199219 333.871094 L 498.445312 322.667969 L 508.988281 322.667969 L 511.230469 333.871094 L 514.128906 334.617188 C 517.894531 335.582031 521.519531 337.085938 524.890625 339.074219 L 527.46875 340.597656 L 536.988281 334.257812 L 544.445312 341.707031 L 538.09375 351.214844 L 539.621094 353.792969 C 541.613281 357.160156 543.113281 360.777344 544.082031 364.542969 L 544.828125 367.4375 Z M 553.414062 337.199219 L 541.5 325.292969 C 539.585938 323.386719 536.570312 323.089844 534.324219 324.585938 L 527.078125 329.410156 C 524.613281 328.144531 522.054688 327.082031 519.421875 326.238281 L 517.714844 317.714844 C 517.1875 315.066406 514.84375 313.144531 512.144531 313.144531 L 495.289062 313.144531 C 492.589844 313.144531 490.246094 315.066406 489.714844 317.710938 L 488.007812 326.238281 C 485.378906 327.082031 482.816406 328.144531 480.351562 329.410156 L 473.105469 324.585938 C 470.859375 323.085938 467.84375 323.386719 465.933594 325.292969 L 454.015625 337.199219 C 452.105469 339.105469 451.808594 342.117188 453.304688 344.367188 L 458.136719 351.605469 C 456.867188 354.066406 455.808594 356.625 454.957031 359.253906 L 446.425781 360.957031 C 443.777344 361.488281 441.855469 363.832031 441.855469 366.527344 L 441.855469 383.363281 C 441.855469 386.0625 443.777344 388.40625 446.425781 388.933594 L 454.957031 390.636719 C 455.808594 393.265625 456.867188 395.824219 458.136719 398.285156 L 453.304688 405.527344 C 451.808594 407.773438 452.105469 410.785156 454.015625 412.691406 L 465.933594 424.597656 C 467.84375 426.503906 470.859375 426.800781 473.105469 425.308594 L 480.351562 420.480469 C 482.816406 421.746094 485.378906 422.808594 488.007812 423.65625 L 489.714844 432.179688 C 490.246094 434.824219 492.589844 436.746094 495.289062 436.746094 L 512.144531 436.746094 C 514.84375 436.746094 517.1875 434.824219 517.714844 432.179688 L 519.421875 423.65625 C 522.054688 422.808594 524.613281 421.746094 527.078125 420.480469 L 534.324219 425.308594 C 536.570312 426.800781 539.585938 426.503906 541.5 424.597656 L 553.414062 412.691406 C 555.320312 410.785156 555.621094 407.773438 554.125 405.527344 L 549.296875 398.285156 C 550.5625 395.824219 551.621094 393.265625 552.472656 390.636719 L 561.003906 388.933594 C 563.65625 388.40625 565.574219 386.0625 565.574219 383.363281 L 565.574219 366.527344 C 565.574219 363.832031 563.65625 361.488281 561.007812 360.957031 L 552.472656 359.253906 C 551.621094 356.625 550.5625 354.066406 549.296875 351.605469 L 554.125 344.363281 C 555.621094 342.117188 555.320312 339.105469 553.414062 337.199219 " fill-opacity="1" fill-rule="nonzero"/><path fill="#4195b2" d="M 503.714844 396.777344 C 491.667969 396.777344 481.863281 386.984375 481.863281 374.945312 C 481.863281 362.90625 491.667969 353.113281 503.714844 353.113281 C 515.765625 353.113281 525.566406 362.90625 525.566406 374.945312 C 525.566406 386.984375 515.765625 396.777344 503.714844 396.777344 Z M 503.714844 343.589844 C 486.410156 343.589844 472.328125 357.65625 472.328125 374.945312 C 472.328125 392.234375 486.410156 406.300781 503.714844 406.300781 C 521.023438 406.300781 535.101562 392.234375 535.101562 374.945312 C 535.101562 357.65625 521.023438 343.589844 503.714844 343.589844 " fill-opacity="1" fill-rule="nonzero"/><g clip-path="url(#id4)"><path fill="#4195b2" d="M 591.183594 382.980469 L 620.625 314.183594 L 683.476562 354.867188 Z M 650.875 390.324219 C 648.890625 409.308594 643.308594 427.515625 634.285156 444.4375 C 625.265625 461.367188 613.253906 476.152344 598.59375 488.386719 C 583.398438 501.074219 566.019531 510.449219 546.945312 516.253906 C 532.871094 520.542969 518.378906 522.71875 503.882812 522.71875 C 498.792969 522.71875 493.628906 522.449219 488.53125 521.914062 C 469.515625 519.925781 451.289062 514.347656 434.363281 505.339844 C 417.429688 496.328125 402.628906 484.332031 390.375 469.675781 C 384.472656 462.628906 379.253906 455.027344 374.8125 447.070312 C 378.816406 439.328125 382.207031 431.199219 384.894531 422.847656 C 386.210938 418.757812 387.347656 414.636719 388.320312 410.488281 C 397.757812 441.175781 418.605469 466.40625 447.050781 481.542969 C 464.832031 491.003906 484.226562 495.804688 503.789062 495.804688 C 515.605469 495.804688 527.484375 494.050781 539.097656 490.515625 C 569.972656 481.113281 595.339844 460.257812 610.515625 431.792969 C 618.726562 416.390625 623.433594 399.917969 624.515625 382.785156 L 651.671875 374.511719 C 651.691406 379.78125 651.429688 385.074219 650.875 390.324219 Z M 365.207031 444.867188 L 364.933594 445.375 C 360.296875 453.894531 354.769531 462.011719 348.496094 469.507812 C 335.796875 484.679688 320.363281 496.988281 302.617188 506.085938 C 281.792969 516.769531 258.503906 522.417969 235.269531 522.417969 C 230.976562 522.417969 226.632812 522.226562 222.3125 521.84375 L 225.535156 495.113281 C 247.890625 496.921875 270.191406 492.472656 290.316406 482.148438 C 349.601562 451.746094 373.070312 378.820312 342.636719 319.59375 C 327.894531 290.902344 302.847656 269.664062 272.117188 259.792969 C 241.386719 249.917969 208.644531 252.59375 179.925781 267.324219 C 154.125 280.558594 133.9375 302.664062 123.089844 329.582031 C 112.867188 354.9375 111.527344 382.949219 119.207031 408.917969 L 94.878906 421.398438 C 91.015625 409.871094 88.605469 397.898438 87.703125 385.734375 C 86.289062 366.703125 88.546875 347.792969 94.425781 329.539062 C 100.300781 311.289062 109.492188 294.609375 121.746094 279.964844 C 134.449219 264.785156 149.882812 252.480469 167.625 243.386719 C 185.367188 234.285156 204.371094 228.929688 224.113281 227.464844 C 243.171875 226.050781 262.097656 228.308594 280.363281 234.171875 C 298.628906 240.042969 315.324219 249.226562 329.984375 261.476562 C 344.492188 273.59375 356.394531 288.21875 365.363281 304.957031 C 365.785156 305.734375 366.195312 306.519531 366.597656 307.304688 C 375.707031 325.03125 381.070312 344.019531 382.539062 363.738281 C 383.953125 382.785156 381.691406 401.691406 375.820312 419.933594 C 373.042969 428.566406 369.46875 436.953125 365.207031 444.867188 Z M 152.617188 402.488281 L 135.863281 475.410156 L 66.78125 446.511719 Z M 409.101562 261.664062 C 424.285156 248.984375 441.664062 239.609375 460.746094 233.796875 C 487.546875 225.632812 515.738281 225.207031 542.582031 232.519531 L 534.65625 258.257812 C 512.976562 252.519531 490.238281 252.945312 468.597656 259.53125 C 437.769531 268.925781 412.421875 289.792969 397.226562 318.289062 C 393.609375 325.074219 390.679688 332.101562 388.429688 339.28125 C 385.519531 326.746094 381.058594 314.59375 375.078125 302.949219 C 375.042969 302.886719 375.011719 302.824219 374.976562 302.757812 C 383.808594 287.027344 395.273438 273.207031 409.101562 261.664062 Z M 693.800781 350.199219 L 622.972656 304.355469 C 621.3125 303.28125 619.277344 302.996094 617.382812 303.574219 C 615.492188 304.148438 613.960938 305.519531 613.183594 307.332031 L 580.007812 384.863281 C 578.980469 387.277344 579.425781 389.992188 581.179688 391.949219 C 582.484375 393.390625 584.269531 394.171875 586.128906 394.171875 C 586.789062 394.171875 587.449219 394.074219 588.109375 393.875 L 614.710938 385.773438 C 613.320312 400.253906 609.089844 414.203125 602.097656 427.316406 C 588.121094 453.535156 564.753906 472.746094 536.3125 481.40625 C 507.917969 490.054688 477.808594 487.117188 451.535156 473.136719 C 425.257812 459.152344 406.019531 435.828125 397.359375 407.460938 C 388.703125 379.09375 391.644531 349.015625 405.640625 322.765625 C 419.636719 296.515625 442.984375 277.292969 471.378906 268.644531 C 492.71875 262.148438 515.222656 262.152344 536.441406 268.671875 L 540.996094 270.066406 L 554.515625 226.140625 L 549.960938 224.742188 C 519.933594 215.519531 488.121094 215.5 457.964844 224.683594 C 437.65625 230.875 419.15625 240.855469 402.988281 254.355469 C 389.742188 265.410156 378.535156 278.429688 369.574219 293.125 C 360.617188 278.347656 349.390625 265.269531 336.101562 254.167969 C 320.492188 241.128906 302.71875 231.351562 283.28125 225.105469 C 263.839844 218.863281 243.691406 216.460938 223.40625 217.96875 C 202.386719 219.523438 182.152344 225.226562 163.269531 234.914062 C 144.390625 244.59375 127.957031 257.695312 114.433594 273.855469 C 101.386719 289.445312 91.601562 307.203125 85.347656 326.625 C 79.09375 346.054688 76.6875 366.179688 78.199219 386.4375 C 79.195312 399.875 81.921875 413.089844 86.308594 425.792969 L 56.980469 440.832031 C 54.640625 442.03125 53.253906 444.410156 53.355469 447.035156 C 53.457031 449.660156 55.027344 451.921875 57.453125 452.9375 L 135.300781 485.5 C 136.128906 485.847656 137.007812 486.019531 137.882812 486.019531 C 138.929688 486.019531 139.976562 485.773438 140.933594 485.28125 C 142.691406 484.378906 143.957031 482.757812 144.398438 480.835938 L 163.28125 398.65625 C 163.867188 396.097656 162.945312 393.503906 160.871094 391.894531 C 158.792969 390.28125 156.050781 390.023438 153.710938 391.222656 L 127.847656 404.488281 C 113.929688 354.335938 137.5 299.785156 184.28125 275.796875 C 210.734375 262.230469 240.890625 259.765625 269.199219 268.859375 C 297.503906 277.953125 320.574219 297.515625 334.15625 323.941406 C 362.191406 378.5 340.574219 445.667969 285.964844 473.675781 C 266.109375 483.859375 243.96875 487.835938 221.929688 485.179688 L 217.199219 484.609375 L 211.695312 530.238281 L 216.429688 530.808594 C 222.683594 531.5625 229.023438 531.941406 235.269531 531.941406 C 260.011719 531.941406 284.804688 525.929688 306.972656 514.558594 C 325.859375 504.875 342.289062 491.773438 355.8125 475.617188 C 360.804688 469.652344 365.347656 463.3125 369.390625 456.699219 C 373.449219 463.371094 378.023438 469.765625 383.058594 475.785156 C 396.105469 491.382812 411.859375 504.15625 429.878906 513.742188 C 447.894531 523.332031 467.292969 529.269531 487.539062 531.386719 C 492.964844 531.953125 498.464844 532.242188 503.882812 532.242188 C 519.324219 532.242188 534.75 529.925781 549.730469 525.363281 C 570.027344 519.183594 588.519531 509.203125 604.707031 495.695312 C 620.3125 482.671875 633.09375 466.933594 642.703125 448.914062 C 652.304688 430.90625 658.246094 411.523438 660.359375 391.3125 C 661.042969 384.773438 661.308594 378.167969 661.171875 371.621094 L 692.109375 362.195312 C 694.628906 361.429688 696.421875 359.335938 696.78125 356.734375 C 697.148438 354.132812 696.007812 351.628906 693.800781 350.199219 " fill-opacity="1" fill-rule="nonzero"/></g></svg>