<svg xmlns="http://www.w3.org/2000/svg" xmlns:xlink="http://www.w3.org/1999/xlink" width="1000" zoomAndPan="magnify" viewBox="0 0 750 749.999995" height="1000" preserveAspectRatio="xMidYMid meet" version="1.0"><defs><clipPath id="id1"><path d="M 298 241.089844 L 375 241.089844 L 375 372 L 298 372 Z M 298 241.089844 " clip-rule="nonzero"/></clipPath><clipPath id="id2"><path d="M 292 368 L 375 368 L 375 508.839844 L 292 508.839844 Z M 292 368 " clip-rule="nonzero"/></clipPath><clipPath id="id3"><path d="M 371 241.089844 L 448 241.089844 L 448 372 L 371 372 Z M 371 241.089844 " clip-rule="nonzero"/></clipPath><clipPath id="id4"><path d="M 233 127.566406 L 374 127.566406 L 374 369 L 233 369 Z M 233 127.566406 " clip-rule="nonzero"/></clipPath><clipPath id="id5"><path d="M 222 363 L 374 363 L 374 622.566406 L 222 622.566406 Z M 222 363 " clip-rule="nonzero"/></clipPath></defs><path fill="#f4f4f4" d="M 440.085938 487.699219 C 439.503906 487.699219 439.210938 487.507812 438.824219 486.925781 C 431.0625 473.445312 400.121094 467.625 373.058594 467.625 C 345.804688 467.625 315.054688 473.734375 307.296875 486.925781 C 306.90625 487.699219 306.035156 487.796875 305.453125 487.507812 C 305.066406 487.3125 304.675781 486.730469 304.675781 486.246094 C 304.675781 486.050781 304.675781 485.664062 304.871094 485.46875 C 312.632812 471.988281 302.253906 441.832031 288.480469 417.878906 C 272.085938 390.046875 252.203125 371.136719 238.914062 371.136719 C 238.136719 371.136719 237.457031 370.554688 237.457031 369.679688 C 237.457031 368.808594 238.234375 368.421875 238.914062 368.421875 C 252.203125 368.421875 272.085938 349.414062 288.285156 321.484375 C 302.058594 297.726562 312.4375 267.664062 304.675781 254.085938 C 304.484375 253.890625 304.484375 253.699219 304.484375 253.308594 C 304.484375 252.726562 304.675781 252.4375 305.257812 252.050781 C 306.035156 251.660156 306.714844 251.855469 307.101562 252.632812 C 314.863281 266.109375 345.804688 271.929688 372.867188 271.929688 C 400.121094 271.929688 430.871094 265.820312 438.628906 252.632812 C 439.019531 251.855469 439.890625 251.757812 440.472656 252.050781 C 440.859375 252.242188 441.25 252.824219 441.25 253.308594 C 441.25 253.503906 441.25 253.890625 441.054688 254.085938 C 433.296875 267.566406 443.769531 297.917969 457.640625 321.871094 C 474.035156 350.1875 493.917969 369.195312 507.207031 369.195312 C 507.984375 369.195312 508.660156 369.777344 508.660156 370.652344 C 508.660156 371.523438 508.078125 372.105469 507.207031 372.105469 C 491.6875 372.105469 470.929688 396.058594 457.058594 419.816406 C 440.859375 447.84375 434.363281 474.511719 441.054688 485.953125 C 441.25 486.148438 441.25 486.34375 441.25 486.730469 C 441.25 487.3125 441.054688 487.601562 440.472656 487.992188 C 440.472656 487.699219 440.277344 487.699219 440.085938 487.699219 Z M 246.285156 369.875 C 262.09375 375.597656 279.457031 397.707031 290.710938 416.8125 C 307.878906 446.292969 311.660156 467.820312 309.527344 480.136719 C 322.425781 469.082031 350.460938 464.8125 373.058594 464.8125 C 395.5625 464.8125 423.5 468.886719 436.398438 479.941406 C 433.488281 463.359375 443.769531 437.371094 455.023438 418.070312 C 471.996094 388.589844 488.777344 374.625 500.320312 370.554688 C 484.507812 365.027344 466.757812 342.527344 455.605469 323.230469 C 438.4375 293.554688 434.460938 272.027344 436.59375 259.710938 C 423.691406 270.765625 395.660156 275.03125 373.058594 275.03125 C 350.558594 274.839844 322.621094 270.765625 309.722656 259.710938 C 312.824219 276.488281 302.15625 303.15625 290.710938 322.648438 C 279.652344 342.042969 262.191406 364.152344 246.285156 369.875 Z M 246.285156 369.875 " fill-opacity="1" fill-rule="nonzero"/><path fill="#f4f4f4" d="M 426.3125 463.746094 C 425.730469 463.746094 425.4375 463.554688 425.050781 462.972656 C 419.714844 453.757812 398.859375 447.648438 372.964844 447.648438 C 347.066406 447.648438 326.210938 453.757812 320.875 462.972656 C 320.488281 463.746094 319.613281 463.84375 319.03125 463.554688 C 318.644531 463.359375 318.257812 462.777344 318.257812 462.292969 C 318.257812 462.097656 318.257812 461.710938 318.449219 461.515625 C 323.785156 452.304688 318.449219 430.96875 305.550781 408.472656 C 292.648438 386.167969 277.03125 371.039062 266.460938 371.039062 C 265.683594 371.039062 265.003906 370.457031 265.003906 369.582031 C 265.003906 368.710938 265.585938 368.128906 266.460938 368.128906 C 276.9375 368.128906 292.648438 353.195312 305.550781 330.695312 C 318.644531 308.003906 323.785156 286.863281 318.449219 277.652344 C 318.257812 277.457031 318.257812 277.261719 318.257812 276.875 C 318.257812 276.292969 318.449219 276.003906 319.03125 275.613281 C 319.808594 275.226562 320.488281 275.421875 320.875 276.195312 C 326.210938 285.410156 347.066406 291.519531 372.964844 291.519531 C 398.859375 291.519531 419.714844 285.410156 425.050781 276.195312 C 425.4375 275.421875 426.3125 275.324219 426.894531 275.613281 C 427.28125 275.808594 427.667969 276.390625 427.667969 276.875 C 427.667969 277.070312 427.667969 277.457031 427.476562 277.652344 C 422.140625 286.863281 427.476562 308.585938 440.765625 331.472656 C 453.664062 353.777344 469.28125 368.710938 479.660156 368.710938 C 480.4375 368.710938 481.113281 369.292969 481.113281 370.164062 C 481.113281 371.039062 480.53125 371.621094 479.660156 371.621094 C 469.183594 371.621094 453.277344 386.75 440.472656 409.054688 C 427.667969 431.355469 422.429688 452.304688 427.765625 461.515625 C 427.960938 461.710938 427.960938 461.90625 427.960938 462.292969 C 427.960938 462.875 427.765625 463.164062 427.183594 463.554688 C 426.894531 463.554688 426.503906 463.746094 426.3125 463.746094 Z M 373.058594 444.933594 C 390.519531 444.933594 412.441406 448.039062 423.011719 456.570312 C 420.976562 443.285156 429.316406 422.824219 437.949219 407.984375 C 446.777344 392.859375 460.453125 375.402344 472.96875 370.554688 C 460.648438 365.609375 446.972656 348.441406 438.339844 333.316406 C 429.316406 317.796875 420.878906 296.851562 423.011719 283.179688 C 412.539062 291.617188 390.617188 294.816406 373.058594 294.816406 C 355.503906 294.816406 333.679688 291.710938 323.105469 283.179688 C 325.144531 296.65625 316.800781 317.21875 307.976562 332.539062 C 299.148438 347.472656 285.664062 364.734375 273.152344 369.777344 C 285.664062 374.722656 299.34375 392.082031 307.976562 407.210938 C 316.800781 422.53125 325.144531 443.089844 323.105469 456.570312 C 333.679688 448.132812 355.601562 444.933594 373.058594 444.933594 Z M 373.058594 444.933594 " fill-opacity="1" fill-rule="nonzero"/><path fill="#f4f4f4" d="M 412.441406 441.054688 C 411.859375 441.054688 411.566406 440.859375 411.179688 440.277344 C 407.300781 433.492188 391.972656 429.03125 372.867188 429.03125 C 353.757812 429.03125 338.433594 433.585938 334.550781 440.277344 C 334.164062 441.054688 333.292969 441.152344 332.710938 440.859375 C 332.320312 440.667969 331.933594 440.085938 331.933594 439.601562 C 331.933594 439.40625 331.933594 439.019531 332.128906 438.824219 C 336.007812 432.035156 331.933594 415.257812 322.039062 398.289062 C 312.632812 382.09375 301.378906 371.230469 293.8125 371.230469 C 293.039062 371.230469 292.359375 370.652344 292.359375 369.777344 C 292.359375 368.90625 292.941406 368.324219 293.8125 368.324219 C 301.378906 368.324219 313.019531 357.269531 322.332031 341.074219 C 332.128906 324.296875 336.007812 308.683594 332.128906 301.894531 C 332.128906 301.699219 332.128906 301.507812 332.128906 301.3125 C 332.128906 300.730469 332.320312 300.441406 332.902344 300.050781 C 333.679688 299.664062 334.359375 299.859375 334.746094 300.632812 C 338.625 307.421875 353.953125 311.882812 373.058594 311.882812 C 392.167969 311.882812 407.492188 307.324219 411.375 300.632812 C 411.761719 299.859375 412.636719 299.761719 413.214844 300.050781 C 413.605469 300.246094 413.992188 300.828125 413.992188 301.3125 C 413.992188 301.507812 413.992188 301.894531 413.796875 302.089844 C 409.917969 308.878906 413.796875 324.878906 423.789062 341.847656 C 433.199219 358.042969 444.644531 369.097656 452.113281 369.097656 C 452.886719 369.097656 453.566406 369.679688 453.566406 370.554688 C 453.566406 371.425781 452.984375 372.007812 452.113281 372.007812 C 444.546875 372.007812 433.296875 382.871094 423.789062 399.257812 C 413.992188 416.035156 410.015625 432.617188 413.796875 439.40625 C 413.992188 439.601562 413.992188 439.792969 413.992188 440.183594 C 413.992188 440.765625 413.796875 441.054688 413.214844 441.441406 C 413.023438 440.957031 412.636719 441.054688 412.441406 441.054688 Z M 373.058594 426.410156 C 385.765625 426.410156 401.382812 428.640625 409.726562 434.65625 C 408.65625 424.375 414.867188 409.054688 421.558594 397.609375 C 427.863281 386.75 437.367188 374.625 446.390625 370.554688 C 437.367188 366.480469 427.574219 354.164062 421.363281 343.304688 C 414.769531 332.054688 408.65625 316.925781 409.726562 306.648438 C 401.578125 312.5625 385.765625 314.890625 373.058594 314.890625 C 360.351562 314.890625 344.738281 312.660156 336.394531 306.648438 C 337.460938 316.730469 331.449219 331.667969 324.949219 342.914062 C 318.644531 353.777344 308.945312 366.09375 299.730469 370.164062 C 308.558594 374.238281 317.964844 385.972656 324.367188 397.222656 C 330.964844 408.859375 337.460938 424.277344 336.296875 434.75 C 344.542969 428.546875 360.351562 426.410156 373.058594 426.410156 Z M 373.058594 426.410156 " fill-opacity="1" fill-rule="nonzero"/><path fill="#f4f4f4" d="M 398.667969 417.003906 C 398.085938 417.003906 397.792969 416.8125 397.40625 416.230469 C 394.980469 411.960938 384.894531 409.246094 372.867188 409.246094 C 360.742188 409.246094 350.75 412.15625 348.324219 416.230469 C 347.9375 417.003906 347.066406 417.101562 346.484375 416.8125 C 346.09375 416.617188 345.707031 416.035156 345.707031 415.550781 C 345.707031 415.355469 345.707031 414.96875 345.902344 414.773438 C 348.324219 410.3125 345.707031 399.644531 339.304688 388.589844 C 333.195312 378.3125 326.015625 371.230469 321.457031 371.230469 C 320.683594 371.230469 320.003906 370.652344 320.003906 369.777344 C 320.003906 368.90625 320.585938 368.324219 321.457031 368.324219 C 326.210938 368.324219 333.777344 361.148438 339.691406 350.671875 C 345.804688 340.199219 348.324219 329.824219 345.996094 325.652344 C 345.804688 325.460938 345.804688 325.265625 345.804688 324.878906 C 345.804688 324.296875 345.996094 324.003906 346.578125 323.617188 C 347.355469 323.230469 348.035156 323.421875 348.421875 324.199219 C 350.847656 328.464844 360.933594 331.179688 372.964844 331.179688 C 385.085938 331.179688 395.078125 328.273438 397.503906 324.199219 C 397.890625 323.421875 398.765625 323.328125 399.347656 323.617188 C 399.734375 323.8125 400.121094 324.394531 400.121094 324.878906 C 400.121094 325.070312 400.121094 325.460938 399.929688 325.652344 C 397.503906 329.921875 400.121094 340.394531 406.328125 351.253906 C 412.441406 361.730469 419.617188 368.710938 424.371094 368.710938 C 425.148438 368.710938 425.828125 369.292969 425.828125 370.164062 C 425.828125 371.039062 425.246094 371.621094 424.371094 371.621094 C 419.617188 371.621094 412.441406 378.601562 406.328125 389.074219 C 400.023438 399.9375 397.503906 410.410156 399.929688 414.675781 C 400.121094 414.871094 400.121094 415.066406 400.121094 415.453125 C 400.121094 416.035156 399.929688 416.324219 399.347656 416.714844 C 399.25 417.003906 399.054688 417.003906 398.667969 417.003906 Z M 372.867188 406.433594 C 380.820312 406.433594 390.519531 407.695312 396.242188 411.378906 C 396.046875 404.59375 399.929688 395.183594 404.003906 388.007812 C 408.074219 381.027344 413.992188 373.460938 419.617188 370.554688 C 413.894531 367.644531 408.171875 360.082031 404.003906 353.097656 C 399.929688 345.921875 396.046875 336.515625 396.242188 329.726562 C 390.714844 333.21875 380.917969 334.671875 372.867188 334.671875 C 364.914062 334.671875 355.210938 333.410156 349.488281 329.726562 C 349.683594 336.320312 345.996094 345.535156 341.925781 352.515625 C 337.851562 359.304688 331.933594 367.0625 326.113281 370.164062 C 331.640625 373.074219 337.558594 380.445312 341.632812 387.523438 C 345.902344 394.894531 349.878906 404.496094 349.585938 411.476562 C 355.210938 407.792969 364.914062 406.433594 372.867188 406.433594 Z M 372.867188 406.433594 " fill-opacity="1" fill-rule="nonzero"/><path fill="#f4f4f4" d="M 384.894531 392.859375 C 384.3125 392.859375 384.019531 392.664062 383.632812 392.082031 C 382.757812 390.433594 378.105469 389.171875 372.769531 389.171875 C 367.433594 389.171875 363.167969 390.433594 362.097656 392.277344 C 361.710938 393.050781 360.839844 393.148438 360.257812 392.859375 C 359.867188 392.664062 359.480469 392.082031 359.480469 391.597656 C 359.480469 391.402344 359.480469 391.015625 359.675781 390.820312 C 360.742188 388.980469 359.285156 384.03125 356.570312 378.992188 C 353.660156 374.042969 350.460938 371.230469 349.003906 371.230469 C 348.230469 371.230469 347.550781 370.652344 347.550781 369.777344 C 347.550781 368.90625 348.132812 368.324219 349.003906 368.324219 C 351.042969 368.324219 354.339844 365.027344 356.957031 360.371094 C 359.578125 355.8125 360.839844 351.351562 359.867188 349.703125 C 359.675781 349.511719 359.675781 349.316406 359.675781 348.929688 C 359.675781 348.347656 359.867188 348.054688 360.449219 347.667969 C 361.226562 347.28125 361.90625 347.472656 362.292969 348.25 C 363.167969 349.898438 367.820312 351.160156 373.15625 351.160156 C 378.492188 351.160156 382.953125 349.898438 384.019531 348.25 C 384.410156 347.472656 385.28125 347.375 385.863281 347.667969 C 386.25 347.859375 386.640625 348.441406 386.640625 348.929688 C 386.640625 349.121094 386.640625 349.511719 386.445312 349.703125 C 385.574219 351.351562 386.832031 356.296875 389.355469 360.953125 C 392.265625 366.09375 395.464844 368.710938 397.117188 368.710938 C 397.890625 368.710938 398.570312 369.292969 398.570312 370.164062 C 398.570312 371.039062 397.988281 371.621094 397.117188 371.621094 C 395.464844 371.621094 392.363281 374.335938 389.355469 379.378906 C 386.640625 383.9375 385.28125 388.785156 386.445312 390.628906 C 386.640625 390.820312 386.640625 391.015625 386.640625 391.402344 C 386.640625 391.984375 386.445312 392.277344 385.863281 392.664062 C 385.378906 392.859375 385.183594 392.859375 384.894531 392.859375 Z M 352.59375 370.164062 C 355.503906 372.394531 358.121094 376.273438 358.898438 377.921875 C 360.742188 381.027344 362.390625 385.101562 362.777344 388.398438 C 365.496094 387.136719 369.375 386.554688 372.867188 386.554688 C 376.359375 386.554688 380.238281 387.136719 382.953125 388.398438 C 383.148438 385.292969 384.796875 381.414062 386.640625 378.3125 C 387.511719 376.855469 390.132812 372.589844 393.042969 370.554688 C 389.9375 368.324219 387.511719 364.25 386.640625 362.796875 C 384.796875 359.691406 383.148438 355.8125 382.953125 352.710938 C 380.238281 353.96875 376.359375 354.550781 372.867188 354.550781 C 369.375 354.550781 365.496094 353.96875 362.777344 352.710938 C 362.585938 355.621094 360.933594 359.304688 359.285156 362.3125 C 357.445312 365.21875 355.019531 368.324219 352.59375 370.164062 Z M 352.59375 370.164062 " fill-opacity="1" fill-rule="nonzero"/><g clip-path="url(#id1)"><path fill="#f4f4f4" d="M 373.058594 371.523438 C 372.476562 371.523438 372.1875 371.328125 371.800781 370.746094 L 298.664062 243.320312 C 298.273438 242.546875 298.46875 241.867188 299.246094 241.480469 C 300.019531 241.089844 300.699219 241.285156 301.089844 242.0625 L 374.222656 369.488281 C 374.613281 370.261719 374.417969 370.941406 373.640625 371.328125 C 373.640625 371.523438 373.253906 371.523438 373.058594 371.523438 Z M 373.058594 371.523438 " fill-opacity="1" fill-rule="nonzero"/></g><path fill="#f4f4f4" d="M 373.058594 372.203125 L 226.59375 371.425781 C 225.820312 371.425781 225.332031 370.652344 225.332031 369.972656 C 225.332031 369.195312 225.914062 368.515625 226.789062 368.515625 L 373.253906 368.90625 C 374.03125 368.90625 374.515625 369.777344 374.515625 370.554688 C 374.515625 371.328125 373.835938 372.203125 373.058594 372.203125 Z M 373.058594 372.203125 " fill-opacity="1" fill-rule="nonzero"/><g clip-path="url(#id2)"><path fill="#f4f4f4" d="M 294.007812 508.839844 C 293.8125 508.839844 293.425781 508.839844 293.230469 508.648438 C 292.457031 508.257812 292.359375 507.386719 292.648438 506.804688 L 371.800781 369.488281 C 372.1875 368.710938 373.058594 368.613281 373.640625 368.90625 C 374.417969 369.292969 374.515625 370.164062 374.222656 370.746094 L 295.171875 508.355469 C 294.976562 508.648438 294.394531 508.839844 294.007812 508.839844 Z M 294.007812 508.839844 " fill-opacity="1" fill-rule="nonzero"/></g><path fill="#f4f4f4" d="M 448.425781 502.246094 C 447.84375 502.246094 447.554688 502.050781 447.164062 501.472656 L 371.992188 370.941406 C 371.605469 370.164062 371.800781 369.488281 372.574219 369.097656 C 373.351562 368.710938 374.03125 368.90625 374.417969 369.679688 L 449.6875 500.210938 C 450.074219 500.984375 449.882812 501.664062 449.105469 502.050781 C 448.816406 502.050781 448.621094 502.246094 448.425781 502.246094 Z M 448.425781 502.246094 " fill-opacity="1" fill-rule="nonzero"/><path fill="#f4f4f4" d="M 523.210938 372.203125 L 373.058594 371.621094 C 372.285156 371.621094 371.800781 370.746094 371.800781 369.972656 C 371.800781 369.195312 372.382812 368.324219 373.253906 368.324219 L 523.40625 368.90625 C 524.179688 368.90625 524.667969 369.777344 524.667969 370.554688 C 524.667969 371.328125 524.085938 372.203125 523.210938 372.203125 Z M 523.210938 372.203125 " fill-opacity="1" fill-rule="nonzero"/><g clip-path="url(#id3)"><path fill="#f4f4f4" d="M 373.058594 371.523438 C 372.867188 371.523438 372.476562 371.523438 372.285156 371.328125 C 371.507812 370.941406 371.410156 370.070312 371.703125 369.488281 L 444.546875 242.0625 C 444.933594 241.285156 445.808594 241.1875 446.390625 241.480469 C 447.164062 241.867188 447.261719 242.738281 446.972656 243.320312 L 374.417969 370.746094 C 374.03125 371.328125 373.640625 371.523438 373.058594 371.523438 Z M 373.058594 371.523438 " fill-opacity="1" fill-rule="nonzero"/></g><path fill="#3776b8" d="M 495.210938 583.484375 C 494.132812 583.484375 493.597656 583.125 492.878906 582.050781 C 478.542969 557.128906 421.375 546.371094 371.375 546.371094 C 321.019531 546.371094 264.210938 557.667969 249.871094 582.050781 C 249.15625 583.484375 247.542969 583.664062 246.46875 583.125 C 245.75 582.765625 245.035156 581.691406 245.035156 580.792969 C 245.035156 580.4375 245.035156 579.71875 245.390625 579.359375 C 259.730469 554.441406 240.554688 498.683594 215.105469 454.402344 C 184.820312 402.945312 148.082031 367.984375 123.53125 367.984375 C 122.097656 367.984375 120.84375 366.910156 120.84375 365.296875 C 120.84375 363.683594 122.277344 362.964844 123.53125 362.964844 C 148.082031 362.964844 184.820312 327.828125 214.746094 276.191406 C 240.195312 232.269531 259.371094 176.691406 245.035156 151.589844 C 244.675781 151.234375 244.675781 150.875 244.675781 150.15625 C 244.675781 149.082031 245.035156 148.542969 246.109375 147.828125 C 247.542969 147.109375 248.796875 147.46875 249.515625 148.902344 C 263.851562 173.824219 321.019531 184.578125 371.019531 184.578125 C 421.375 184.578125 478.183594 173.285156 492.523438 148.902344 C 493.238281 147.46875 494.851562 147.289062 495.925781 147.828125 C 496.644531 148.183594 497.359375 149.261719 497.359375 150.15625 C 497.359375 150.515625 497.359375 151.234375 497 151.589844 C 482.664062 176.511719 502.019531 232.628906 527.648438 276.910156 C 557.933594 329.261719 594.671875 364.402344 619.222656 364.402344 C 620.65625 364.402344 621.910156 365.476562 621.910156 367.089844 C 621.910156 368.703125 620.835938 369.777344 619.222656 369.777344 C 590.550781 369.777344 552.199219 414.0625 526.570312 457.984375 C 496.644531 509.796875 484.636719 559.101562 497.003906 580.257812 C 497.359375 580.617188 497.359375 580.972656 497.359375 581.691406 C 497.359375 582.765625 497.003906 583.304688 495.925781 584.023438 C 495.925781 583.484375 495.566406 583.484375 495.210938 583.484375 Z M 137.148438 365.65625 C 166.359375 376.234375 198.4375 417.109375 219.226562 452.429688 C 250.949219 506.929688 257.9375 546.730469 253.996094 569.5 C 277.828125 549.0625 329.621094 541.171875 371.375 541.171875 C 412.953125 541.171875 464.566406 548.703125 488.398438 569.140625 C 483.023438 538.484375 502.019531 490.4375 522.808594 454.757812 C 554.167969 400.257812 585.171875 374.441406 606.5 366.910156 C 577.289062 356.691406 544.492188 315.097656 523.882812 279.421875 C 492.164062 224.558594 484.816406 184.757812 488.757812 161.988281 C 464.921875 182.429688 413.132812 190.316406 371.375 190.316406 C 329.800781 189.957031 278.1875 182.429688 254.351562 161.988281 C 260.085938 193.007812 240.375 242.308594 219.226562 278.34375 C 198.796875 314.203125 166.539062 355.078125 137.148438 365.65625 Z M 137.148438 365.65625 " fill-opacity="1" fill-rule="nonzero"/><path fill="#3776b8" d="M 469.761719 539.199219 C 468.6875 539.199219 468.148438 538.84375 467.433594 537.765625 C 457.574219 520.734375 419.046875 509.441406 371.195312 509.441406 C 323.347656 509.441406 284.816406 520.734375 274.960938 537.765625 C 274.246094 539.199219 272.632812 539.378906 271.558594 538.84375 C 270.839844 538.484375 270.125 537.410156 270.125 536.511719 C 270.125 536.152344 270.125 535.4375 270.480469 535.078125 C 280.339844 518.046875 270.480469 478.605469 246.648438 437.011719 C 222.8125 395.773438 193.960938 367.808594 174.425781 367.808594 C 172.992188 367.808594 171.738281 366.730469 171.738281 365.117188 C 171.738281 363.503906 172.8125 362.429688 174.425781 362.429688 C 193.78125 362.429688 222.8125 334.820312 246.648438 293.226562 C 270.839844 251.273438 280.339844 212.1875 270.480469 195.15625 C 270.125 194.796875 270.125 194.441406 270.125 193.722656 C 270.125 192.648438 270.480469 192.109375 271.558594 191.390625 C 272.992188 190.675781 274.246094 191.035156 274.960938 192.46875 C 284.816406 209.5 323.347656 220.792969 371.195312 220.792969 C 419.046875 220.792969 457.574219 209.5 467.433594 192.46875 C 468.148438 191.035156 469.761719 190.855469 470.835938 191.390625 C 471.554688 191.75 472.269531 192.828125 472.269531 193.722656 C 472.269531 194.082031 472.269531 194.796875 471.914062 195.15625 C 462.054688 212.1875 471.914062 252.347656 496.464844 294.660156 C 520.300781 335.894531 549.152344 363.503906 568.328125 363.503906 C 569.761719 363.503906 571.015625 364.578125 571.015625 366.191406 C 571.015625 367.808594 569.941406 368.882812 568.328125 368.882812 C 548.972656 368.882812 519.582031 396.851562 495.925781 438.085938 C 472.269531 479.320312 462.59375 518.046875 472.449219 535.078125 C 472.808594 535.4375 472.808594 535.792969 472.808594 536.511719 C 472.808594 537.585938 472.449219 538.125 471.375 538.84375 C 470.835938 538.84375 470.121094 539.199219 469.761719 539.199219 Z M 371.375 504.421875 C 403.632812 504.421875 444.136719 510.15625 463.667969 525.933594 C 459.90625 501.371094 475.316406 463.542969 491.265625 436.113281 C 507.574219 408.144531 532.84375 375.875 555.960938 366.910156 C 533.203125 357.765625 507.933594 326.035156 491.984375 298.066406 C 475.316406 269.378906 459.726562 230.65625 463.667969 205.375 C 444.3125 220.972656 403.8125 226.890625 371.375 226.890625 C 338.9375 226.890625 298.617188 221.152344 279.082031 205.375 C 282.847656 230.296875 267.433594 268.304688 251.125 296.632812 C 234.820312 324.242188 209.910156 356.152344 186.789062 365.476562 C 209.910156 374.621094 235.175781 406.710938 251.125 434.679688 C 267.433594 463.007812 282.847656 501.015625 279.082031 525.933594 C 298.617188 510.335938 339.117188 504.421875 371.375 504.421875 Z M 371.375 504.421875 " fill-opacity="1" fill-rule="nonzero"/><path fill="#3776b8" d="M 444.136719 497.25 C 443.058594 497.25 442.523438 496.890625 441.804688 495.816406 C 434.636719 483.265625 406.320312 475.019531 371.019531 475.019531 C 335.714844 475.019531 307.398438 483.445312 300.230469 495.816406 C 299.511719 497.25 297.902344 497.429688 296.824219 496.890625 C 296.109375 496.53125 295.390625 495.457031 295.390625 494.558594 C 295.390625 494.203125 295.390625 493.484375 295.75 493.125 C 302.917969 480.574219 295.390625 449.558594 277.113281 418.183594 C 259.730469 388.246094 238.941406 368.164062 224.960938 368.164062 C 223.527344 368.164062 222.273438 367.089844 222.273438 365.476562 C 222.273438 363.863281 223.347656 362.785156 224.960938 362.785156 C 238.941406 362.785156 260.445312 342.347656 277.648438 312.410156 C 295.75 281.390625 302.917969 252.527344 295.75 239.976562 C 295.75 239.621094 295.75 239.261719 295.75 238.902344 C 295.75 237.828125 296.109375 237.289062 297.183594 236.570312 C 298.617188 235.855469 299.871094 236.214844 300.589844 237.648438 C 307.757812 250.195312 336.070312 258.445312 371.375 258.445312 C 406.679688 258.445312 434.996094 250.019531 442.164062 237.648438 C 442.878906 236.214844 444.492188 236.035156 445.570312 236.570312 C 446.285156 236.929688 447.003906 238.007812 447.003906 238.902344 C 447.003906 239.261719 447.003906 239.976562 446.644531 240.335938 C 439.476562 252.886719 446.644531 282.46875 465.101562 313.84375 C 482.484375 343.78125 503.632812 364.222656 517.433594 364.222656 C 518.867188 364.222656 520.121094 365.296875 520.121094 366.910156 C 520.121094 368.523438 519.042969 369.597656 517.433594 369.597656 C 503.453125 369.597656 482.664062 389.679688 465.101562 419.976562 C 447.003906 450.992188 439.65625 481.652344 446.644531 494.203125 C 447.003906 494.558594 447.003906 494.917969 447.003906 495.636719 C 447.003906 496.710938 446.644531 497.25 445.570312 497.964844 C 445.210938 497.070312 444.492188 497.25 444.136719 497.25 Z M 371.375 470.175781 C 394.851562 470.175781 423.707031 474.300781 439.117188 485.417969 C 437.144531 466.414062 448.617188 438.085938 460.980469 416.929688 C 472.628906 396.851562 490.191406 374.441406 506.859375 366.910156 C 490.191406 359.378906 472.09375 336.613281 460.621094 316.53125 C 448.4375 295.734375 437.144531 267.765625 439.117188 248.761719 C 424.0625 259.699219 394.851562 264.003906 371.375 264.003906 C 347.898438 264.003906 319.046875 259.878906 303.636719 248.761719 C 305.605469 267.410156 294.496094 295.019531 282.488281 315.816406 C 270.839844 335.894531 252.917969 358.664062 235.894531 366.191406 C 252.203125 373.722656 269.585938 395.417969 281.414062 416.214844 C 293.597656 437.726562 305.605469 466.234375 303.457031 485.59375 C 318.6875 474.121094 347.898438 470.175781 371.375 470.175781 Z M 371.375 470.175781 " fill-opacity="1" fill-rule="nonzero"/><path fill="#3776b8" d="M 418.6875 452.785156 C 417.613281 452.785156 417.074219 452.429688 416.359375 451.351562 C 411.878906 443.464844 393.238281 438.445312 371.019531 438.445312 C 348.617188 438.445312 330.15625 443.824219 325.679688 451.351562 C 324.960938 452.785156 323.347656 452.964844 322.273438 452.429688 C 321.554688 452.070312 320.839844 450.992188 320.839844 450.097656 C 320.839844 449.738281 320.839844 449.023438 321.199219 448.664062 C 325.679688 440.417969 320.839844 420.695312 309.011719 400.257812 C 297.722656 381.253906 284.460938 368.164062 276.035156 368.164062 C 274.601562 368.164062 273.347656 367.089844 273.347656 365.476562 C 273.347656 363.863281 274.425781 362.785156 276.035156 362.785156 C 284.816406 362.785156 298.796875 349.519531 309.726562 330.15625 C 321.019531 310.792969 325.679688 291.613281 321.375 283.902344 C 321.019531 283.542969 321.019531 283.183594 321.019531 282.46875 C 321.019531 281.390625 321.375 280.855469 322.453125 280.136719 C 323.886719 279.421875 325.140625 279.777344 325.855469 281.214844 C 330.335938 289.101562 348.976562 294.121094 371.195312 294.121094 C 393.597656 294.121094 412.058594 288.742188 416.535156 281.214844 C 417.253906 279.777344 418.867188 279.597656 419.941406 280.136719 C 420.660156 280.496094 421.375 281.570312 421.375 282.46875 C 421.375 282.828125 421.375 283.542969 421.015625 283.902344 C 416.535156 291.789062 421.375 311.152344 432.84375 331.234375 C 444.136719 350.59375 457.398438 363.503906 466.179688 363.503906 C 467.613281 363.503906 468.867188 364.578125 468.867188 366.191406 C 468.867188 367.808594 467.789062 368.882812 466.179688 368.882812 C 457.398438 368.882812 444.136719 381.789062 432.84375 401.152344 C 421.195312 421.234375 416.535156 440.59375 421.015625 448.484375 C 421.375 448.84375 421.375 449.199219 421.375 449.917969 C 421.375 450.992188 421.015625 451.53125 419.941406 452.25 C 419.761719 452.785156 419.40625 452.785156 418.6875 452.785156 Z M 371.019531 433.246094 C 385.714844 433.246094 403.632812 435.574219 414.207031 442.386719 C 413.847656 429.839844 421.015625 412.449219 428.542969 399.179688 C 436.070312 386.273438 447.003906 372.289062 457.398438 366.910156 C 446.824219 361.53125 436.25 347.546875 428.542969 334.640625 C 421.015625 321.371094 413.847656 303.980469 414.207031 291.433594 C 403.992188 297.886719 385.890625 300.574219 371.019531 300.574219 C 356.324219 300.574219 338.402344 298.246094 327.828125 291.433594 C 328.1875 303.625 321.375 320.65625 313.851562 333.5625 C 306.324219 346.113281 295.390625 360.457031 284.640625 366.191406 C 294.855469 371.570312 305.785156 385.195312 313.3125 398.285156 C 321.199219 411.910156 328.546875 429.660156 328.007812 442.566406 C 338.402344 435.753906 356.324219 433.246094 371.019531 433.246094 Z M 371.019531 433.246094 " fill-opacity="1" fill-rule="nonzero"/><path fill="#3776b8" d="M 393.238281 408.144531 C 392.164062 408.144531 391.625 407.785156 390.910156 406.710938 C 389.296875 403.664062 380.695312 401.332031 370.839844 401.332031 C 360.980469 401.332031 353.097656 403.664062 351.125 407.070312 C 350.410156 408.503906 348.796875 408.683594 347.71875 408.144531 C 347.003906 407.785156 346.285156 406.710938 346.285156 405.816406 C 346.285156 405.457031 346.285156 404.738281 346.644531 404.378906 C 348.617188 400.972656 345.929688 391.832031 340.910156 382.507812 C 335.535156 373.363281 329.621094 368.164062 326.933594 368.164062 C 325.5 368.164062 324.246094 367.089844 324.246094 365.476562 C 324.246094 363.863281 325.320312 362.785156 326.933594 362.785156 C 330.695312 362.785156 336.789062 356.691406 341.628906 348.085938 C 346.464844 339.660156 348.796875 331.414062 347.003906 328.363281 C 346.644531 328.007812 346.644531 327.648438 346.644531 326.929688 C 346.644531 325.855469 347.003906 325.316406 348.078125 324.597656 C 349.511719 323.882812 350.765625 324.242188 351.484375 325.675781 C 353.097656 328.722656 361.699219 331.054688 371.554688 331.054688 C 381.410156 331.054688 389.65625 328.722656 391.625 325.675781 C 392.34375 324.242188 393.957031 324.0625 395.03125 324.597656 C 395.75 324.957031 396.464844 326.035156 396.464844 326.929688 C 396.464844 327.289062 396.464844 328.007812 396.105469 328.363281 C 394.496094 331.414062 396.824219 340.554688 401.484375 349.160156 C 406.859375 358.664062 412.773438 363.503906 415.820312 363.503906 C 417.253906 363.503906 418.507812 364.578125 418.507812 366.191406 C 418.507812 367.808594 417.433594 368.882812 415.820312 368.882812 C 412.773438 368.882812 407.039062 373.902344 401.484375 383.226562 C 396.464844 391.652344 393.957031 400.617188 396.105469 404.023438 C 396.464844 404.378906 396.464844 404.738281 396.464844 405.457031 C 396.464844 406.53125 396.105469 407.070312 395.03125 407.785156 C 394.136719 408.144531 393.777344 408.144531 393.238281 408.144531 Z M 333.5625 366.191406 C 338.9375 370.316406 343.777344 377.488281 345.210938 380.535156 C 348.617188 386.273438 351.664062 393.804688 352.378906 399.898438 C 357.398438 397.566406 364.566406 396.492188 371.019531 396.492188 C 377.46875 396.492188 384.636719 397.566406 389.65625 399.898438 C 390.015625 394.160156 393.0625 386.988281 396.464844 381.253906 C 398.078125 378.5625 402.917969 370.675781 408.292969 366.910156 C 402.558594 362.785156 398.078125 355.257812 396.464844 352.566406 C 393.0625 346.832031 390.015625 339.660156 389.65625 333.921875 C 384.636719 336.253906 377.46875 337.328125 371.019531 337.328125 C 364.566406 337.328125 357.398438 336.253906 352.378906 333.921875 C 352.023438 339.300781 348.976562 346.113281 345.929688 351.671875 C 342.523438 357.050781 338.042969 362.785156 333.5625 366.191406 Z M 333.5625 366.191406 " fill-opacity="1" fill-rule="nonzero"/><g clip-path="url(#id4)"><path fill="#3776b8" d="M 371.375 368.703125 C 370.300781 368.703125 369.761719 368.34375 369.046875 367.269531 L 233.921875 131.691406 C 233.207031 130.257812 233.5625 129.003906 235 128.285156 C 236.433594 127.566406 237.6875 127.925781 238.402344 129.359375 L 373.527344 364.9375 C 374.242188 366.371094 373.886719 367.628906 372.453125 368.34375 C 372.453125 368.703125 371.734375 368.703125 371.375 368.703125 Z M 371.375 368.703125 " fill-opacity="1" fill-rule="nonzero"/></g><path fill="#3776b8" d="M 371.375 369.957031 L 100.769531 368.523438 C 99.335938 368.523438 98.441406 367.089844 98.441406 365.835938 C 98.441406 364.398438 99.515625 363.144531 101.128906 363.144531 L 371.734375 363.863281 C 373.167969 363.863281 374.0625 365.476562 374.0625 366.910156 C 374.0625 368.34375 372.808594 369.957031 371.375 369.957031 Z M 371.375 369.957031 " fill-opacity="1" fill-rule="nonzero"/><g clip-path="url(#id5)"><path fill="#3776b8" d="M 225.320312 622.566406 C 224.960938 622.566406 224.246094 622.566406 223.886719 622.210938 C 222.453125 621.492188 222.273438 619.878906 222.8125 618.804688 L 369.046875 364.9375 C 369.761719 363.503906 371.375 363.324219 372.453125 363.863281 C 373.886719 364.578125 374.0625 366.191406 373.527344 367.269531 L 227.472656 621.671875 C 227.113281 622.210938 226.039062 622.566406 225.320312 622.566406 Z M 225.320312 622.566406 " fill-opacity="1" fill-rule="nonzero"/></g><path fill="#3776b8" d="M 510.621094 610.375 C 509.546875 610.375 509.007812 610.019531 508.292969 608.941406 L 369.40625 367.628906 C 368.6875 366.191406 369.046875 364.9375 370.480469 364.222656 C 371.914062 363.503906 373.167969 363.863281 373.886719 365.296875 L 512.953125 606.613281 C 513.667969 608.046875 513.308594 609.300781 511.875 610.019531 C 511.339844 610.019531 510.980469 610.375 510.621094 610.375 Z M 510.621094 610.375 " fill-opacity="1" fill-rule="nonzero"/><path fill="#3776b8" d="M 648.792969 369.957031 L 371.375 368.882812 C 369.941406 368.882812 369.046875 367.269531 369.046875 365.835938 C 369.046875 364.398438 370.121094 362.785156 371.734375 362.785156 L 649.152344 363.863281 C 650.585938 363.863281 651.480469 365.476562 651.480469 366.910156 C 651.480469 368.34375 650.40625 369.957031 648.792969 369.957031 Z M 648.792969 369.957031 " fill-opacity="1" fill-rule="nonzero"/><path fill="#3776b8" d="M 371.375 368.703125 C 371.019531 368.703125 370.300781 368.703125 369.941406 368.34375 C 368.507812 367.628906 368.328125 366.015625 368.867188 364.9375 L 503.453125 129.359375 C 504.171875 127.925781 505.78125 127.746094 506.859375 128.285156 C 508.292969 129.003906 508.472656 130.617188 507.933594 131.691406 L 373.886719 367.269531 C 373.167969 368.34375 372.453125 368.703125 371.375 368.703125 Z M 371.375 368.703125 " fill-opacity="1" fill-rule="nonzero"/></svg>