<svg xmlns="http://www.w3.org/2000/svg" xmlns:xlink="http://www.w3.org/1999/xlink" width="1000" zoomAndPan="magnify" viewBox="0 0 750 749.999995" height="1000" preserveAspectRatio="xMidYMid meet" version="1.0"><defs><clipPath id="id1"><path d="M 298 241.089844 L 375 241.089844 L 375 372 L 298 372 Z M 298 241.089844 " clip-rule="nonzero"/></clipPath><clipPath id="id2"><path d="M 292 368 L 375 368 L 375 508.839844 L 292 508.839844 Z M 292 368 " clip-rule="nonzero"/></clipPath><clipPath id="id3"><path d="M 371 241.089844 L 448 241.089844 L 448 372 L 371 372 Z M 371 241.089844 " clip-rule="nonzero"/></clipPath><clipPath id="id4"><path d="M 122 121.359375 L 628.359375 121.359375 L 628.359375 628.359375 L 122 628.359375 Z M 122 121.359375 " clip-rule="nonzero"/></clipPath></defs><path fill="#f4f4f4" d="M 440.085938 487.699219 C 439.503906 487.699219 439.210938 487.507812 438.824219 486.925781 C 431.0625 473.445312 400.121094 467.625 373.058594 467.625 C 345.804688 467.625 315.054688 473.734375 307.296875 486.925781 C 306.90625 487.699219 306.035156 487.796875 305.453125 487.507812 C 305.066406 487.3125 304.675781 486.730469 304.675781 486.246094 C 304.675781 486.050781 304.675781 485.664062 304.871094 485.46875 C 312.632812 471.988281 302.253906 441.832031 288.480469 417.878906 C 272.085938 390.046875 252.203125 371.136719 238.914062 371.136719 C 238.136719 371.136719 237.457031 370.554688 237.457031 369.679688 C 237.457031 368.808594 238.234375 368.421875 238.914062 368.421875 C 252.203125 368.421875 272.085938 349.414062 288.285156 321.484375 C 302.058594 297.726562 312.4375 267.664062 304.675781 254.085938 C 304.484375 253.890625 304.484375 253.699219 304.484375 253.308594 C 304.484375 252.726562 304.675781 252.4375 305.257812 252.050781 C 306.035156 251.660156 306.714844 251.855469 307.101562 252.632812 C 314.863281 266.109375 345.804688 271.929688 372.867188 271.929688 C 400.121094 271.929688 430.871094 265.820312 438.628906 252.632812 C 439.019531 251.855469 439.890625 251.757812 440.472656 252.050781 C 440.859375 252.242188 441.25 252.824219 441.25 253.308594 C 441.25 253.503906 441.25 253.890625 441.054688 254.085938 C 433.296875 267.566406 443.769531 297.917969 457.640625 321.871094 C 474.035156 350.1875 493.917969 369.195312 507.207031 369.195312 C 507.984375 369.195312 508.660156 369.777344 508.660156 370.652344 C 508.660156 371.523438 508.078125 372.105469 507.207031 372.105469 C 491.6875 372.105469 470.929688 396.058594 457.058594 419.816406 C 440.859375 447.84375 434.363281 474.511719 441.054688 485.953125 C 441.25 486.148438 441.25 486.34375 441.25 486.730469 C 441.25 487.3125 441.054688 487.601562 440.472656 487.992188 C 440.472656 487.699219 440.277344 487.699219 440.085938 487.699219 Z M 246.285156 369.875 C 262.09375 375.597656 279.457031 397.707031 290.710938 416.8125 C 307.878906 446.292969 311.660156 467.820312 309.527344 480.136719 C 322.425781 469.082031 350.460938 464.8125 373.058594 464.8125 C 395.5625 464.8125 423.5 468.886719 436.398438 479.941406 C 433.488281 463.359375 443.769531 437.371094 455.023438 418.070312 C 471.996094 388.589844 488.777344 374.625 500.320312 370.554688 C 484.507812 365.027344 466.757812 342.527344 455.605469 323.230469 C 438.4375 293.554688 434.460938 272.027344 436.59375 259.710938 C 423.691406 270.765625 395.660156 275.03125 373.058594 275.03125 C 350.558594 274.839844 322.621094 270.765625 309.722656 259.710938 C 312.824219 276.488281 302.15625 303.15625 290.710938 322.648438 C 279.652344 342.042969 262.191406 364.152344 246.285156 369.875 Z M 246.285156 369.875 " fill-opacity="1" fill-rule="nonzero"/><path fill="#f4f4f4" d="M 426.3125 463.746094 C 425.730469 463.746094 425.4375 463.554688 425.050781 462.972656 C 419.714844 453.757812 398.859375 447.648438 372.964844 447.648438 C 347.066406 447.648438 326.210938 453.757812 320.875 462.972656 C 320.488281 463.746094 319.613281 463.84375 319.03125 463.554688 C 318.644531 463.359375 318.257812 462.777344 318.257812 462.292969 C 318.257812 462.097656 318.257812 461.710938 318.449219 461.515625 C 323.785156 452.304688 318.449219 430.96875 305.550781 408.472656 C 292.648438 386.167969 277.03125 371.039062 266.460938 371.039062 C 265.683594 371.039062 265.003906 370.457031 265.003906 369.582031 C 265.003906 368.710938 265.585938 368.128906 266.460938 368.128906 C 276.9375 368.128906 292.648438 353.195312 305.550781 330.695312 C 318.644531 308.003906 323.785156 286.863281 318.449219 277.652344 C 318.257812 277.457031 318.257812 277.261719 318.257812 276.875 C 318.257812 276.292969 318.449219 276.003906 319.03125 275.613281 C 319.808594 275.226562 320.488281 275.421875 320.875 276.195312 C 326.210938 285.410156 347.066406 291.519531 372.964844 291.519531 C 398.859375 291.519531 419.714844 285.410156 425.050781 276.195312 C 425.4375 275.421875 426.3125 275.324219 426.894531 275.613281 C 427.28125 275.808594 427.667969 276.390625 427.667969 276.875 C 427.667969 277.070312 427.667969 277.457031 427.476562 277.652344 C 422.140625 286.863281 427.476562 308.585938 440.765625 331.472656 C 453.664062 353.777344 469.28125 368.710938 479.660156 368.710938 C 480.4375 368.710938 481.113281 369.292969 481.113281 370.164062 C 481.113281 371.039062 480.53125 371.621094 479.660156 371.621094 C 469.183594 371.621094 453.277344 386.75 440.472656 409.054688 C 427.667969 431.355469 422.429688 452.304688 427.765625 461.515625 C 427.960938 461.710938 427.960938 461.90625 427.960938 462.292969 C 427.960938 462.875 427.765625 463.164062 427.183594 463.554688 C 426.894531 463.554688 426.503906 463.746094 426.3125 463.746094 Z M 373.058594 444.933594 C 390.519531 444.933594 412.441406 448.039062 423.011719 456.570312 C 420.976562 443.285156 429.316406 422.824219 437.949219 407.984375 C 446.777344 392.859375 460.453125 375.402344 472.96875 370.554688 C 460.648438 365.609375 446.972656 348.441406 438.339844 333.316406 C 429.316406 317.796875 420.878906 296.851562 423.011719 283.179688 C 412.539062 291.617188 390.617188 294.816406 373.058594 294.816406 C 355.503906 294.816406 333.679688 291.710938 323.105469 283.179688 C 325.144531 296.65625 316.800781 317.21875 307.976562 332.539062 C 299.148438 347.472656 285.664062 364.734375 273.152344 369.777344 C 285.664062 374.722656 299.34375 392.082031 307.976562 407.210938 C 316.800781 422.53125 325.144531 443.089844 323.105469 456.570312 C 333.679688 448.132812 355.601562 444.933594 373.058594 444.933594 Z M 373.058594 444.933594 " fill-opacity="1" fill-rule="nonzero"/><path fill="#f4f4f4" d="M 412.441406 441.054688 C 411.859375 441.054688 411.566406 440.859375 411.179688 440.277344 C 407.300781 433.492188 391.972656 429.03125 372.867188 429.03125 C 353.757812 429.03125 338.433594 433.585938 334.550781 440.277344 C 334.164062 441.054688 333.292969 441.152344 332.710938 440.859375 C 332.320312 440.667969 331.933594 440.085938 331.933594 439.601562 C 331.933594 439.40625 331.933594 439.019531 332.128906 438.824219 C 336.007812 432.035156 331.933594 415.257812 322.039062 398.289062 C 312.632812 382.09375 301.378906 371.230469 293.8125 371.230469 C 293.039062 371.230469 292.359375 370.652344 292.359375 369.777344 C 292.359375 368.90625 292.941406 368.324219 293.8125 368.324219 C 301.378906 368.324219 313.019531 357.269531 322.332031 341.074219 C 332.128906 324.296875 336.007812 308.683594 332.128906 301.894531 C 332.128906 301.699219 332.128906 301.507812 332.128906 301.3125 C 332.128906 300.730469 332.320312 300.441406 332.902344 300.050781 C 333.679688 299.664062 334.359375 299.859375 334.746094 300.632812 C 338.625 307.421875 353.953125 311.882812 373.058594 311.882812 C 392.167969 311.882812 407.492188 307.324219 411.375 300.632812 C 411.761719 299.859375 412.636719 299.761719 413.214844 300.050781 C 413.605469 300.246094 413.992188 300.828125 413.992188 301.3125 C 413.992188 301.507812 413.992188 301.894531 413.796875 302.089844 C 409.917969 308.878906 413.796875 324.878906 423.789062 341.847656 C 433.199219 358.042969 444.644531 369.097656 452.113281 369.097656 C 452.886719 369.097656 453.566406 369.679688 453.566406 370.554688 C 453.566406 371.425781 452.984375 372.007812 452.113281 372.007812 C 444.546875 372.007812 433.296875 382.871094 423.789062 399.257812 C 413.992188 416.035156 410.015625 432.617188 413.796875 439.40625 C 413.992188 439.601562 413.992188 439.792969 413.992188 440.183594 C 413.992188 440.765625 413.796875 441.054688 413.214844 441.441406 C 413.023438 440.957031 412.636719 441.054688 412.441406 441.054688 Z M 373.058594 426.410156 C 385.765625 426.410156 401.382812 428.640625 409.726562 434.65625 C 408.65625 424.375 414.867188 409.054688 421.558594 397.609375 C 427.863281 386.75 437.367188 374.625 446.390625 370.554688 C 437.367188 366.480469 427.574219 354.164062 421.363281 343.304688 C 414.769531 332.054688 408.65625 316.925781 409.726562 306.648438 C 401.578125 312.5625 385.765625 314.890625 373.058594 314.890625 C 360.351562 314.890625 344.738281 312.660156 336.394531 306.648438 C 337.460938 316.730469 331.449219 331.667969 324.949219 342.914062 C 318.644531 353.777344 308.945312 366.09375 299.730469 370.164062 C 308.558594 374.238281 317.964844 385.972656 324.367188 397.222656 C 330.964844 408.859375 337.460938 424.277344 336.296875 434.75 C 344.542969 428.546875 360.351562 426.410156 373.058594 426.410156 Z M 373.058594 426.410156 " fill-opacity="1" fill-rule="nonzero"/><path fill="#f4f4f4" d="M 398.667969 417.003906 C 398.085938 417.003906 397.792969 416.8125 397.40625 416.230469 C 394.980469 411.960938 384.894531 409.246094 372.867188 409.246094 C 360.742188 409.246094 350.75 412.15625 348.324219 416.230469 C 347.9375 417.003906 347.066406 417.101562 346.484375 416.8125 C 346.09375 416.617188 345.707031 416.035156 345.707031 415.550781 C 345.707031 415.355469 345.707031 414.96875 345.902344 414.773438 C 348.324219 410.3125 345.707031 399.644531 339.304688 388.589844 C 333.195312 378.3125 326.015625 371.230469 321.457031 371.230469 C 320.683594 371.230469 320.003906 370.652344 320.003906 369.777344 C 320.003906 368.90625 320.585938 368.324219 321.457031 368.324219 C 326.210938 368.324219 333.777344 361.148438 339.691406 350.671875 C 345.804688 340.199219 348.324219 329.824219 345.996094 325.652344 C 345.804688 325.460938 345.804688 325.265625 345.804688 324.878906 C 345.804688 324.296875 345.996094 324.003906 346.578125 323.617188 C 347.355469 323.230469 348.035156 323.421875 348.421875 324.199219 C 350.847656 328.464844 360.933594 331.179688 372.964844 331.179688 C 385.085938 331.179688 395.078125 328.273438 397.503906 324.199219 C 397.890625 323.421875 398.765625 323.328125 399.347656 323.617188 C 399.734375 323.8125 400.121094 324.394531 400.121094 324.878906 C 400.121094 325.070312 400.121094 325.460938 399.929688 325.652344 C 397.503906 329.921875 400.121094 340.394531 406.328125 351.253906 C 412.441406 361.730469 419.617188 368.710938 424.371094 368.710938 C 425.148438 368.710938 425.828125 369.292969 425.828125 370.164062 C 425.828125 371.039062 425.246094 371.621094 424.371094 371.621094 C 419.617188 371.621094 412.441406 378.601562 406.328125 389.074219 C 400.023438 399.9375 397.503906 410.410156 399.929688 414.675781 C 400.121094 414.871094 400.121094 415.066406 400.121094 415.453125 C 400.121094 416.035156 399.929688 416.324219 399.347656 416.714844 C 399.25 417.003906 399.054688 417.003906 398.667969 417.003906 Z M 372.867188 406.433594 C 380.820312 406.433594 390.519531 407.695312 396.242188 411.378906 C 396.046875 404.59375 399.929688 395.183594 404.003906 388.007812 C 408.074219 381.027344 413.992188 373.460938 419.617188 370.554688 C 413.894531 367.644531 408.171875 360.082031 404.003906 353.097656 C 399.929688 345.921875 396.046875 336.515625 396.242188 329.726562 C 390.714844 333.21875 380.917969 334.671875 372.867188 334.671875 C 364.914062 334.671875 355.210938 333.410156 349.488281 329.726562 C 349.683594 336.320312 345.996094 345.535156 341.925781 352.515625 C 337.851562 359.304688 331.933594 367.0625 326.113281 370.164062 C 331.640625 373.074219 337.558594 380.445312 341.632812 387.523438 C 345.902344 394.894531 349.878906 404.496094 349.585938 411.476562 C 355.210938 407.792969 364.914062 406.433594 372.867188 406.433594 Z M 372.867188 406.433594 " fill-opacity="1" fill-rule="nonzero"/><path fill="#f4f4f4" d="M 384.894531 392.859375 C 384.3125 392.859375 384.019531 392.664062 383.632812 392.082031 C 382.757812 390.433594 378.105469 389.171875 372.769531 389.171875 C 367.433594 389.171875 363.167969 390.433594 362.097656 392.277344 C 361.710938 393.050781 360.839844 393.148438 360.257812 392.859375 C 359.867188 392.664062 359.480469 392.082031 359.480469 391.597656 C 359.480469 391.402344 359.480469 391.015625 359.675781 390.820312 C 360.742188 388.980469 359.285156 384.03125 356.570312 378.992188 C 353.660156 374.042969 350.460938 371.230469 349.003906 371.230469 C 348.230469 371.230469 347.550781 370.652344 347.550781 369.777344 C 347.550781 368.90625 348.132812 368.324219 349.003906 368.324219 C 351.042969 368.324219 354.339844 365.027344 356.957031 360.371094 C 359.578125 355.8125 360.839844 351.351562 359.867188 349.703125 C 359.675781 349.511719 359.675781 349.316406 359.675781 348.929688 C 359.675781 348.347656 359.867188 348.054688 360.449219 347.667969 C 361.226562 347.28125 361.90625 347.472656 362.292969 348.25 C 363.167969 349.898438 367.820312 351.160156 373.15625 351.160156 C 378.492188 351.160156 382.953125 349.898438 384.019531 348.25 C 384.410156 347.472656 385.28125 347.375 385.863281 347.667969 C 386.25 347.859375 386.640625 348.441406 386.640625 348.929688 C 386.640625 349.121094 386.640625 349.511719 386.445312 349.703125 C 385.574219 351.351562 386.832031 356.296875 389.355469 360.953125 C 392.265625 366.09375 395.464844 368.710938 397.117188 368.710938 C 397.890625 368.710938 398.570312 369.292969 398.570312 370.164062 C 398.570312 371.039062 397.988281 371.621094 397.117188 371.621094 C 395.464844 371.621094 392.363281 374.335938 389.355469 379.378906 C 386.640625 383.9375 385.28125 388.785156 386.445312 390.628906 C 386.640625 390.820312 386.640625 391.015625 386.640625 391.402344 C 386.640625 391.984375 386.445312 392.277344 385.863281 392.664062 C 385.378906 392.859375 385.183594 392.859375 384.894531 392.859375 Z M 352.59375 370.164062 C 355.503906 372.394531 358.121094 376.273438 358.898438 377.921875 C 360.742188 381.027344 362.390625 385.101562 362.777344 388.398438 C 365.496094 387.136719 369.375 386.554688 372.867188 386.554688 C 376.359375 386.554688 380.238281 387.136719 382.953125 388.398438 C 383.148438 385.292969 384.796875 381.414062 386.640625 378.3125 C 387.511719 376.855469 390.132812 372.589844 393.042969 370.554688 C 389.9375 368.324219 387.511719 364.25 386.640625 362.796875 C 384.796875 359.691406 383.148438 355.8125 382.953125 352.710938 C 380.238281 353.96875 376.359375 354.550781 372.867188 354.550781 C 369.375 354.550781 365.496094 353.96875 362.777344 352.710938 C 362.585938 355.621094 360.933594 359.304688 359.285156 362.3125 C 357.445312 365.21875 355.019531 368.324219 352.59375 370.164062 Z M 352.59375 370.164062 " fill-opacity="1" fill-rule="nonzero"/><g clip-path="url(#id1)"><path fill="#f4f4f4" d="M 373.058594 371.523438 C 372.476562 371.523438 372.1875 371.328125 371.800781 370.746094 L 298.664062 243.320312 C 298.273438 242.546875 298.46875 241.867188 299.246094 241.480469 C 300.019531 241.089844 300.699219 241.285156 301.089844 242.0625 L 374.222656 369.488281 C 374.613281 370.261719 374.417969 370.941406 373.640625 371.328125 C 373.640625 371.523438 373.253906 371.523438 373.058594 371.523438 Z M 373.058594 371.523438 " fill-opacity="1" fill-rule="nonzero"/></g><path fill="#f4f4f4" d="M 373.058594 372.203125 L 226.59375 371.425781 C 225.820312 371.425781 225.332031 370.652344 225.332031 369.972656 C 225.332031 369.195312 225.914062 368.515625 226.789062 368.515625 L 373.253906 368.90625 C 374.03125 368.90625 374.515625 369.777344 374.515625 370.554688 C 374.515625 371.328125 373.835938 372.203125 373.058594 372.203125 Z M 373.058594 372.203125 " fill-opacity="1" fill-rule="nonzero"/><g clip-path="url(#id2)"><path fill="#f4f4f4" d="M 294.007812 508.839844 C 293.8125 508.839844 293.425781 508.839844 293.230469 508.648438 C 292.457031 508.257812 292.359375 507.386719 292.648438 506.804688 L 371.800781 369.488281 C 372.1875 368.710938 373.058594 368.613281 373.640625 368.90625 C 374.417969 369.292969 374.515625 370.164062 374.222656 370.746094 L 295.171875 508.355469 C 294.976562 508.648438 294.394531 508.839844 294.007812 508.839844 Z M 294.007812 508.839844 " fill-opacity="1" fill-rule="nonzero"/></g><path fill="#f4f4f4" d="M 448.425781 502.246094 C 447.84375 502.246094 447.554688 502.050781 447.164062 501.472656 L 371.992188 370.941406 C 371.605469 370.164062 371.800781 369.488281 372.574219 369.097656 C 373.351562 368.710938 374.03125 368.90625 374.417969 369.679688 L 449.6875 500.210938 C 450.074219 500.984375 449.882812 501.664062 449.105469 502.050781 C 448.816406 502.050781 448.621094 502.246094 448.425781 502.246094 Z M 448.425781 502.246094 " fill-opacity="1" fill-rule="nonzero"/><path fill="#f4f4f4" d="M 523.210938 372.203125 L 373.058594 371.621094 C 372.285156 371.621094 371.800781 370.746094 371.800781 369.972656 C 371.800781 369.195312 372.382812 368.324219 373.253906 368.324219 L 523.40625 368.90625 C 524.179688 368.90625 524.667969 369.777344 524.667969 370.554688 C 524.667969 371.328125 524.085938 372.203125 523.210938 372.203125 Z M 523.210938 372.203125 " fill-opacity="1" fill-rule="nonzero"/><g clip-path="url(#id3)"><path fill="#f4f4f4" d="M 373.058594 371.523438 C 372.867188 371.523438 372.476562 371.523438 372.285156 371.328125 C 371.507812 370.941406 371.410156 370.070312 371.703125 369.488281 L 444.546875 242.0625 C 444.933594 241.285156 445.808594 241.1875 446.390625 241.480469 C 447.164062 241.867188 447.261719 242.738281 446.972656 243.320312 L 374.417969 370.746094 C 374.03125 371.328125 373.640625 371.523438 373.058594 371.523438 Z M 373.058594 371.523438 " fill-opacity="1" fill-rule="nonzero"/></g><path fill="#ffffff" d="M 375.222656 128.953125 C 239.410156 128.953125 129.316406 239.046875 129.316406 374.859375 C 129.316406 419.066406 141.039062 460.515625 161.457031 496.359375 L 129.585938 611.597656 C 128.085938 617.011719 133.0625 621.996094 138.480469 620.492188 L 253.714844 588.617188 C 289.566406 609.042969 331.015625 620.765625 375.222656 620.765625 C 511.035156 620.765625 621.128906 510.671875 621.128906 374.859375 C 621.128906 239.046875 511.035156 128.953125 375.222656 128.953125 Z M 375.222656 128.953125 " fill-opacity="1" fill-rule="nonzero"/><path fill="#4195b2" d="M 375.222656 172.351562 C 263.378906 172.351562 172.710938 263.015625 172.710938 374.859375 C 172.710938 419.136719 186.960938 460.058594 211.066406 493.386719 L 193.613281 556.46875 L 256.703125 539.015625 C 290.03125 563.125 330.953125 577.371094 375.222656 577.371094 C 487.066406 577.371094 577.734375 486.703125 577.734375 374.859375 C 577.734375 263.015625 487.066406 172.351562 375.222656 172.351562 Z M 375.222656 172.351562 " fill-opacity="1" fill-rule="nonzero"/><path fill="#ffffff" d="M 316.609375 273.238281 C 312.210938 263.292969 307.570312 263.097656 303.359375 262.953125 C 299.925781 262.808594 296.011719 262.808594 292.089844 262.808594 C 288.222656 262.808594 281.84375 264.277344 276.476562 270.25 C 271.058594 276.171875 255.878906 290.574219 255.878906 319.863281 C 255.878906 349.105469 276.960938 377.414062 279.863281 381.378906 C 282.8125 385.296875 320.523438 447.300781 380.183594 471.15625 C 429.792969 490.941406 439.894531 487.023438 450.628906 486.046875 C 461.414062 485.019531 485.394531 471.644531 490.277344 457.738281 C 495.160156 443.878906 495.160156 431.976562 493.710938 429.480469 C 492.257812 426.984375 488.347656 425.511719 482.445312 422.523438 C 476.59375 419.535156 447.726562 405.1875 442.3125 403.175781 C 436.945312 401.214844 433.023438 400.238281 429.113281 406.164062 C 425.199219 412.085938 413.929688 425.511719 410.496094 429.472656 C 407.058594 433.445312 403.675781 433.929688 397.78125 430.992188 C 391.929688 428.003906 373.023438 421.734375 350.589844 401.460938 C 333.136719 385.695312 321.339844 366.246094 317.90625 360.273438 C 314.46875 354.347656 317.519531 351.117188 320.464844 348.128906 C 323.125 345.480469 326.367188 341.171875 329.308594 337.699219 C 332.210938 334.222656 333.179688 331.777344 335.160156 327.804688 C 337.09375 323.835938 336.128906 320.363281 334.675781 317.375 C 333.246094 314.375 321.832031 284.988281 316.609375 273.238281 Z M 316.609375 273.238281 " fill-opacity="1" fill-rule="nonzero"/><g clip-path="url(#id4)"><path fill="#00004a" d="M 136.484375 628.007812 C 132.714844 628.007812 129.097656 626.53125 126.328125 623.753906 C 122.589844 620.023438 121.207031 614.757812 122.613281 609.671875 L 153.699219 497.308594 C 133.003906 459.945312 122.085938 417.671875 122.085938 374.859375 C 122.085938 235.28125 235.640625 121.722656 375.222656 121.722656 C 514.804688 121.722656 628.359375 235.28125 628.359375 374.859375 C 628.359375 514.441406 514.804688 628 375.222656 628 C 332.414062 628 290.140625 617.078125 252.777344 596.386719 L 140.410156 627.472656 C 139.109375 627.832031 137.785156 628.007812 136.484375 628.007812 Z M 253.722656 581.394531 C 254.96875 581.394531 256.203125 581.710938 257.304688 582.339844 C 293.125 602.75 333.902344 613.535156 375.222656 613.535156 C 506.824219 613.535156 613.894531 506.464844 613.894531 374.859375 C 613.894531 243.257812 506.824219 136.1875 375.222656 136.1875 C 243.621094 136.1875 136.550781 243.257812 136.550781 374.859375 C 136.550781 416.179688 147.332031 456.957031 167.742188 492.78125 C 168.699219 494.449219 168.945312 496.433594 168.429688 498.292969 L 136.554688 613.535156 L 251.800781 581.660156 C 252.429688 581.472656 253.078125 581.394531 253.722656 581.394531 Z M 253.722656 581.394531 " fill-opacity="1" fill-rule="nonzero"/></g><path fill="#00004a" d="M 438.636719 490.640625 C 428.425781 490.640625 412.527344 487.941406 378.851562 474.519531 C 342.777344 460.097656 307.035156 428.4375 278.226562 385.390625 C 277.605469 384.472656 277.191406 383.84375 276.976562 383.554688 C 269.417969 373.226562 252.269531 346.890625 252.269531 319.863281 C 252.269531 290.921875 266.617188 275.527344 272.753906 268.953125 L 273.808594 267.8125 C 280.792969 260.03125 288.925781 259.191406 292.089844 259.191406 C 296.070312 259.191406 300.03125 259.191406 303.511719 259.34375 C 309.09375 259.539062 314.988281 260.667969 319.914062 271.78125 C 323.011719 278.746094 328.160156 291.605469 332.296875 301.933594 C 334.921875 308.488281 337.402344 314.679688 337.945312 315.800781 C 339.464844 318.9375 341.164062 323.761719 338.421875 329.390625 L 337.535156 331.207031 C 336.015625 334.316406 334.8125 336.773438 332.09375 340.023438 C 331.117188 341.171875 330.136719 342.394531 329.136719 343.617188 C 327.074219 346.160156 324.941406 348.792969 323.019531 350.695312 C 320.125 353.632812 319.019531 354.980469 321.042969 358.464844 C 325.152344 365.617188 336.476562 383.84375 353.019531 398.777344 C 371.300781 415.304688 386.917969 422.191406 395.308594 425.886719 C 397.027344 426.636719 398.417969 427.261719 399.429688 427.78125 C 404.355469 430.238281 405.742188 429.453125 407.769531 427.117188 C 411.355469 422.964844 422.378906 409.808594 426.097656 404.175781 C 431.824219 395.496094 438.882812 398.085938 443.546875 399.785156 C 449.464844 401.976562 479.492188 416.960938 484.085938 419.304688 L 487.28125 420.886719 C 491.824219 423.109375 495.109375 424.707031 496.832031 427.664062 C 499.1875 431.738281 498.488281 445.285156 493.675781 458.945312 C 488.085938 474.859375 462.265625 488.578125 450.960938 489.65625 C 449.941406 489.75 448.949219 489.859375 447.921875 489.988281 C 445.203125 490.292969 442.273438 490.640625 438.636719 490.640625 Z M 292.308594 266.417969 C 290.492188 266.417969 284.589844 266.625 279.175781 272.65625 L 278.046875 273.878906 C 272.019531 280.339844 259.503906 293.769531 259.503906 319.863281 C 259.503906 344.757812 275.675781 369.53125 282.625 379.035156 C 283.007812 379.539062 283.507812 380.277344 284.238281 381.363281 C 312.242188 423.21875 346.796875 453.914062 381.535156 467.796875 C 425.496094 485.332031 437.472656 483.921875 447.09375 482.792969 C 448.175781 482.652344 449.238281 482.539062 450.304688 482.4375 C 459.648438 481.546875 482.488281 468.992188 486.871094 456.53125 C 491.382812 443.714844 491.320312 433.066406 490.539062 431.1875 C 489.972656 430.234375 487.269531 428.910156 484.121094 427.382812 L 480.816406 425.742188 C 473.988281 422.253906 446.070312 408.414062 441.058594 406.5625 C 435.84375 404.664062 434.492188 404.59375 432.136719 408.152344 C 427.910156 414.554688 415.976562 428.683594 413.242188 431.839844 C 407.398438 438.585938 401.042969 436.664062 396.183594 434.226562 C 395.21875 433.742188 393.953125 433.183594 392.398438 432.496094 C 384.261719 428.910156 367.332031 421.453125 348.1875 404.136719 C 330.871094 388.5 319.070312 369.507812 314.792969 362.074219 C 309.933594 353.683594 315.128906 348.410156 317.910156 345.589844 C 319.640625 343.871094 321.59375 341.453125 323.539062 339.050781 C 324.566406 337.785156 325.585938 336.519531 326.578125 335.355469 C 328.71875 332.796875 329.648438 330.894531 331.054688 328.015625 L 331.957031 326.179688 C 333.019531 323.996094 332.875 321.882812 331.449219 318.9375 C 330.828125 317.652344 328.917969 312.90625 325.601562 304.617188 C 321.484375 294.339844 316.355469 281.554688 313.320312 274.703125 L 313.320312 274.691406 C 309.820312 266.785156 306.917969 266.691406 303.246094 266.5625 C 299.882812 266.417969 296.105469 266.417969 292.308594 266.417969 Z M 292.308594 266.417969 " fill-opacity="1" fill-rule="nonzero"/><path fill="#00004a" d="M 375.222656 577.371094 C 334.019531 577.371094 294.398438 565.046875 260.527344 541.707031 L 194.582031 559.949219 C 193.308594 560.308594 191.980469 559.941406 191.0625 559.023438 C 190.140625 558.105469 189.78125 556.757812 190.136719 555.5 L 208.367188 489.5625 C 185.035156 455.691406 172.710938 416.070312 172.710938 374.859375 C 172.710938 263.199219 263.558594 172.351562 375.222656 172.351562 C 393.839844 172.351562 412.425781 174.933594 430.449219 180.039062 C 432.375 180.582031 433.496094 182.585938 432.953125 184.5 C 432.410156 186.417969 430.386719 187.539062 428.488281 187.003906 C 411.09375 182.078125 393.171875 179.582031 375.222656 179.582031 C 267.542969 179.582031 179.945312 267.183594 179.945312 374.859375 C 179.945312 415.144531 192.152344 453.863281 215.269531 486.8125 C 215.890625 487.695312 216.078125 488.808594 215.789062 489.859375 L 198.792969 551.285156 L 260.226562 534.289062 C 261.257812 533.984375 262.378906 534.191406 263.269531 534.808594 C 296.230469 557.929688 334.945312 570.140625 375.222656 570.140625 C 482.898438 570.140625 570.5 482.539062 570.5 374.859375 C 570.5 322.925781 550.328125 274.03125 513.695312 237.183594 C 512.292969 235.765625 512.292969 233.472656 513.710938 232.070312 C 515.128906 230.664062 517.421875 230.664062 518.824219 232.082031 C 556.808594 270.300781 577.734375 321.007812 577.734375 374.859375 C 577.734375 486.523438 486.886719 577.371094 375.222656 577.371094 Z M 375.222656 577.371094 " fill-opacity="1" fill-rule="nonzero"/><path fill="#00004a" d="M 472.863281 205.222656 C 472.253906 205.222656 471.644531 205.070312 471.082031 204.757812 C 464.117188 200.816406 456.949219 197.324219 449.78125 194.359375 C 447.9375 193.597656 447.0625 191.488281 447.824219 189.636719 C 448.574219 187.796875 450.699219 186.902344 452.546875 187.675781 C 459.980469 190.757812 467.421875 194.386719 474.640625 198.460938 C 476.375 199.441406 476.992188 201.648438 476.007812 203.390625 C 475.347656 204.554688 474.121094 205.222656 472.863281 205.222656 Z M 501.792969 225.046875 C 500.980469 225.046875 500.164062 224.777344 499.492188 224.222656 C 495.015625 220.519531 490.234375 216.9375 485.285156 213.5625 C 483.636719 212.433594 483.21875 210.183594 484.339844 208.535156 C 485.46875 206.886719 487.722656 206.480469 489.367188 207.585938 C 494.488281 211.082031 499.449219 214.804688 504.089844 218.636719 C 505.632812 219.910156 505.847656 222.1875 504.574219 223.730469 C 503.867188 224.605469 502.832031 225.046875 501.792969 225.046875 Z M 501.792969 225.046875 " fill-opacity="1" fill-rule="nonzero"/></svg>