<svg xmlns="http://www.w3.org/2000/svg" xmlns:xlink="http://www.w3.org/1999/xlink" width="1000" zoomAndPan="magnify" viewBox="0 0 750 749.999995" height="1000" preserveAspectRatio="xMidYMid meet" version="1.0"><defs><clipPath id="id1"><path d="M 298 241.089844 L 375 241.089844 L 375 372 L 298 372 Z M 298 241.089844 " clip-rule="nonzero"/></clipPath><clipPath id="id2"><path d="M 292 368 L 375 368 L 375 508.839844 L 292 508.839844 Z M 292 368 " clip-rule="nonzero"/></clipPath><clipPath id="id3"><path d="M 371 241.089844 L 448 241.089844 L 448 372 L 371 372 Z M 371 241.089844 " clip-rule="nonzero"/></clipPath><clipPath id="id4"><path d="M 112.277344 399 L 634 399 L 634 599.65625 L 112.277344 599.65625 Z M 112.277344 399 " clip-rule="nonzero"/></clipPath></defs><path fill="#f4f4f4" d="M 440.085938 487.699219 C 439.503906 487.699219 439.210938 487.507812 438.824219 486.925781 C 431.0625 473.445312 400.121094 467.625 373.058594 467.625 C 345.804688 467.625 315.054688 473.734375 307.296875 486.925781 C 306.90625 487.699219 306.035156 487.796875 305.453125 487.507812 C 305.066406 487.3125 304.675781 486.730469 304.675781 486.246094 C 304.675781 486.050781 304.675781 485.664062 304.871094 485.46875 C 312.632812 471.988281 302.253906 441.832031 288.480469 417.878906 C 272.085938 390.046875 252.203125 371.136719 238.914062 371.136719 C 238.136719 371.136719 237.457031 370.554688 237.457031 369.679688 C 237.457031 368.808594 238.234375 368.421875 238.914062 368.421875 C 252.203125 368.421875 272.085938 349.414062 288.285156 321.484375 C 302.058594 297.726562 312.4375 267.664062 304.675781 254.085938 C 304.484375 253.890625 304.484375 253.699219 304.484375 253.308594 C 304.484375 252.726562 304.675781 252.4375 305.257812 252.050781 C 306.035156 251.660156 306.714844 251.855469 307.101562 252.632812 C 314.863281 266.109375 345.804688 271.929688 372.867188 271.929688 C 400.121094 271.929688 430.871094 265.820312 438.628906 252.632812 C 439.019531 251.855469 439.890625 251.757812 440.472656 252.050781 C 440.859375 252.242188 441.25 252.824219 441.25 253.308594 C 441.25 253.503906 441.25 253.890625 441.054688 254.085938 C 433.296875 267.566406 443.769531 297.917969 457.640625 321.871094 C 474.035156 350.1875 493.917969 369.195312 507.207031 369.195312 C 507.984375 369.195312 508.660156 369.777344 508.660156 370.652344 C 508.660156 371.523438 508.078125 372.105469 507.207031 372.105469 C 491.6875 372.105469 470.929688 396.058594 457.058594 419.816406 C 440.859375 447.84375 434.363281 474.511719 441.054688 485.953125 C 441.25 486.148438 441.25 486.34375 441.25 486.730469 C 441.25 487.3125 441.054688 487.601562 440.472656 487.992188 C 440.472656 487.699219 440.277344 487.699219 440.085938 487.699219 Z M 246.285156 369.875 C 262.09375 375.597656 279.457031 397.707031 290.710938 416.8125 C 307.878906 446.292969 311.660156 467.820312 309.527344 480.136719 C 322.425781 469.082031 350.460938 464.8125 373.058594 464.8125 C 395.5625 464.8125 423.5 468.886719 436.398438 479.941406 C 433.488281 463.359375 443.769531 437.371094 455.023438 418.070312 C 471.996094 388.589844 488.777344 374.625 500.320312 370.554688 C 484.507812 365.027344 466.757812 342.527344 455.605469 323.230469 C 438.4375 293.554688 434.460938 272.027344 436.59375 259.710938 C 423.691406 270.765625 395.660156 275.03125 373.058594 275.03125 C 350.558594 274.839844 322.621094 270.765625 309.722656 259.710938 C 312.824219 276.488281 302.15625 303.15625 290.710938 322.648438 C 279.652344 342.042969 262.191406 364.152344 246.285156 369.875 Z M 246.285156 369.875 " fill-opacity="1" fill-rule="nonzero"/><path fill="#f4f4f4" d="M 426.3125 463.746094 C 425.730469 463.746094 425.4375 463.554688 425.050781 462.972656 C 419.714844 453.757812 398.859375 447.648438 372.964844 447.648438 C 347.066406 447.648438 326.210938 453.757812 320.875 462.972656 C 320.488281 463.746094 319.613281 463.84375 319.03125 463.554688 C 318.644531 463.359375 318.257812 462.777344 318.257812 462.292969 C 318.257812 462.097656 318.257812 461.710938 318.449219 461.515625 C 323.785156 452.304688 318.449219 430.96875 305.550781 408.472656 C 292.648438 386.167969 277.03125 371.039062 266.460938 371.039062 C 265.683594 371.039062 265.003906 370.457031 265.003906 369.582031 C 265.003906 368.710938 265.585938 368.128906 266.460938 368.128906 C 276.9375 368.128906 292.648438 353.195312 305.550781 330.695312 C 318.644531 308.003906 323.785156 286.863281 318.449219 277.652344 C 318.257812 277.457031 318.257812 277.261719 318.257812 276.875 C 318.257812 276.292969 318.449219 276.003906 319.03125 275.613281 C 319.808594 275.226562 320.488281 275.421875 320.875 276.195312 C 326.210938 285.410156 347.066406 291.519531 372.964844 291.519531 C 398.859375 291.519531 419.714844 285.410156 425.050781 276.195312 C 425.4375 275.421875 426.3125 275.324219 426.894531 275.613281 C 427.28125 275.808594 427.667969 276.390625 427.667969 276.875 C 427.667969 277.070312 427.667969 277.457031 427.476562 277.652344 C 422.140625 286.863281 427.476562 308.585938 440.765625 331.472656 C 453.664062 353.777344 469.28125 368.710938 479.660156 368.710938 C 480.4375 368.710938 481.113281 369.292969 481.113281 370.164062 C 481.113281 371.039062 480.53125 371.621094 479.660156 371.621094 C 469.183594 371.621094 453.277344 386.75 440.472656 409.054688 C 427.667969 431.355469 422.429688 452.304688 427.765625 461.515625 C 427.960938 461.710938 427.960938 461.90625 427.960938 462.292969 C 427.960938 462.875 427.765625 463.164062 427.183594 463.554688 C 426.894531 463.554688 426.503906 463.746094 426.3125 463.746094 Z M 373.058594 444.933594 C 390.519531 444.933594 412.441406 448.039062 423.011719 456.570312 C 420.976562 443.285156 429.316406 422.824219 437.949219 407.984375 C 446.777344 392.859375 460.453125 375.402344 472.96875 370.554688 C 460.648438 365.609375 446.972656 348.441406 438.339844 333.316406 C 429.316406 317.796875 420.878906 296.851562 423.011719 283.179688 C 412.539062 291.617188 390.617188 294.816406 373.058594 294.816406 C 355.503906 294.816406 333.679688 291.710938 323.105469 283.179688 C 325.144531 296.65625 316.800781 317.21875 307.976562 332.539062 C 299.148438 347.472656 285.664062 364.734375 273.152344 369.777344 C 285.664062 374.722656 299.34375 392.082031 307.976562 407.210938 C 316.800781 422.53125 325.144531 443.089844 323.105469 456.570312 C 333.679688 448.132812 355.601562 444.933594 373.058594 444.933594 Z M 373.058594 444.933594 " fill-opacity="1" fill-rule="nonzero"/><path fill="#f4f4f4" d="M 412.441406 441.054688 C 411.859375 441.054688 411.566406 440.859375 411.179688 440.277344 C 407.300781 433.492188 391.972656 429.03125 372.867188 429.03125 C 353.757812 429.03125 338.433594 433.585938 334.550781 440.277344 C 334.164062 441.054688 333.292969 441.152344 332.710938 440.859375 C 332.320312 440.667969 331.933594 440.085938 331.933594 439.601562 C 331.933594 439.40625 331.933594 439.019531 332.128906 438.824219 C 336.007812 432.035156 331.933594 415.257812 322.039062 398.289062 C 312.632812 382.09375 301.378906 371.230469 293.8125 371.230469 C 293.039062 371.230469 292.359375 370.652344 292.359375 369.777344 C 292.359375 368.90625 292.941406 368.324219 293.8125 368.324219 C 301.378906 368.324219 313.019531 357.269531 322.332031 341.074219 C 332.128906 324.296875 336.007812 308.683594 332.128906 301.894531 C 332.128906 301.699219 332.128906 301.507812 332.128906 301.3125 C 332.128906 300.730469 332.320312 300.441406 332.902344 300.050781 C 333.679688 299.664062 334.359375 299.859375 334.746094 300.632812 C 338.625 307.421875 353.953125 311.882812 373.058594 311.882812 C 392.167969 311.882812 407.492188 307.324219 411.375 300.632812 C 411.761719 299.859375 412.636719 299.761719 413.214844 300.050781 C 413.605469 300.246094 413.992188 300.828125 413.992188 301.3125 C 413.992188 301.507812 413.992188 301.894531 413.796875 302.089844 C 409.917969 308.878906 413.796875 324.878906 423.789062 341.847656 C 433.199219 358.042969 444.644531 369.097656 452.113281 369.097656 C 452.886719 369.097656 453.566406 369.679688 453.566406 370.554688 C 453.566406 371.425781 452.984375 372.007812 452.113281 372.007812 C 444.546875 372.007812 433.296875 382.871094 423.789062 399.257812 C 413.992188 416.035156 410.015625 432.617188 413.796875 439.40625 C 413.992188 439.601562 413.992188 439.792969 413.992188 440.183594 C 413.992188 440.765625 413.796875 441.054688 413.214844 441.441406 C 413.023438 440.957031 412.636719 441.054688 412.441406 441.054688 Z M 373.058594 426.410156 C 385.765625 426.410156 401.382812 428.640625 409.726562 434.65625 C 408.65625 424.375 414.867188 409.054688 421.558594 397.609375 C 427.863281 386.75 437.367188 374.625 446.390625 370.554688 C 437.367188 366.480469 427.574219 354.164062 421.363281 343.304688 C 414.769531 332.054688 408.65625 316.925781 409.726562 306.648438 C 401.578125 312.5625 385.765625 314.890625 373.058594 314.890625 C 360.351562 314.890625 344.738281 312.660156 336.394531 306.648438 C 337.460938 316.730469 331.449219 331.667969 324.949219 342.914062 C 318.644531 353.777344 308.945312 366.09375 299.730469 370.164062 C 308.558594 374.238281 317.964844 385.972656 324.367188 397.222656 C 330.964844 408.859375 337.460938 424.277344 336.296875 434.75 C 344.542969 428.546875 360.351562 426.410156 373.058594 426.410156 Z M 373.058594 426.410156 " fill-opacity="1" fill-rule="nonzero"/><path fill="#f4f4f4" d="M 398.667969 417.003906 C 398.085938 417.003906 397.792969 416.8125 397.40625 416.230469 C 394.980469 411.960938 384.894531 409.246094 372.867188 409.246094 C 360.742188 409.246094 350.75 412.15625 348.324219 416.230469 C 347.9375 417.003906 347.066406 417.101562 346.484375 416.8125 C 346.09375 416.617188 345.707031 416.035156 345.707031 415.550781 C 345.707031 415.355469 345.707031 414.96875 345.902344 414.773438 C 348.324219 410.3125 345.707031 399.644531 339.304688 388.589844 C 333.195312 378.3125 326.015625 371.230469 321.457031 371.230469 C 320.683594 371.230469 320.003906 370.652344 320.003906 369.777344 C 320.003906 368.90625 320.585938 368.324219 321.457031 368.324219 C 326.210938 368.324219 333.777344 361.148438 339.691406 350.671875 C 345.804688 340.199219 348.324219 329.824219 345.996094 325.652344 C 345.804688 325.460938 345.804688 325.265625 345.804688 324.878906 C 345.804688 324.296875 345.996094 324.003906 346.578125 323.617188 C 347.355469 323.230469 348.035156 323.421875 348.421875 324.199219 C 350.847656 328.464844 360.933594 331.179688 372.964844 331.179688 C 385.085938 331.179688 395.078125 328.273438 397.503906 324.199219 C 397.890625 323.421875 398.765625 323.328125 399.347656 323.617188 C 399.734375 323.8125 400.121094 324.394531 400.121094 324.878906 C 400.121094 325.070312 400.121094 325.460938 399.929688 325.652344 C 397.503906 329.921875 400.121094 340.394531 406.328125 351.253906 C 412.441406 361.730469 419.617188 368.710938 424.371094 368.710938 C 425.148438 368.710938 425.828125 369.292969 425.828125 370.164062 C 425.828125 371.039062 425.246094 371.621094 424.371094 371.621094 C 419.617188 371.621094 412.441406 378.601562 406.328125 389.074219 C 400.023438 399.9375 397.503906 410.410156 399.929688 414.675781 C 400.121094 414.871094 400.121094 415.066406 400.121094 415.453125 C 400.121094 416.035156 399.929688 416.324219 399.347656 416.714844 C 399.25 417.003906 399.054688 417.003906 398.667969 417.003906 Z M 372.867188 406.433594 C 380.820312 406.433594 390.519531 407.695312 396.242188 411.378906 C 396.046875 404.59375 399.929688 395.183594 404.003906 388.007812 C 408.074219 381.027344 413.992188 373.460938 419.617188 370.554688 C 413.894531 367.644531 408.171875 360.082031 404.003906 353.097656 C 399.929688 345.921875 396.046875 336.515625 396.242188 329.726562 C 390.714844 333.21875 380.917969 334.671875 372.867188 334.671875 C 364.914062 334.671875 355.210938 333.410156 349.488281 329.726562 C 349.683594 336.320312 345.996094 345.535156 341.925781 352.515625 C 337.851562 359.304688 331.933594 367.0625 326.113281 370.164062 C 331.640625 373.074219 337.558594 380.445312 341.632812 387.523438 C 345.902344 394.894531 349.878906 404.496094 349.585938 411.476562 C 355.210938 407.792969 364.914062 406.433594 372.867188 406.433594 Z M 372.867188 406.433594 " fill-opacity="1" fill-rule="nonzero"/><path fill="#f4f4f4" d="M 384.894531 392.859375 C 384.3125 392.859375 384.019531 392.664062 383.632812 392.082031 C 382.757812 390.433594 378.105469 389.171875 372.769531 389.171875 C 367.433594 389.171875 363.167969 390.433594 362.097656 392.277344 C 361.710938 393.050781 360.839844 393.148438 360.257812 392.859375 C 359.867188 392.664062 359.480469 392.082031 359.480469 391.597656 C 359.480469 391.402344 359.480469 391.015625 359.675781 390.820312 C 360.742188 388.980469 359.285156 384.03125 356.570312 378.992188 C 353.660156 374.042969 350.460938 371.230469 349.003906 371.230469 C 348.230469 371.230469 347.550781 370.652344 347.550781 369.777344 C 347.550781 368.90625 348.132812 368.324219 349.003906 368.324219 C 351.042969 368.324219 354.339844 365.027344 356.957031 360.371094 C 359.578125 355.8125 360.839844 351.351562 359.867188 349.703125 C 359.675781 349.511719 359.675781 349.316406 359.675781 348.929688 C 359.675781 348.347656 359.867188 348.054688 360.449219 347.667969 C 361.226562 347.28125 361.90625 347.472656 362.292969 348.25 C 363.167969 349.898438 367.820312 351.160156 373.15625 351.160156 C 378.492188 351.160156 382.953125 349.898438 384.019531 348.25 C 384.410156 347.472656 385.28125 347.375 385.863281 347.667969 C 386.25 347.859375 386.640625 348.441406 386.640625 348.929688 C 386.640625 349.121094 386.640625 349.511719 386.445312 349.703125 C 385.574219 351.351562 386.832031 356.296875 389.355469 360.953125 C 392.265625 366.09375 395.464844 368.710938 397.117188 368.710938 C 397.890625 368.710938 398.570312 369.292969 398.570312 370.164062 C 398.570312 371.039062 397.988281 371.621094 397.117188 371.621094 C 395.464844 371.621094 392.363281 374.335938 389.355469 379.378906 C 386.640625 383.9375 385.28125 388.785156 386.445312 390.628906 C 386.640625 390.820312 386.640625 391.015625 386.640625 391.402344 C 386.640625 391.984375 386.445312 392.277344 385.863281 392.664062 C 385.378906 392.859375 385.183594 392.859375 384.894531 392.859375 Z M 352.59375 370.164062 C 355.503906 372.394531 358.121094 376.273438 358.898438 377.921875 C 360.742188 381.027344 362.390625 385.101562 362.777344 388.398438 C 365.496094 387.136719 369.375 386.554688 372.867188 386.554688 C 376.359375 386.554688 380.238281 387.136719 382.953125 388.398438 C 383.148438 385.292969 384.796875 381.414062 386.640625 378.3125 C 387.511719 376.855469 390.132812 372.589844 393.042969 370.554688 C 389.9375 368.324219 387.511719 364.25 386.640625 362.796875 C 384.796875 359.691406 383.148438 355.8125 382.953125 352.710938 C 380.238281 353.96875 376.359375 354.550781 372.867188 354.550781 C 369.375 354.550781 365.496094 353.96875 362.777344 352.710938 C 362.585938 355.621094 360.933594 359.304688 359.285156 362.3125 C 357.445312 365.21875 355.019531 368.324219 352.59375 370.164062 Z M 352.59375 370.164062 " fill-opacity="1" fill-rule="nonzero"/><g clip-path="url(#id1)"><path fill="#f4f4f4" d="M 373.058594 371.523438 C 372.476562 371.523438 372.1875 371.328125 371.800781 370.746094 L 298.664062 243.320312 C 298.273438 242.546875 298.46875 241.867188 299.246094 241.480469 C 300.019531 241.089844 300.699219 241.285156 301.089844 242.0625 L 374.222656 369.488281 C 374.613281 370.261719 374.417969 370.941406 373.640625 371.328125 C 373.640625 371.523438 373.253906 371.523438 373.058594 371.523438 Z M 373.058594 371.523438 " fill-opacity="1" fill-rule="nonzero"/></g><path fill="#f4f4f4" d="M 373.058594 372.203125 L 226.59375 371.425781 C 225.820312 371.425781 225.332031 370.652344 225.332031 369.972656 C 225.332031 369.195312 225.914062 368.515625 226.789062 368.515625 L 373.253906 368.90625 C 374.03125 368.90625 374.515625 369.777344 374.515625 370.554688 C 374.515625 371.328125 373.835938 372.203125 373.058594 372.203125 Z M 373.058594 372.203125 " fill-opacity="1" fill-rule="nonzero"/><g clip-path="url(#id2)"><path fill="#f4f4f4" d="M 294.007812 508.839844 C 293.8125 508.839844 293.425781 508.839844 293.230469 508.648438 C 292.457031 508.257812 292.359375 507.386719 292.648438 506.804688 L 371.800781 369.488281 C 372.1875 368.710938 373.058594 368.613281 373.640625 368.90625 C 374.417969 369.292969 374.515625 370.164062 374.222656 370.746094 L 295.171875 508.355469 C 294.976562 508.648438 294.394531 508.839844 294.007812 508.839844 Z M 294.007812 508.839844 " fill-opacity="1" fill-rule="nonzero"/></g><path fill="#f4f4f4" d="M 448.425781 502.246094 C 447.84375 502.246094 447.554688 502.050781 447.164062 501.472656 L 371.992188 370.941406 C 371.605469 370.164062 371.800781 369.488281 372.574219 369.097656 C 373.351562 368.710938 374.03125 368.90625 374.417969 369.679688 L 449.6875 500.210938 C 450.074219 500.984375 449.882812 501.664062 449.105469 502.050781 C 448.816406 502.050781 448.621094 502.246094 448.425781 502.246094 Z M 448.425781 502.246094 " fill-opacity="1" fill-rule="nonzero"/><path fill="#f4f4f4" d="M 523.210938 372.203125 L 373.058594 371.621094 C 372.285156 371.621094 371.800781 370.746094 371.800781 369.972656 C 371.800781 369.195312 372.382812 368.324219 373.253906 368.324219 L 523.40625 368.90625 C 524.179688 368.90625 524.667969 369.777344 524.667969 370.554688 C 524.667969 371.328125 524.085938 372.203125 523.210938 372.203125 Z M 523.210938 372.203125 " fill-opacity="1" fill-rule="nonzero"/><g clip-path="url(#id3)"><path fill="#f4f4f4" d="M 373.058594 371.523438 C 372.867188 371.523438 372.476562 371.523438 372.285156 371.328125 C 371.507812 370.941406 371.410156 370.070312 371.703125 369.488281 L 444.546875 242.0625 C 444.933594 241.285156 445.808594 241.1875 446.390625 241.480469 C 447.164062 241.867188 447.261719 242.738281 446.972656 243.320312 L 374.417969 370.746094 C 374.03125 371.328125 373.640625 371.523438 373.058594 371.523438 Z M 373.058594 371.523438 " fill-opacity="1" fill-rule="nonzero"/></g><g clip-path="url(#id4)"><path fill="#3776b8" d="M 591.988281 469.296875 L 487.019531 499.445312 L 487.019531 499.957031 C 489.675781 510.75 488.09375 521.496094 482.691406 531.171875 C 476.777344 541.359375 467.601562 548.386719 456.890625 551.597656 C 445.574219 554.851562 433.699219 553.226562 424.011719 547.828125 L 363.191406 513.960938 L 369.105469 503.722656 L 429.414062 537.640625 C 436.914062 541.917969 445.574219 542.988281 453.628906 540.335938 C 461.6875 538.152344 468.71875 532.800781 472.492188 525.265625 C 474.632812 521.496094 475.703125 517.167969 476.261719 512.890625 C 477.847656 502.140625 473.003906 491.90625 463.828125 486.511719 L 317.414062 405.328125 C 317.414062 405.328125 301.816406 395.09375 281.324219 401 C 281.324219 401 281.324219 401 280.8125 401 C 277.039062 401.558594 119.261719 446.734375 112.835938 448.875 L 112.277344 448.875 L 144.039062 561.832031 L 249.5625 531.683594 C 260.320312 538.152344 340.558594 587.652344 350.804688 593.558594 C 368.546875 603.796875 390.621094 598.398438 395.511719 596.769531 C 396.023438 596.769531 610.335938 536.011719 610.335938 536.011719 C 624.820312 531.683594 637.207031 512.332031 631.851562 491.90625 C 627.007812 474.695312 609.21875 464.457031 591.988281 469.296875 " fill-opacity="1" fill-rule="nonzero"/></g><path fill="#3776b8" d="M 443.386719 282.132812 L 426.203125 299.347656 L 472.492188 345.59375 L 551.054688 268.128906 L 533.824219 250.917969 L 473.003906 311.722656 L 443.386719 282.132812 " fill-opacity="1" fill-rule="nonzero"/><path fill="#3776b8" d="M 549.46875 413.375 L 518.78125 413.375 L 492.421875 428.449219 C 491.304688 428.960938 489.675781 429.519531 488.09375 429.519531 C 486.460938 429.519531 484.878906 428.960938 483.761719 428.449219 L 457.914062 413.375 L 427.785156 413.375 C 424.570312 413.375 421.3125 411.746094 419.683594 408.539062 L 404.640625 382.71875 L 378.234375 367.132812 C 375.023438 365.503906 373.390625 362.292969 373.390625 359.035156 L 373.390625 328.378906 L 358.351562 302.558594 C 357.789062 301.488281 357.230469 299.859375 357.230469 298.277344 C 357.230469 296.648438 357.789062 295.019531 358.351562 293.949219 L 373.390625 268.6875 L 373.390625 237.472656 C 373.390625 234.261719 375.023438 231.050781 378.234375 229.421875 L 404.640625 213.839844 L 405.199219 213.839844 L 420.242188 188.019531 C 421.3125 185.832031 424.011719 183.179688 428.34375 183.179688 L 456.890625 183.179688 L 484.320312 168.617188 C 487.019531 167.035156 490.234375 167.035156 493.449219 168.617188 L 519.339844 183.691406 L 550.03125 183.691406 C 553.242188 183.691406 556.457031 185.320312 558.085938 188.019531 L 573.128906 214.910156 L 599.019531 229.933594 C 602.234375 231.5625 603.816406 234.773438 603.816406 238.03125 L 603.816406 267.617188 L 619.464844 294.507812 C 621.046875 297.207031 621.046875 299.859375 619.464844 302.046875 L 603.304688 329.449219 L 603.304688 359.035156 C 603.304688 362.292969 601.675781 365.503906 598.460938 367.132812 L 572.617188 382.160156 L 557.527344 409.097656 C 556.457031 411.234375 553.753906 413.375 549.46875 413.375 Z M 633.480469 286.414062 L 620.023438 263.851562 L 620.023438 238.542969 C 620.023438 229.421875 615.132812 221.328125 607.589844 216.488281 L 585.5625 203.601562 L 572.617188 180.480469 C 567.773438 172.945312 559.714844 168.105469 550.542969 168.105469 L 524.136719 168.105469 L 502.109375 155.171875 C 494.007812 150.335938 484.878906 150.335938 476.777344 155.171875 L 453.117188 167.035156 L 427.226562 167.035156 C 418.097656 167.035156 409.996094 171.875 405.199219 179.410156 L 392.253906 201.976562 L 369.105469 215.421875 C 361.5625 220.257812 356.71875 228.351562 356.71875 237.472656 L 356.71875 263.851562 L 343.773438 285.34375 C 341.117188 289.671875 340.558594 295.019531 340.558594 298.277344 C 340.558594 301.488281 341.117188 306.328125 343.773438 311.164062 L 356.71875 332.703125 L 356.71875 359.035156 C 356.71875 368.203125 361.5625 376.25 369.105469 381.089844 L 392.253906 394.535156 L 405.199219 417.144531 C 409.996094 424.679688 418.097656 429.519531 427.226562 429.519531 L 453.117188 429.519531 L 475.191406 442.40625 C 479.476562 445.105469 484.878906 445.664062 488.09375 445.664062 C 492.933594 445.664062 497.21875 444.59375 500.992188 442.40625 L 523.625 429.519531 L 550.03125 429.519531 C 559.15625 429.519531 567.214844 424.679688 572.101562 416.585938 L 585.003906 393.976562 L 607.589844 381.089844 C 615.132812 376.25 620.023438 368.203125 620.023438 359.035156 L 620.023438 333.773438 L 632.921875 311.164062 C 637.765625 304.1875 638.277344 294.507812 633.480469 286.414062 " fill-opacity="1" fill-rule="nonzero"/></svg>