<svg xmlns="http://www.w3.org/2000/svg" xmlns:xlink="http://www.w3.org/1999/xlink" width="1000" zoomAndPan="magnify" viewBox="0 0 750 749.999995" height="1000" preserveAspectRatio="xMidYMid meet" version="1.0"><defs><clipPath id="id1"><path d="M 298 241.089844 L 375 241.089844 L 375 372 L 298 372 Z M 298 241.089844 " clip-rule="nonzero"/></clipPath><clipPath id="id2"><path d="M 292 368 L 375 368 L 375 508.839844 L 292 508.839844 Z M 292 368 " clip-rule="nonzero"/></clipPath><clipPath id="id3"><path d="M 371 241.089844 L 448 241.089844 L 448 372 L 371 372 Z M 371 241.089844 " clip-rule="nonzero"/></clipPath><clipPath id="id4"><path d="M 106.859375 108 L 643.109375 108 L 643.109375 645.171875 L 106.859375 645.171875 Z M 106.859375 108 " clip-rule="nonzero"/></clipPath></defs><path fill="#f4f4f4" d="M 440.085938 487.699219 C 439.503906 487.699219 439.210938 487.507812 438.824219 486.925781 C 431.0625 473.445312 400.121094 467.625 373.058594 467.625 C 345.804688 467.625 315.054688 473.734375 307.296875 486.925781 C 306.90625 487.699219 306.035156 487.796875 305.453125 487.507812 C 305.066406 487.3125 304.675781 486.730469 304.675781 486.246094 C 304.675781 486.050781 304.675781 485.664062 304.871094 485.46875 C 312.632812 471.988281 302.253906 441.832031 288.480469 417.878906 C 272.085938 390.046875 252.203125 371.136719 238.914062 371.136719 C 238.136719 371.136719 237.457031 370.554688 237.457031 369.679688 C 237.457031 368.808594 238.234375 368.421875 238.914062 368.421875 C 252.203125 368.421875 272.085938 349.414062 288.285156 321.484375 C 302.058594 297.726562 312.4375 267.664062 304.675781 254.085938 C 304.484375 253.890625 304.484375 253.699219 304.484375 253.308594 C 304.484375 252.726562 304.675781 252.4375 305.257812 252.050781 C 306.035156 251.660156 306.714844 251.855469 307.101562 252.632812 C 314.863281 266.109375 345.804688 271.929688 372.867188 271.929688 C 400.121094 271.929688 430.871094 265.820312 438.628906 252.632812 C 439.019531 251.855469 439.890625 251.757812 440.472656 252.050781 C 440.859375 252.242188 441.25 252.824219 441.25 253.308594 C 441.25 253.503906 441.25 253.890625 441.054688 254.085938 C 433.296875 267.566406 443.769531 297.917969 457.640625 321.871094 C 474.035156 350.1875 493.917969 369.195312 507.207031 369.195312 C 507.984375 369.195312 508.660156 369.777344 508.660156 370.652344 C 508.660156 371.523438 508.078125 372.105469 507.207031 372.105469 C 491.6875 372.105469 470.929688 396.058594 457.058594 419.816406 C 440.859375 447.84375 434.363281 474.511719 441.054688 485.953125 C 441.25 486.148438 441.25 486.34375 441.25 486.730469 C 441.25 487.3125 441.054688 487.601562 440.472656 487.992188 C 440.472656 487.699219 440.277344 487.699219 440.085938 487.699219 Z M 246.285156 369.875 C 262.09375 375.597656 279.457031 397.707031 290.710938 416.8125 C 307.878906 446.292969 311.660156 467.820312 309.527344 480.136719 C 322.425781 469.082031 350.460938 464.8125 373.058594 464.8125 C 395.5625 464.8125 423.5 468.886719 436.398438 479.941406 C 433.488281 463.359375 443.769531 437.371094 455.023438 418.070312 C 471.996094 388.589844 488.777344 374.625 500.320312 370.554688 C 484.507812 365.027344 466.757812 342.527344 455.605469 323.230469 C 438.4375 293.554688 434.460938 272.027344 436.59375 259.710938 C 423.691406 270.765625 395.660156 275.03125 373.058594 275.03125 C 350.558594 274.839844 322.621094 270.765625 309.722656 259.710938 C 312.824219 276.488281 302.15625 303.15625 290.710938 322.648438 C 279.652344 342.042969 262.191406 364.152344 246.285156 369.875 Z M 246.285156 369.875 " fill-opacity="1" fill-rule="nonzero"/><path fill="#f4f4f4" d="M 426.3125 463.746094 C 425.730469 463.746094 425.4375 463.554688 425.050781 462.972656 C 419.714844 453.757812 398.859375 447.648438 372.964844 447.648438 C 347.066406 447.648438 326.210938 453.757812 320.875 462.972656 C 320.488281 463.746094 319.613281 463.84375 319.03125 463.554688 C 318.644531 463.359375 318.257812 462.777344 318.257812 462.292969 C 318.257812 462.097656 318.257812 461.710938 318.449219 461.515625 C 323.785156 452.304688 318.449219 430.96875 305.550781 408.472656 C 292.648438 386.167969 277.03125 371.039062 266.460938 371.039062 C 265.683594 371.039062 265.003906 370.457031 265.003906 369.582031 C 265.003906 368.710938 265.585938 368.128906 266.460938 368.128906 C 276.9375 368.128906 292.648438 353.195312 305.550781 330.695312 C 318.644531 308.003906 323.785156 286.863281 318.449219 277.652344 C 318.257812 277.457031 318.257812 277.261719 318.257812 276.875 C 318.257812 276.292969 318.449219 276.003906 319.03125 275.613281 C 319.808594 275.226562 320.488281 275.421875 320.875 276.195312 C 326.210938 285.410156 347.066406 291.519531 372.964844 291.519531 C 398.859375 291.519531 419.714844 285.410156 425.050781 276.195312 C 425.4375 275.421875 426.3125 275.324219 426.894531 275.613281 C 427.28125 275.808594 427.667969 276.390625 427.667969 276.875 C 427.667969 277.070312 427.667969 277.457031 427.476562 277.652344 C 422.140625 286.863281 427.476562 308.585938 440.765625 331.472656 C 453.664062 353.777344 469.28125 368.710938 479.660156 368.710938 C 480.4375 368.710938 481.113281 369.292969 481.113281 370.164062 C 481.113281 371.039062 480.53125 371.621094 479.660156 371.621094 C 469.183594 371.621094 453.277344 386.75 440.472656 409.054688 C 427.667969 431.355469 422.429688 452.304688 427.765625 461.515625 C 427.960938 461.710938 427.960938 461.90625 427.960938 462.292969 C 427.960938 462.875 427.765625 463.164062 427.183594 463.554688 C 426.894531 463.554688 426.503906 463.746094 426.3125 463.746094 Z M 373.058594 444.933594 C 390.519531 444.933594 412.441406 448.039062 423.011719 456.570312 C 420.976562 443.285156 429.316406 422.824219 437.949219 407.984375 C 446.777344 392.859375 460.453125 375.402344 472.96875 370.554688 C 460.648438 365.609375 446.972656 348.441406 438.339844 333.316406 C 429.316406 317.796875 420.878906 296.851562 423.011719 283.179688 C 412.539062 291.617188 390.617188 294.816406 373.058594 294.816406 C 355.503906 294.816406 333.679688 291.710938 323.105469 283.179688 C 325.144531 296.65625 316.800781 317.21875 307.976562 332.539062 C 299.148438 347.472656 285.664062 364.734375 273.152344 369.777344 C 285.664062 374.722656 299.34375 392.082031 307.976562 407.210938 C 316.800781 422.53125 325.144531 443.089844 323.105469 456.570312 C 333.679688 448.132812 355.601562 444.933594 373.058594 444.933594 Z M 373.058594 444.933594 " fill-opacity="1" fill-rule="nonzero"/><path fill="#f4f4f4" d="M 412.441406 441.054688 C 411.859375 441.054688 411.566406 440.859375 411.179688 440.277344 C 407.300781 433.492188 391.972656 429.03125 372.867188 429.03125 C 353.757812 429.03125 338.433594 433.585938 334.550781 440.277344 C 334.164062 441.054688 333.292969 441.152344 332.710938 440.859375 C 332.320312 440.667969 331.933594 440.085938 331.933594 439.601562 C 331.933594 439.40625 331.933594 439.019531 332.128906 438.824219 C 336.007812 432.035156 331.933594 415.257812 322.039062 398.289062 C 312.632812 382.09375 301.378906 371.230469 293.8125 371.230469 C 293.039062 371.230469 292.359375 370.652344 292.359375 369.777344 C 292.359375 368.90625 292.941406 368.324219 293.8125 368.324219 C 301.378906 368.324219 313.019531 357.269531 322.332031 341.074219 C 332.128906 324.296875 336.007812 308.683594 332.128906 301.894531 C 332.128906 301.699219 332.128906 301.507812 332.128906 301.3125 C 332.128906 300.730469 332.320312 300.441406 332.902344 300.050781 C 333.679688 299.664062 334.359375 299.859375 334.746094 300.632812 C 338.625 307.421875 353.953125 311.882812 373.058594 311.882812 C 392.167969 311.882812 407.492188 307.324219 411.375 300.632812 C 411.761719 299.859375 412.636719 299.761719 413.214844 300.050781 C 413.605469 300.246094 413.992188 300.828125 413.992188 301.3125 C 413.992188 301.507812 413.992188 301.894531 413.796875 302.089844 C 409.917969 308.878906 413.796875 324.878906 423.789062 341.847656 C 433.199219 358.042969 444.644531 369.097656 452.113281 369.097656 C 452.886719 369.097656 453.566406 369.679688 453.566406 370.554688 C 453.566406 371.425781 452.984375 372.007812 452.113281 372.007812 C 444.546875 372.007812 433.296875 382.871094 423.789062 399.257812 C 413.992188 416.035156 410.015625 432.617188 413.796875 439.40625 C 413.992188 439.601562 413.992188 439.792969 413.992188 440.183594 C 413.992188 440.765625 413.796875 441.054688 413.214844 441.441406 C 413.023438 440.957031 412.636719 441.054688 412.441406 441.054688 Z M 373.058594 426.410156 C 385.765625 426.410156 401.382812 428.640625 409.726562 434.65625 C 408.65625 424.375 414.867188 409.054688 421.558594 397.609375 C 427.863281 386.75 437.367188 374.625 446.390625 370.554688 C 437.367188 366.480469 427.574219 354.164062 421.363281 343.304688 C 414.769531 332.054688 408.65625 316.925781 409.726562 306.648438 C 401.578125 312.5625 385.765625 314.890625 373.058594 314.890625 C 360.351562 314.890625 344.738281 312.660156 336.394531 306.648438 C 337.460938 316.730469 331.449219 331.667969 324.949219 342.914062 C 318.644531 353.777344 308.945312 366.09375 299.730469 370.164062 C 308.558594 374.238281 317.964844 385.972656 324.367188 397.222656 C 330.964844 408.859375 337.460938 424.277344 336.296875 434.75 C 344.542969 428.546875 360.351562 426.410156 373.058594 426.410156 Z M 373.058594 426.410156 " fill-opacity="1" fill-rule="nonzero"/><path fill="#f4f4f4" d="M 398.667969 417.003906 C 398.085938 417.003906 397.792969 416.8125 397.40625 416.230469 C 394.980469 411.960938 384.894531 409.246094 372.867188 409.246094 C 360.742188 409.246094 350.75 412.15625 348.324219 416.230469 C 347.9375 417.003906 347.066406 417.101562 346.484375 416.8125 C 346.09375 416.617188 345.707031 416.035156 345.707031 415.550781 C 345.707031 415.355469 345.707031 414.96875 345.902344 414.773438 C 348.324219 410.3125 345.707031 399.644531 339.304688 388.589844 C 333.195312 378.3125 326.015625 371.230469 321.457031 371.230469 C 320.683594 371.230469 320.003906 370.652344 320.003906 369.777344 C 320.003906 368.90625 320.585938 368.324219 321.457031 368.324219 C 326.210938 368.324219 333.777344 361.148438 339.691406 350.671875 C 345.804688 340.199219 348.324219 329.824219 345.996094 325.652344 C 345.804688 325.460938 345.804688 325.265625 345.804688 324.878906 C 345.804688 324.296875 345.996094 324.003906 346.578125 323.617188 C 347.355469 323.230469 348.035156 323.421875 348.421875 324.199219 C 350.847656 328.464844 360.933594 331.179688 372.964844 331.179688 C 385.085938 331.179688 395.078125 328.273438 397.503906 324.199219 C 397.890625 323.421875 398.765625 323.328125 399.347656 323.617188 C 399.734375 323.8125 400.121094 324.394531 400.121094 324.878906 C 400.121094 325.070312 400.121094 325.460938 399.929688 325.652344 C 397.503906 329.921875 400.121094 340.394531 406.328125 351.253906 C 412.441406 361.730469 419.617188 368.710938 424.371094 368.710938 C 425.148438 368.710938 425.828125 369.292969 425.828125 370.164062 C 425.828125 371.039062 425.246094 371.621094 424.371094 371.621094 C 419.617188 371.621094 412.441406 378.601562 406.328125 389.074219 C 400.023438 399.9375 397.503906 410.410156 399.929688 414.675781 C 400.121094 414.871094 400.121094 415.066406 400.121094 415.453125 C 400.121094 416.035156 399.929688 416.324219 399.347656 416.714844 C 399.25 417.003906 399.054688 417.003906 398.667969 417.003906 Z M 372.867188 406.433594 C 380.820312 406.433594 390.519531 407.695312 396.242188 411.378906 C 396.046875 404.59375 399.929688 395.183594 404.003906 388.007812 C 408.074219 381.027344 413.992188 373.460938 419.617188 370.554688 C 413.894531 367.644531 408.171875 360.082031 404.003906 353.097656 C 399.929688 345.921875 396.046875 336.515625 396.242188 329.726562 C 390.714844 333.21875 380.917969 334.671875 372.867188 334.671875 C 364.914062 334.671875 355.210938 333.410156 349.488281 329.726562 C 349.683594 336.320312 345.996094 345.535156 341.925781 352.515625 C 337.851562 359.304688 331.933594 367.0625 326.113281 370.164062 C 331.640625 373.074219 337.558594 380.445312 341.632812 387.523438 C 345.902344 394.894531 349.878906 404.496094 349.585938 411.476562 C 355.210938 407.792969 364.914062 406.433594 372.867188 406.433594 Z M 372.867188 406.433594 " fill-opacity="1" fill-rule="nonzero"/><path fill="#f4f4f4" d="M 384.894531 392.859375 C 384.3125 392.859375 384.019531 392.664062 383.632812 392.082031 C 382.757812 390.433594 378.105469 389.171875 372.769531 389.171875 C 367.433594 389.171875 363.167969 390.433594 362.097656 392.277344 C 361.710938 393.050781 360.839844 393.148438 360.257812 392.859375 C 359.867188 392.664062 359.480469 392.082031 359.480469 391.597656 C 359.480469 391.402344 359.480469 391.015625 359.675781 390.820312 C 360.742188 388.980469 359.285156 384.03125 356.570312 378.992188 C 353.660156 374.042969 350.460938 371.230469 349.003906 371.230469 C 348.230469 371.230469 347.550781 370.652344 347.550781 369.777344 C 347.550781 368.90625 348.132812 368.324219 349.003906 368.324219 C 351.042969 368.324219 354.339844 365.027344 356.957031 360.371094 C 359.578125 355.8125 360.839844 351.351562 359.867188 349.703125 C 359.675781 349.511719 359.675781 349.316406 359.675781 348.929688 C 359.675781 348.347656 359.867188 348.054688 360.449219 347.667969 C 361.226562 347.28125 361.90625 347.472656 362.292969 348.25 C 363.167969 349.898438 367.820312 351.160156 373.15625 351.160156 C 378.492188 351.160156 382.953125 349.898438 384.019531 348.25 C 384.410156 347.472656 385.28125 347.375 385.863281 347.667969 C 386.25 347.859375 386.640625 348.441406 386.640625 348.929688 C 386.640625 349.121094 386.640625 349.511719 386.445312 349.703125 C 385.574219 351.351562 386.832031 356.296875 389.355469 360.953125 C 392.265625 366.09375 395.464844 368.710938 397.117188 368.710938 C 397.890625 368.710938 398.570312 369.292969 398.570312 370.164062 C 398.570312 371.039062 397.988281 371.621094 397.117188 371.621094 C 395.464844 371.621094 392.363281 374.335938 389.355469 379.378906 C 386.640625 383.9375 385.28125 388.785156 386.445312 390.628906 C 386.640625 390.820312 386.640625 391.015625 386.640625 391.402344 C 386.640625 391.984375 386.445312 392.277344 385.863281 392.664062 C 385.378906 392.859375 385.183594 392.859375 384.894531 392.859375 Z M 352.59375 370.164062 C 355.503906 372.394531 358.121094 376.273438 358.898438 377.921875 C 360.742188 381.027344 362.390625 385.101562 362.777344 388.398438 C 365.496094 387.136719 369.375 386.554688 372.867188 386.554688 C 376.359375 386.554688 380.238281 387.136719 382.953125 388.398438 C 383.148438 385.292969 384.796875 381.414062 386.640625 378.3125 C 387.511719 376.855469 390.132812 372.589844 393.042969 370.554688 C 389.9375 368.324219 387.511719 364.25 386.640625 362.796875 C 384.796875 359.691406 383.148438 355.8125 382.953125 352.710938 C 380.238281 353.96875 376.359375 354.550781 372.867188 354.550781 C 369.375 354.550781 365.496094 353.96875 362.777344 352.710938 C 362.585938 355.621094 360.933594 359.304688 359.285156 362.3125 C 357.445312 365.21875 355.019531 368.324219 352.59375 370.164062 Z M 352.59375 370.164062 " fill-opacity="1" fill-rule="nonzero"/><g clip-path="url(#id1)"><path fill="#f4f4f4" d="M 373.058594 371.523438 C 372.476562 371.523438 372.1875 371.328125 371.800781 370.746094 L 298.664062 243.320312 C 298.273438 242.546875 298.46875 241.867188 299.246094 241.480469 C 300.019531 241.089844 300.699219 241.285156 301.089844 242.0625 L 374.222656 369.488281 C 374.613281 370.261719 374.417969 370.941406 373.640625 371.328125 C 373.640625 371.523438 373.253906 371.523438 373.058594 371.523438 Z M 373.058594 371.523438 " fill-opacity="1" fill-rule="nonzero"/></g><path fill="#f4f4f4" d="M 373.058594 372.203125 L 226.59375 371.425781 C 225.820312 371.425781 225.332031 370.652344 225.332031 369.972656 C 225.332031 369.195312 225.914062 368.515625 226.789062 368.515625 L 373.253906 368.90625 C 374.03125 368.90625 374.515625 369.777344 374.515625 370.554688 C 374.515625 371.328125 373.835938 372.203125 373.058594 372.203125 Z M 373.058594 372.203125 " fill-opacity="1" fill-rule="nonzero"/><g clip-path="url(#id2)"><path fill="#f4f4f4" d="M 294.007812 508.839844 C 293.8125 508.839844 293.425781 508.839844 293.230469 508.648438 C 292.457031 508.257812 292.359375 507.386719 292.648438 506.804688 L 371.800781 369.488281 C 372.1875 368.710938 373.058594 368.613281 373.640625 368.90625 C 374.417969 369.292969 374.515625 370.164062 374.222656 370.746094 L 295.171875 508.355469 C 294.976562 508.648438 294.394531 508.839844 294.007812 508.839844 Z M 294.007812 508.839844 " fill-opacity="1" fill-rule="nonzero"/></g><path fill="#f4f4f4" d="M 448.425781 502.246094 C 447.84375 502.246094 447.554688 502.050781 447.164062 501.472656 L 371.992188 370.941406 C 371.605469 370.164062 371.800781 369.488281 372.574219 369.097656 C 373.351562 368.710938 374.03125 368.90625 374.417969 369.679688 L 449.6875 500.210938 C 450.074219 500.984375 449.882812 501.664062 449.105469 502.050781 C 448.816406 502.050781 448.621094 502.246094 448.425781 502.246094 Z M 448.425781 502.246094 " fill-opacity="1" fill-rule="nonzero"/><path fill="#f4f4f4" d="M 523.210938 372.203125 L 373.058594 371.621094 C 372.285156 371.621094 371.800781 370.746094 371.800781 369.972656 C 371.800781 369.195312 372.382812 368.324219 373.253906 368.324219 L 523.40625 368.90625 C 524.179688 368.90625 524.667969 369.777344 524.667969 370.554688 C 524.667969 371.328125 524.085938 372.203125 523.210938 372.203125 Z M 523.210938 372.203125 " fill-opacity="1" fill-rule="nonzero"/><g clip-path="url(#id3)"><path fill="#f4f4f4" d="M 373.058594 371.523438 C 372.867188 371.523438 372.476562 371.523438 372.285156 371.328125 C 371.507812 370.941406 371.410156 370.070312 371.703125 369.488281 L 444.546875 242.0625 C 444.933594 241.285156 445.808594 241.1875 446.390625 241.480469 C 447.164062 241.867188 447.261719 242.738281 446.972656 243.320312 L 374.417969 370.746094 C 374.03125 371.328125 373.640625 371.523438 373.058594 371.523438 Z M 373.058594 371.523438 " fill-opacity="1" fill-rule="nonzero"/></g><path fill="#3776b8" d="M 461.476562 368.074219 L 461.476562 428.660156 C 461.476562 505.171875 399.546875 567.144531 323.089844 567.144531 C 246.632812 567.144531 184.703125 505.171875 184.703125 428.660156 C 184.703125 352.144531 246.632812 290.175781 323.089844 290.175781 C 366.078125 290.175781 404.480469 309.824219 429.90625 340.546875 L 430.089844 340.722656 C 428.003906 343.578125 426.878906 347.039062 426.878906 350.761719 C 426.878906 360.28125 434.664062 368.074219 444.175781 368.074219 Z M 461.476562 368.074219 " fill-opacity="1" fill-rule="nonzero"/><path fill="#17c7cc" d="M 409.582031 428.660156 C 409.582031 476.457031 370.859375 515.210938 323.089844 515.210938 C 275.320312 515.210938 236.597656 476.457031 236.597656 428.660156 C 236.597656 380.855469 275.320312 342.105469 323.089844 342.105469 C 370.859375 342.105469 409.582031 380.855469 409.582031 428.660156 Z M 409.582031 428.660156 " fill-opacity="1" fill-rule="nonzero"/><path fill="#1f399c" d="M 461.476562 368.074219 L 582.5625 368.074219 C 582.5625 396.722656 559.296875 420.003906 530.667969 420.003906 L 513.371094 420.003906 C 484.742188 420.003906 461.476562 396.722656 461.476562 368.074219 Z M 461.476562 368.074219 " fill-opacity="1" fill-rule="nonzero"/><path fill="#1f399c" d="M 599.863281 333.453125 C 609.378906 333.453125 617.160156 341.242188 617.160156 350.761719 C 617.160156 355.519531 615.257812 359.847656 612.058594 362.964844 C 608.941406 366.167969 604.617188 368.074219 599.863281 368.074219 L 444.175781 368.074219 C 434.664062 368.074219 426.878906 360.28125 426.878906 350.761719 C 426.878906 347.039062 428.003906 343.578125 430.078125 340.722656 C 430.683594 339.945312 431.289062 339.25 431.980469 338.558594 C 435.097656 335.355469 439.421875 333.453125 444.175781 333.453125 Z M 599.863281 333.453125 " fill-opacity="1" fill-rule="nonzero"/><path fill="#4195b2" d="M 508.960938 117.851562 C 458.449219 123.5625 417.277344 163.808594 410.621094 214.269531 C 407.847656 235.300781 410.875 255.382812 418.394531 273.125 L 417.453125 273.554688 C 401.707031 263.949219 384.410156 256.679688 365.902344 252.179688 L 357.683594 220.933594 L 288.492188 220.933594 L 280.273438 252.179688 C 261.765625 256.679688 244.46875 263.949219 228.722656 273.554688 L 200.789062 257.285156 L 151.835938 306.273438 L 168.09375 334.230469 C 158.496094 349.980469 151.226562 367.292969 146.730469 385.816406 L 115.507812 394.039062 L 115.507812 463.28125 L 146.730469 471.5 C 151.21875 490.023438 158.488281 507.332031 168.09375 523.085938 L 151.835938 551.042969 L 200.789062 600.03125 L 228.714844 583.761719 C 244.460938 593.367188 261.757812 600.636719 280.265625 605.136719 L 288.492188 636.382812 L 357.683594 636.382812 L 365.902344 605.136719 C 384.410156 600.636719 401.707031 593.367188 417.453125 583.761719 L 445.378906 600.03125 L 494.332031 551.042969 L 478.074219 523.085938 C 487.671875 507.332031 494.941406 490.023438 499.4375 471.5 L 530.667969 463.28125 L 530.667969 420.003906 L 513.371094 420.003906 C 484.742188 420.003906 461.476562 396.722656 461.476562 368.074219 L 461.476562 428.660156 C 461.476562 505.171875 399.546875 567.144531 323.089844 567.144531 C 246.632812 567.144531 184.703125 505.171875 184.703125 428.660156 C 184.703125 352.144531 246.632812 290.175781 323.089844 290.175781 C 366.078125 290.175781 404.480469 309.824219 429.90625 340.546875 L 430.089844 340.722656 C 430.691406 339.945312 431.300781 339.25 431.988281 338.558594 C 435.097656 335.355469 439.421875 333.453125 444.175781 333.453125 L 585.074219 333.453125 C 587.839844 325.054688 592.773438 317.351562 599.34375 311.207031 C 620.964844 290.695312 634.460938 261.699219 634.460938 229.589844 C 634.460938 163.117188 576.855469 110.144531 508.960938 117.851562 Z M 508.960938 117.851562 " fill-opacity="1" fill-rule="nonzero"/><g clip-path="url(#id4)"><path fill="#00004a" d="M 599.863281 324.796875 L 599.078125 324.796875 C 600.894531 322.171875 602.925781 319.679688 605.277344 317.449219 C 629.664062 294.339844 643.109375 263.136719 643.109375 229.589844 C 643.109375 195.121094 628.371094 162.171875 602.667969 139.199219 C 576.984375 116.238281 542.429688 105.289062 507.957031 109.210938 C 453.726562 115.339844 409.175781 159.039062 402.019531 213.117188 C 400.058594 227.960938 400.785156 242.632812 403.949219 256.597656 C 393.976562 251.890625 383.667969 247.972656 373.011719 245.074219 L 364.355469 212.28125 L 281.832031 212.28125 L 273.175781 245.082031 C 257.625 249.304688 242.703125 255.5 228.683594 263.542969 L 199.359375 246.464844 L 141.015625 304.855469 L 158.085938 334.195312 C 150.046875 348.21875 143.859375 363.152344 139.640625 378.71875 L 106.859375 387.375 L 106.859375 469.945312 L 139.640625 478.609375 C 143.859375 494.167969 150.046875 509.101562 158.085938 523.132812 L 141.015625 552.46875 L 199.359375 610.859375 L 228.683594 593.78125 C 242.703125 601.832031 257.632812 608.019531 273.175781 612.246094 L 281.824219 645.039062 L 364.34375 645.039062 L 373.003906 612.234375 C 388.542969 608.011719 403.464844 601.8125 417.496094 593.773438 L 446.816406 610.851562 L 505.160156 552.460938 L 488.089844 523.121094 C 496.132812 509.101562 502.320312 494.160156 506.539062 478.601562 L 539.316406 469.945312 L 539.316406 427.964844 C 565.777344 424.148438 586.707031 403.199219 590.519531 376.726562 L 599.863281 376.726562 C 614.167969 376.726562 625.808594 365.078125 625.808594 350.761719 C 625.808594 336.445312 614.167969 324.796875 599.863281 324.796875 Z M 419.164062 215.386719 C 425.296875 169.078125 463.449219 131.664062 509.894531 126.40625 C 539.96875 123.027344 568.8125 132.148438 591.144531 152.105469 C 613.175781 171.804688 625.808594 200.046875 625.808594 229.589844 C 625.808594 258.332031 614.296875 285.074219 593.382812 304.886719 C 587.375 310.59375 582.605469 317.40625 579.277344 324.796875 L 548.5625 324.796875 L 552.605469 264.210938 L 573.914062 264.210938 C 592.996094 264.210938 608.511719 248.683594 608.511719 229.589844 C 608.511719 210.496094 592.996094 194.96875 573.914062 194.96875 L 572.246094 194.96875 C 554.089844 194.96875 538.921875 209.160156 537.726562 227.285156 L 536.421875 246.898438 L 507.617188 246.898438 L 506.320312 227.285156 C 505.117188 209.160156 489.949219 194.96875 471.792969 194.96875 L 470.125 194.96875 C 451.042969 194.96875 435.527344 210.496094 435.527344 229.589844 C 435.527344 248.683594 451.042969 264.210938 470.125 264.210938 L 491.433594 264.210938 L 495.476562 324.796875 L 464.71875 324.796875 C 461.363281 317.367188 456.554688 310.496094 450.480469 304.707031 C 426.136719 281.546875 414.738281 248.992188 419.164062 215.386719 Z M 512.816406 324.796875 L 508.78125 264.210938 L 535.257812 264.210938 L 531.222656 324.796875 Z M 553.753906 246.898438 L 554.992188 228.4375 C 555.585938 219.375 563.164062 212.28125 572.246094 212.28125 L 573.914062 212.28125 C 583.457031 212.28125 591.214844 220.042969 591.214844 229.589844 C 591.214844 239.136719 583.457031 246.898438 573.914062 246.898438 Z M 490.285156 246.898438 L 470.125 246.898438 C 460.585938 246.898438 452.828125 239.136719 452.828125 229.589844 C 452.828125 220.042969 460.585938 212.28125 470.125 212.28125 L 471.792969 212.28125 C 480.878906 212.28125 488.453125 219.375 489.050781 228.4375 Z M 492.234375 464.488281 L 491.019531 469.5 C 486.835938 486.8125 479.996094 503.328125 470.679688 518.585938 L 467.988281 522.992188 L 483.496094 549.660156 L 444.003906 589.195312 L 417.355469 573.675781 L 412.953125 576.367188 C 397.695312 585.679688 381.191406 592.523438 363.894531 596.726562 L 358.890625 597.933594 L 351.015625 627.730469 L 295.152344 627.730469 L 287.28125 597.917969 L 282.269531 596.710938 C 264.972656 592.515625 248.472656 585.660156 233.214844 576.351562 L 228.8125 573.660156 L 202.164062 589.179688 L 162.671875 549.640625 L 178.179688 522.976562 L 175.5 518.585938 C 166.191406 503.328125 159.347656 486.8125 155.15625 469.5 L 153.945312 464.488281 L 124.15625 456.617188 L 124.15625 400.703125 L 153.945312 392.824219 L 155.15625 387.8125 C 159.339844 370.503906 166.183594 353.992188 175.5 338.730469 L 178.1875 334.324219 L 162.679688 307.660156 L 202.171875 268.121094 L 228.820312 283.636719 L 233.222656 280.945312 C 248.472656 271.636719 264.972656 264.789062 282.285156 260.59375 L 287.289062 259.378906 L 295.160156 229.589844 L 351.023438 229.589844 L 358.898438 259.398438 L 363.90625 260.609375 C 380.941406 264.738281 397.183594 271.460938 412.238281 280.558594 C 418.542969 294.085938 427.308594 306.546875 438.554688 317.257812 C 440.96875 319.5625 443.070312 322.113281 444.921875 324.804688 L 444.175781 324.804688 C 439.21875 324.804688 434.628906 326.277344 430.683594 328.699219 C 402.871094 298.71875 364.222656 281.519531 323.089844 281.519531 C 242.011719 281.519531 176.050781 347.523438 176.050781 428.660156 C 176.050781 509.792969 242.011719 575.796875 323.089844 575.796875 C 404.167969 575.796875 470.125 509.792969 470.125 428.660156 L 470.125 410.386719 C 481.125 421.648438 496.433594 428.660156 513.371094 428.660156 L 522.019531 428.660156 L 522.019531 456.617188 Z M 444.175781 376.726562 L 452.828125 376.726562 L 452.828125 428.660156 C 452.828125 500.246094 394.625 558.488281 323.089844 558.488281 C 251.550781 558.488281 193.351562 500.246094 193.351562 428.660156 C 193.351562 357.074219 251.550781 298.832031 323.089844 298.832031 C 360.246094 298.832031 395.113281 314.714844 419.75 342.332031 C 418.832031 344.988281 418.230469 347.792969 418.230469 350.761719 C 418.230469 365.078125 429.871094 376.726562 444.175781 376.726562 Z M 530.667969 411.347656 L 513.371094 411.347656 C 492.492188 411.347656 475.019531 396.453125 471 376.726562 L 573.039062 376.726562 C 569.019531 396.453125 551.546875 411.347656 530.667969 411.347656 Z M 599.863281 359.417969 L 444.175781 359.417969 C 439.40625 359.417969 435.527344 355.53125 435.527344 350.761719 C 435.527344 345.992188 439.40625 342.105469 444.175781 342.105469 L 599.863281 342.105469 C 604.636719 342.105469 608.511719 345.992188 608.511719 350.761719 C 608.511719 355.53125 604.636719 359.417969 599.863281 359.417969 Z M 599.863281 359.417969 " fill-opacity="1" fill-rule="nonzero"/></g><path fill="#00004a" d="M 323.089844 333.453125 C 270.632812 333.453125 227.945312 376.167969 227.945312 428.660156 C 227.945312 481.152344 270.632812 523.867188 323.089844 523.867188 C 375.546875 523.867188 418.230469 481.152344 418.230469 428.660156 C 418.230469 376.167969 375.546875 333.453125 323.089844 333.453125 Z M 323.089844 506.554688 C 280.164062 506.554688 245.246094 471.605469 245.246094 428.660156 C 245.246094 385.707031 280.164062 350.761719 323.089844 350.761719 C 366.011719 350.761719 400.929688 385.707031 400.929688 428.660156 C 400.929688 471.605469 366.011719 506.554688 323.089844 506.554688 Z M 323.089844 506.554688 " fill-opacity="1" fill-rule="nonzero"/><path fill="#00004a" d="M 314.4375 246.898438 L 331.738281 246.898438 L 331.738281 264.210938 L 314.4375 264.210938 Z M 314.4375 246.898438 " fill-opacity="1" fill-rule="nonzero"/><path fill="#00004a" d="M 188.554688 306.257812 L 200.789062 294.023438 L 213.019531 306.265625 L 200.777344 318.503906 Z M 188.554688 306.257812 " fill-opacity="1" fill-rule="nonzero"/><path fill="#00004a" d="M 141.457031 420.003906 L 158.753906 420.003906 L 158.753906 437.316406 L 141.457031 437.316406 Z M 141.457031 420.003906 " fill-opacity="1" fill-rule="nonzero"/><path fill="#00004a" d="M 188.566406 551.074219 L 200.792969 538.832031 L 213.03125 551.066406 L 200.800781 563.3125 Z M 188.566406 551.074219 " fill-opacity="1" fill-rule="nonzero"/><path fill="#00004a" d="M 314.4375 593.109375 L 331.738281 593.109375 L 331.738281 610.417969 L 314.4375 610.417969 Z M 314.4375 593.109375 " fill-opacity="1" fill-rule="nonzero"/><path fill="#00004a" d="M 433.207031 551.066406 L 445.445312 538.828125 L 457.671875 551.074219 L 445.4375 563.308594 Z M 433.207031 551.066406 " fill-opacity="1" fill-rule="nonzero"/><path fill="#00004a" d="M 262.542969 428.660156 L 279.84375 428.660156 C 279.84375 404.792969 299.242188 385.382812 323.089844 385.382812 L 323.089844 368.074219 C 289.710938 368.074219 262.542969 395.246094 262.542969 428.660156 Z M 262.542969 428.660156 " fill-opacity="1" fill-rule="nonzero"/><path fill="#00004a" d="M 265.984375 448.851562 C 268.625 456.320312 272.65625 463.117188 277.96875 469.0625 L 290.851562 457.507812 C 287.054688 453.265625 284.183594 448.417969 282.308594 443.097656 Z M 265.984375 448.851562 " fill-opacity="1" fill-rule="nonzero"/><path fill="#00004a" d="M 483.59375 172.003906 L 473.964844 157.621094 C 467.929688 161.671875 462.398438 166.46875 457.566406 171.886719 L 470.453125 183.429688 C 474.316406 179.09375 478.75 175.25 483.59375 172.003906 Z M 483.59375 172.003906 " fill-opacity="1" fill-rule="nonzero"/><path fill="#00004a" d="M 537.398438 162.058594 L 541.230469 145.183594 C 525.386719 141.582031 508.5 142.550781 493.183594 147.960938 L 498.945312 164.28125 C 511.183594 159.953125 524.71875 159.175781 537.398438 162.058594 Z M 537.398438 162.058594 " fill-opacity="1" fill-rule="nonzero"/></svg>